%TF.GenerationSoftware,KiCad,Pcbnew,(6.0.1-0)*%
%TF.CreationDate,2023-04-29T18:30:50+02:00*%
%TF.ProjectId,archimedes,61726368-696d-4656-9465-732e6b696361,rev?*%
%TF.SameCoordinates,Original*%
%TF.FileFunction,Soldermask,Bot*%
%TF.FilePolarity,Negative*%
%FSLAX46Y46*%
G04 Gerber Fmt 4.6, Leading zero omitted, Abs format (unit mm)*
G04 Created by KiCad (PCBNEW (6.0.1-0)) date 2023-04-29 18:30:50*
%MOMM*%
%LPD*%
G01*
G04 APERTURE LIST*
%ADD10O,1.700000X1.700000*%
%ADD11C,1.700000*%
%ADD12C,0.650000*%
%ADD13O,1.000000X2.100000*%
%ADD14O,1.000000X1.600000*%
G04 APERTURE END LIST*
D10*
%TO.C,J4*%
X146690000Y-114345000D03*
X149230000Y-114345000D03*
X151770000Y-114345000D03*
D11*
X154310000Y-114345000D03*
%TD*%
D12*
%TO.C,J1*%
X153390000Y-75600000D03*
X147610000Y-75600000D03*
D13*
X154820000Y-76130000D03*
X146180000Y-76130000D03*
D14*
X146180000Y-71950000D03*
X154820000Y-71950000D03*
%TD*%
D11*
%TO.C,J3*%
X159390000Y-71400000D03*
D10*
X159390000Y-73940000D03*
X159390000Y-76480000D03*
X159390000Y-79020000D03*
X159390000Y-81560000D03*
X159390000Y-84100000D03*
X159390000Y-86640000D03*
X159390000Y-89180000D03*
X159390000Y-91720000D03*
X159390000Y-94260000D03*
X159390000Y-96800000D03*
X159390000Y-99340000D03*
X159390000Y-101880000D03*
X159390000Y-104420000D03*
X159390000Y-106960000D03*
X159390000Y-109500000D03*
X159390000Y-112040000D03*
X159390000Y-114580000D03*
X159390000Y-117120000D03*
X159390000Y-119660000D03*
%TD*%
D11*
%TO.C,J2*%
X141610000Y-71400000D03*
D10*
X141610000Y-73940000D03*
X141610000Y-76480000D03*
X141610000Y-79020000D03*
X141610000Y-81560000D03*
X141610000Y-84100000D03*
X141610000Y-86640000D03*
X141610000Y-89180000D03*
X141610000Y-91720000D03*
X141610000Y-94260000D03*
X141610000Y-96800000D03*
X141610000Y-99340000D03*
X141610000Y-101880000D03*
X141610000Y-104420000D03*
X141610000Y-106960000D03*
X141610000Y-109500000D03*
X141610000Y-112040000D03*
X141610000Y-114580000D03*
X141610000Y-117120000D03*
X141610000Y-119660000D03*
%TD*%
M02*
