%TF.GenerationSoftware,KiCad,Pcbnew,(6.0.1-0)*%
%TF.CreationDate,2023-04-29T18:30:50+02:00*%
%TF.ProjectId,archimedes,61726368-696d-4656-9465-732e6b696361,rev?*%
%TF.SameCoordinates,Original*%
%TF.FileFunction,Legend,Bot*%
%TF.FilePolarity,Positive*%
%FSLAX46Y46*%
G04 Gerber Fmt 4.6, Leading zero omitted, Abs format (unit mm)*
G04 Created by KiCad (PCBNEW (6.0.1-0)) date 2023-04-29 18:30:50*
%MOMM*%
%LPD*%
G01*
G04 APERTURE LIST*
%ADD10C,0.100000*%
G04 APERTURE END LIST*
D10*
X151476190Y-119836428D02*
X151438095Y-119722142D01*
X151438095Y-119531666D01*
X151476190Y-119455476D01*
X151514285Y-119417380D01*
X151590476Y-119379285D01*
X151666666Y-119379285D01*
X151742857Y-119417380D01*
X151780952Y-119455476D01*
X151819047Y-119531666D01*
X151857142Y-119684047D01*
X151895238Y-119760238D01*
X151933333Y-119798333D01*
X152009523Y-119836428D01*
X152085714Y-119836428D01*
X152161904Y-119798333D01*
X152200000Y-119760238D01*
X152238095Y-119684047D01*
X152238095Y-119493571D01*
X152200000Y-119379285D01*
X152238095Y-119112619D02*
X151438095Y-118922142D01*
X152009523Y-118769761D01*
X151438095Y-118617380D01*
X152238095Y-118426904D01*
X151514285Y-117665000D02*
X151476190Y-117703095D01*
X151438095Y-117817380D01*
X151438095Y-117893571D01*
X151476190Y-118007857D01*
X151552380Y-118084047D01*
X151628571Y-118122142D01*
X151780952Y-118160238D01*
X151895238Y-118160238D01*
X152047619Y-118122142D01*
X152123809Y-118084047D01*
X152200000Y-118007857D01*
X152238095Y-117893571D01*
X152238095Y-117817380D01*
X152200000Y-117703095D01*
X152161904Y-117665000D01*
X151438095Y-116941190D02*
X151438095Y-117322142D01*
X152238095Y-117322142D01*
X151438095Y-116674523D02*
X152238095Y-116674523D01*
X151438095Y-116217380D02*
X151895238Y-116560238D01*
X152238095Y-116217380D02*
X151780952Y-116674523D01*
X144638095Y-84366666D02*
X144638095Y-83871428D01*
X144333333Y-84138095D01*
X144333333Y-84023809D01*
X144295238Y-83947619D01*
X144257142Y-83909523D01*
X144180952Y-83871428D01*
X143990476Y-83871428D01*
X143914285Y-83909523D01*
X143876190Y-83947619D01*
X143838095Y-84023809D01*
X143838095Y-84252380D01*
X143876190Y-84328571D01*
X143914285Y-84366666D01*
X156933333Y-78528571D02*
X156933333Y-78909523D01*
X157161904Y-78452380D02*
X156361904Y-78719047D01*
X157161904Y-78985714D01*
X156361904Y-79176190D02*
X156361904Y-79671428D01*
X156666666Y-79404761D01*
X156666666Y-79519047D01*
X156704761Y-79595238D01*
X156742857Y-79633333D01*
X156819047Y-79671428D01*
X157009523Y-79671428D01*
X157085714Y-79633333D01*
X157123809Y-79595238D01*
X157161904Y-79519047D01*
X157161904Y-79290476D01*
X157123809Y-79214285D01*
X157085714Y-79176190D01*
X144638095Y-91647619D02*
X144638095Y-91800000D01*
X144600000Y-91876190D01*
X144561904Y-91914285D01*
X144447619Y-91990476D01*
X144295238Y-92028571D01*
X143990476Y-92028571D01*
X143914285Y-91990476D01*
X143876190Y-91952380D01*
X143838095Y-91876190D01*
X143838095Y-91723809D01*
X143876190Y-91647619D01*
X143914285Y-91609523D01*
X143990476Y-91571428D01*
X144180952Y-91571428D01*
X144257142Y-91609523D01*
X144295238Y-91647619D01*
X144333333Y-91723809D01*
X144333333Y-91876190D01*
X144295238Y-91952380D01*
X144257142Y-91990476D01*
X144180952Y-92028571D01*
X143838095Y-109652380D02*
X143838095Y-110109523D01*
X143838095Y-109880952D02*
X144638095Y-109880952D01*
X144523809Y-109957142D01*
X144447619Y-110033333D01*
X144409523Y-110109523D01*
X143838095Y-108890476D02*
X143838095Y-109347619D01*
X143838095Y-109119047D02*
X144638095Y-109119047D01*
X144523809Y-109195238D01*
X144447619Y-109271428D01*
X144409523Y-109347619D01*
X144638095Y-94566666D02*
X144638095Y-94033333D01*
X143838095Y-94376190D01*
X144295238Y-101976190D02*
X144333333Y-102052380D01*
X144371428Y-102090476D01*
X144447619Y-102128571D01*
X144485714Y-102128571D01*
X144561904Y-102090476D01*
X144600000Y-102052380D01*
X144638095Y-101976190D01*
X144638095Y-101823809D01*
X144600000Y-101747619D01*
X144561904Y-101709523D01*
X144485714Y-101671428D01*
X144447619Y-101671428D01*
X144371428Y-101709523D01*
X144333333Y-101747619D01*
X144295238Y-101823809D01*
X144295238Y-101976190D01*
X144257142Y-102052380D01*
X144219047Y-102090476D01*
X144142857Y-102128571D01*
X143990476Y-102128571D01*
X143914285Y-102090476D01*
X143876190Y-102052380D01*
X143838095Y-101976190D01*
X143838095Y-101823809D01*
X143876190Y-101747619D01*
X143914285Y-101709523D01*
X143990476Y-101671428D01*
X144142857Y-101671428D01*
X144219047Y-101709523D01*
X144257142Y-101747619D01*
X144295238Y-101823809D01*
X144638095Y-75390476D02*
X144638095Y-74895238D01*
X144333333Y-75161904D01*
X144333333Y-75047619D01*
X144295238Y-74971428D01*
X144257142Y-74933333D01*
X144180952Y-74895238D01*
X143990476Y-74895238D01*
X143914285Y-74933333D01*
X143876190Y-74971428D01*
X143838095Y-75047619D01*
X143838095Y-75276190D01*
X143876190Y-75352380D01*
X143914285Y-75390476D01*
X144638095Y-74666666D02*
X143838095Y-74400000D01*
X144638095Y-74133333D01*
X144638095Y-73942857D02*
X144638095Y-73447619D01*
X144333333Y-73714285D01*
X144333333Y-73600000D01*
X144295238Y-73523809D01*
X144257142Y-73485714D01*
X144180952Y-73447619D01*
X143990476Y-73447619D01*
X143914285Y-73485714D01*
X143876190Y-73523809D01*
X143838095Y-73600000D01*
X143838095Y-73828571D01*
X143876190Y-73904761D01*
X143914285Y-73942857D01*
X144600000Y-97209523D02*
X144638095Y-97285714D01*
X144638095Y-97400000D01*
X144600000Y-97514285D01*
X144523809Y-97590476D01*
X144447619Y-97628571D01*
X144295238Y-97666666D01*
X144180952Y-97666666D01*
X144028571Y-97628571D01*
X143952380Y-97590476D01*
X143876190Y-97514285D01*
X143838095Y-97400000D01*
X143838095Y-97323809D01*
X143876190Y-97209523D01*
X143914285Y-97171428D01*
X144180952Y-97171428D01*
X144180952Y-97323809D01*
X143838095Y-96828571D02*
X144638095Y-96828571D01*
X143838095Y-96371428D01*
X144638095Y-96371428D01*
X143838095Y-95990476D02*
X144638095Y-95990476D01*
X144638095Y-95800000D01*
X144600000Y-95685714D01*
X144523809Y-95609523D01*
X144447619Y-95571428D01*
X144295238Y-95533333D01*
X144180952Y-95533333D01*
X144028571Y-95571428D01*
X143952380Y-95609523D01*
X143876190Y-95685714D01*
X143838095Y-95800000D01*
X143838095Y-95990476D01*
X157161904Y-98809523D02*
X156780952Y-98542857D01*
X157161904Y-98352380D02*
X156361904Y-98352380D01*
X156361904Y-98657142D01*
X156400000Y-98733333D01*
X156438095Y-98771428D01*
X156514285Y-98809523D01*
X156628571Y-98809523D01*
X156704761Y-98771428D01*
X156742857Y-98733333D01*
X156780952Y-98657142D01*
X156780952Y-98352380D01*
X156361904Y-99152380D02*
X157009523Y-99152380D01*
X157085714Y-99190476D01*
X157123809Y-99228571D01*
X157161904Y-99304761D01*
X157161904Y-99457142D01*
X157123809Y-99533333D01*
X157085714Y-99571428D01*
X157009523Y-99609523D01*
X156361904Y-99609523D01*
X157161904Y-99990476D02*
X156361904Y-99990476D01*
X157161904Y-100447619D01*
X156361904Y-100447619D01*
X157161904Y-116947619D02*
X157161904Y-116490476D01*
X157161904Y-116719047D02*
X156361904Y-116719047D01*
X156476190Y-116642857D01*
X156552380Y-116566666D01*
X156590476Y-116490476D01*
X156361904Y-117214285D02*
X156361904Y-117747619D01*
X157161904Y-117404761D01*
X156400000Y-73390476D02*
X156361904Y-73314285D01*
X156361904Y-73200000D01*
X156400000Y-73085714D01*
X156476190Y-73009523D01*
X156552380Y-72971428D01*
X156704761Y-72933333D01*
X156819047Y-72933333D01*
X156971428Y-72971428D01*
X157047619Y-73009523D01*
X157123809Y-73085714D01*
X157161904Y-73200000D01*
X157161904Y-73276190D01*
X157123809Y-73390476D01*
X157085714Y-73428571D01*
X156819047Y-73428571D01*
X156819047Y-73276190D01*
X157161904Y-73771428D02*
X156361904Y-73771428D01*
X157161904Y-74228571D01*
X156361904Y-74228571D01*
X157161904Y-74609523D02*
X156361904Y-74609523D01*
X156361904Y-74800000D01*
X156400000Y-74914285D01*
X156476190Y-74990476D01*
X156552380Y-75028571D01*
X156704761Y-75066666D01*
X156819047Y-75066666D01*
X156971428Y-75028571D01*
X157047619Y-74990476D01*
X157123809Y-74914285D01*
X157161904Y-74800000D01*
X157161904Y-74609523D01*
X143838095Y-104552380D02*
X143838095Y-104400000D01*
X143876190Y-104323809D01*
X143914285Y-104285714D01*
X144028571Y-104209523D01*
X144180952Y-104171428D01*
X144485714Y-104171428D01*
X144561904Y-104209523D01*
X144600000Y-104247619D01*
X144638095Y-104323809D01*
X144638095Y-104476190D01*
X144600000Y-104552380D01*
X144561904Y-104590476D01*
X144485714Y-104628571D01*
X144295238Y-104628571D01*
X144219047Y-104590476D01*
X144180952Y-104552380D01*
X144142857Y-104476190D01*
X144142857Y-104323809D01*
X144180952Y-104247619D01*
X144219047Y-104209523D01*
X144295238Y-104171428D01*
X143838095Y-107152380D02*
X143838095Y-107609523D01*
X143838095Y-107380952D02*
X144638095Y-107380952D01*
X144523809Y-107457142D01*
X144447619Y-107533333D01*
X144409523Y-107609523D01*
X144638095Y-106657142D02*
X144638095Y-106580952D01*
X144600000Y-106504761D01*
X144561904Y-106466666D01*
X144485714Y-106428571D01*
X144333333Y-106390476D01*
X144142857Y-106390476D01*
X143990476Y-106428571D01*
X143914285Y-106466666D01*
X143876190Y-106504761D01*
X143838095Y-106580952D01*
X143838095Y-106657142D01*
X143876190Y-106733333D01*
X143914285Y-106771428D01*
X143990476Y-106809523D01*
X144142857Y-106847619D01*
X144333333Y-106847619D01*
X144485714Y-106809523D01*
X144561904Y-106771428D01*
X144600000Y-106733333D01*
X144638095Y-106657142D01*
X148876190Y-119607857D02*
X148838095Y-119493571D01*
X148838095Y-119303095D01*
X148876190Y-119226904D01*
X148914285Y-119188809D01*
X148990476Y-119150714D01*
X149066666Y-119150714D01*
X149142857Y-119188809D01*
X149180952Y-119226904D01*
X149219047Y-119303095D01*
X149257142Y-119455476D01*
X149295238Y-119531666D01*
X149333333Y-119569761D01*
X149409523Y-119607857D01*
X149485714Y-119607857D01*
X149561904Y-119569761D01*
X149600000Y-119531666D01*
X149638095Y-119455476D01*
X149638095Y-119265000D01*
X149600000Y-119150714D01*
X149638095Y-118884047D02*
X148838095Y-118693571D01*
X149409523Y-118541190D01*
X148838095Y-118388809D01*
X149638095Y-118198333D01*
X148838095Y-117893571D02*
X149638095Y-117893571D01*
X149638095Y-117703095D01*
X149600000Y-117588809D01*
X149523809Y-117512619D01*
X149447619Y-117474523D01*
X149295238Y-117436428D01*
X149180952Y-117436428D01*
X149028571Y-117474523D01*
X148952380Y-117512619D01*
X148876190Y-117588809D01*
X148838095Y-117703095D01*
X148838095Y-117893571D01*
X148838095Y-117093571D02*
X149638095Y-117093571D01*
X149638095Y-116560238D02*
X149638095Y-116407857D01*
X149600000Y-116331666D01*
X149523809Y-116255476D01*
X149371428Y-116217380D01*
X149104761Y-116217380D01*
X148952380Y-116255476D01*
X148876190Y-116331666D01*
X148838095Y-116407857D01*
X148838095Y-116560238D01*
X148876190Y-116636428D01*
X148952380Y-116712619D01*
X149104761Y-116750714D01*
X149371428Y-116750714D01*
X149523809Y-116712619D01*
X149600000Y-116636428D01*
X149638095Y-116560238D01*
X156933333Y-86028571D02*
X156933333Y-86409523D01*
X157161904Y-85952380D02*
X156361904Y-86219047D01*
X157161904Y-86485714D01*
X156361904Y-86904761D02*
X156361904Y-86980952D01*
X156400000Y-87057142D01*
X156438095Y-87095238D01*
X156514285Y-87133333D01*
X156666666Y-87171428D01*
X156857142Y-87171428D01*
X157009523Y-87133333D01*
X157085714Y-87095238D01*
X157123809Y-87057142D01*
X157161904Y-86980952D01*
X157161904Y-86904761D01*
X157123809Y-86828571D01*
X157085714Y-86790476D01*
X157009523Y-86752380D01*
X156857142Y-86714285D01*
X156666666Y-86714285D01*
X156514285Y-86752380D01*
X156438095Y-86790476D01*
X156400000Y-86828571D01*
X156361904Y-86904761D01*
X156361904Y-76347619D02*
X156361904Y-75966666D01*
X156742857Y-75928571D01*
X156704761Y-75966666D01*
X156666666Y-76042857D01*
X156666666Y-76233333D01*
X156704761Y-76309523D01*
X156742857Y-76347619D01*
X156819047Y-76385714D01*
X157009523Y-76385714D01*
X157085714Y-76347619D01*
X157123809Y-76309523D01*
X157161904Y-76233333D01*
X157161904Y-76042857D01*
X157123809Y-75966666D01*
X157085714Y-75928571D01*
X156361904Y-76614285D02*
X157161904Y-76880952D01*
X156361904Y-77147619D01*
X144638095Y-89009523D02*
X144638095Y-89390476D01*
X144257142Y-89428571D01*
X144295238Y-89390476D01*
X144333333Y-89314285D01*
X144333333Y-89123809D01*
X144295238Y-89047619D01*
X144257142Y-89009523D01*
X144180952Y-88971428D01*
X143990476Y-88971428D01*
X143914285Y-89009523D01*
X143876190Y-89047619D01*
X143838095Y-89123809D01*
X143838095Y-89314285D01*
X143876190Y-89390476D01*
X143914285Y-89428571D01*
X154944523Y-111061904D02*
X154944523Y-110261904D01*
X154677857Y-110833333D01*
X154411190Y-110261904D01*
X154411190Y-111061904D01*
X153687380Y-111061904D02*
X153687380Y-110642857D01*
X153725476Y-110566666D01*
X153801666Y-110528571D01*
X153954047Y-110528571D01*
X154030238Y-110566666D01*
X153687380Y-111023809D02*
X153763571Y-111061904D01*
X153954047Y-111061904D01*
X154030238Y-111023809D01*
X154068333Y-110947619D01*
X154068333Y-110871428D01*
X154030238Y-110795238D01*
X153954047Y-110757142D01*
X153763571Y-110757142D01*
X153687380Y-110719047D01*
X153306428Y-111061904D02*
X153306428Y-110528571D01*
X153306428Y-110680952D02*
X153268333Y-110604761D01*
X153230238Y-110566666D01*
X153154047Y-110528571D01*
X153077857Y-110528571D01*
X152925476Y-110528571D02*
X152620714Y-110528571D01*
X152811190Y-110261904D02*
X152811190Y-110947619D01*
X152773095Y-111023809D01*
X152696904Y-111061904D01*
X152620714Y-111061904D01*
X152354047Y-111061904D02*
X152354047Y-110528571D01*
X152354047Y-110261904D02*
X152392142Y-110300000D01*
X152354047Y-110338095D01*
X152315952Y-110300000D01*
X152354047Y-110261904D01*
X152354047Y-110338095D01*
X151973095Y-110528571D02*
X151973095Y-111061904D01*
X151973095Y-110604761D02*
X151935000Y-110566666D01*
X151858809Y-110528571D01*
X151744523Y-110528571D01*
X151668333Y-110566666D01*
X151630238Y-110642857D01*
X151630238Y-111061904D01*
X150639761Y-111061904D02*
X150639761Y-110261904D01*
X150182619Y-111061904D02*
X150525476Y-110604761D01*
X150182619Y-110261904D02*
X150639761Y-110719047D01*
X149725476Y-111061904D02*
X149801666Y-111023809D01*
X149839761Y-110985714D01*
X149877857Y-110909523D01*
X149877857Y-110680952D01*
X149839761Y-110604761D01*
X149801666Y-110566666D01*
X149725476Y-110528571D01*
X149611190Y-110528571D01*
X149535000Y-110566666D01*
X149496904Y-110604761D01*
X149458809Y-110680952D01*
X149458809Y-110909523D01*
X149496904Y-110985714D01*
X149535000Y-111023809D01*
X149611190Y-111061904D01*
X149725476Y-111061904D01*
X149115952Y-110528571D02*
X149115952Y-111328571D01*
X149115952Y-110566666D02*
X149039761Y-110528571D01*
X148887380Y-110528571D01*
X148811190Y-110566666D01*
X148773095Y-110604761D01*
X148735000Y-110680952D01*
X148735000Y-110909523D01*
X148773095Y-110985714D01*
X148811190Y-111023809D01*
X148887380Y-111061904D01*
X149039761Y-111061904D01*
X149115952Y-111023809D01*
X148392142Y-111061904D02*
X148392142Y-110261904D01*
X148315952Y-110757142D02*
X148087380Y-111061904D01*
X148087380Y-110528571D02*
X148392142Y-110833333D01*
X147401666Y-111061904D02*
X147401666Y-110642857D01*
X147439761Y-110566666D01*
X147515952Y-110528571D01*
X147668333Y-110528571D01*
X147744523Y-110566666D01*
X147401666Y-111023809D02*
X147477857Y-111061904D01*
X147668333Y-111061904D01*
X147744523Y-111023809D01*
X147782619Y-110947619D01*
X147782619Y-110871428D01*
X147744523Y-110795238D01*
X147668333Y-110757142D01*
X147477857Y-110757142D01*
X147401666Y-110719047D01*
X156438095Y-103890476D02*
X156400000Y-103928571D01*
X156361904Y-104004761D01*
X156361904Y-104195238D01*
X156400000Y-104271428D01*
X156438095Y-104309523D01*
X156514285Y-104347619D01*
X156590476Y-104347619D01*
X156704761Y-104309523D01*
X157161904Y-103852380D01*
X157161904Y-104347619D01*
X156438095Y-104652380D02*
X156400000Y-104690476D01*
X156361904Y-104766666D01*
X156361904Y-104957142D01*
X156400000Y-105033333D01*
X156438095Y-105071428D01*
X156514285Y-105109523D01*
X156590476Y-105109523D01*
X156704761Y-105071428D01*
X157161904Y-104614285D01*
X157161904Y-105109523D01*
X156438095Y-93690476D02*
X156400000Y-93728571D01*
X156361904Y-93804761D01*
X156361904Y-93995238D01*
X156400000Y-94071428D01*
X156438095Y-94109523D01*
X156514285Y-94147619D01*
X156590476Y-94147619D01*
X156704761Y-94109523D01*
X157161904Y-93652380D01*
X157161904Y-94147619D01*
X156361904Y-94871428D02*
X156361904Y-94490476D01*
X156742857Y-94452380D01*
X156704761Y-94490476D01*
X156666666Y-94566666D01*
X156666666Y-94757142D01*
X156704761Y-94833333D01*
X156742857Y-94871428D01*
X156819047Y-94909523D01*
X157009523Y-94909523D01*
X157085714Y-94871428D01*
X157123809Y-94833333D01*
X157161904Y-94757142D01*
X157161904Y-94566666D01*
X157123809Y-94490476D01*
X157085714Y-94452380D01*
X156933333Y-83528571D02*
X156933333Y-83909523D01*
X157161904Y-83452380D02*
X156361904Y-83719047D01*
X157161904Y-83985714D01*
X157161904Y-84671428D02*
X157161904Y-84214285D01*
X157161904Y-84442857D02*
X156361904Y-84442857D01*
X156476190Y-84366666D01*
X156552380Y-84290476D01*
X156590476Y-84214285D01*
X156438095Y-106390476D02*
X156400000Y-106428571D01*
X156361904Y-106504761D01*
X156361904Y-106695238D01*
X156400000Y-106771428D01*
X156438095Y-106809523D01*
X156514285Y-106847619D01*
X156590476Y-106847619D01*
X156704761Y-106809523D01*
X157161904Y-106352380D01*
X157161904Y-106847619D01*
X157161904Y-107609523D02*
X157161904Y-107152380D01*
X157161904Y-107380952D02*
X156361904Y-107380952D01*
X156476190Y-107304761D01*
X156552380Y-107228571D01*
X156590476Y-107152380D01*
X156438095Y-96190476D02*
X156400000Y-96228571D01*
X156361904Y-96304761D01*
X156361904Y-96495238D01*
X156400000Y-96571428D01*
X156438095Y-96609523D01*
X156514285Y-96647619D01*
X156590476Y-96647619D01*
X156704761Y-96609523D01*
X157161904Y-96152380D01*
X157161904Y-96647619D01*
X156628571Y-97333333D02*
X157161904Y-97333333D01*
X156323809Y-97142857D02*
X156895238Y-96952380D01*
X156895238Y-97447619D01*
X156438095Y-108890476D02*
X156400000Y-108928571D01*
X156361904Y-109004761D01*
X156361904Y-109195238D01*
X156400000Y-109271428D01*
X156438095Y-109309523D01*
X156514285Y-109347619D01*
X156590476Y-109347619D01*
X156704761Y-109309523D01*
X157161904Y-108852380D01*
X157161904Y-109347619D01*
X156361904Y-109842857D02*
X156361904Y-109919047D01*
X156400000Y-109995238D01*
X156438095Y-110033333D01*
X156514285Y-110071428D01*
X156666666Y-110109523D01*
X156857142Y-110109523D01*
X157009523Y-110071428D01*
X157085714Y-110033333D01*
X157123809Y-109995238D01*
X157161904Y-109919047D01*
X157161904Y-109842857D01*
X157123809Y-109766666D01*
X157085714Y-109728571D01*
X157009523Y-109690476D01*
X156857142Y-109652380D01*
X156666666Y-109652380D01*
X156514285Y-109690476D01*
X156438095Y-109728571D01*
X156400000Y-109766666D01*
X156361904Y-109842857D01*
X144371428Y-86547619D02*
X143838095Y-86547619D01*
X144676190Y-86738095D02*
X144104761Y-86928571D01*
X144104761Y-86433333D01*
X154957142Y-90471428D02*
X154957142Y-90957142D01*
X154985714Y-91014285D01*
X155014285Y-91042857D01*
X155071428Y-91071428D01*
X155157142Y-91071428D01*
X155214285Y-91042857D01*
X154957142Y-90842857D02*
X155014285Y-90871428D01*
X155128571Y-90871428D01*
X155185714Y-90842857D01*
X155214285Y-90814285D01*
X155242857Y-90757142D01*
X155242857Y-90585714D01*
X155214285Y-90528571D01*
X155185714Y-90500000D01*
X155128571Y-90471428D01*
X155014285Y-90471428D01*
X154957142Y-90500000D01*
X154671428Y-90871428D02*
X154671428Y-90471428D01*
X154671428Y-90271428D02*
X154700000Y-90300000D01*
X154671428Y-90328571D01*
X154642857Y-90300000D01*
X154671428Y-90271428D01*
X154671428Y-90328571D01*
X154471428Y-90471428D02*
X154242857Y-90471428D01*
X154385714Y-90271428D02*
X154385714Y-90785714D01*
X154357142Y-90842857D01*
X154300000Y-90871428D01*
X154242857Y-90871428D01*
X154042857Y-90871428D02*
X154042857Y-90271428D01*
X153785714Y-90871428D02*
X153785714Y-90557142D01*
X153814285Y-90500000D01*
X153871428Y-90471428D01*
X153957142Y-90471428D01*
X154014285Y-90500000D01*
X154042857Y-90528571D01*
X153242857Y-90471428D02*
X153242857Y-90871428D01*
X153500000Y-90471428D02*
X153500000Y-90785714D01*
X153471428Y-90842857D01*
X153414285Y-90871428D01*
X153328571Y-90871428D01*
X153271428Y-90842857D01*
X153242857Y-90814285D01*
X152957142Y-90871428D02*
X152957142Y-90271428D01*
X152957142Y-90500000D02*
X152900000Y-90471428D01*
X152785714Y-90471428D01*
X152728571Y-90500000D01*
X152700000Y-90528571D01*
X152671428Y-90585714D01*
X152671428Y-90757142D01*
X152700000Y-90814285D01*
X152728571Y-90842857D01*
X152785714Y-90871428D01*
X152900000Y-90871428D01*
X152957142Y-90842857D01*
X152414285Y-90814285D02*
X152385714Y-90842857D01*
X152414285Y-90871428D01*
X152442857Y-90842857D01*
X152414285Y-90814285D01*
X152414285Y-90871428D01*
X151871428Y-90842857D02*
X151928571Y-90871428D01*
X152042857Y-90871428D01*
X152100000Y-90842857D01*
X152128571Y-90814285D01*
X152157142Y-90757142D01*
X152157142Y-90585714D01*
X152128571Y-90528571D01*
X152100000Y-90500000D01*
X152042857Y-90471428D01*
X151928571Y-90471428D01*
X151871428Y-90500000D01*
X151528571Y-90871428D02*
X151585714Y-90842857D01*
X151614285Y-90814285D01*
X151642857Y-90757142D01*
X151642857Y-90585714D01*
X151614285Y-90528571D01*
X151585714Y-90500000D01*
X151528571Y-90471428D01*
X151442857Y-90471428D01*
X151385714Y-90500000D01*
X151357142Y-90528571D01*
X151328571Y-90585714D01*
X151328571Y-90757142D01*
X151357142Y-90814285D01*
X151385714Y-90842857D01*
X151442857Y-90871428D01*
X151528571Y-90871428D01*
X151071428Y-90871428D02*
X151071428Y-90471428D01*
X151071428Y-90528571D02*
X151042857Y-90500000D01*
X150985714Y-90471428D01*
X150900000Y-90471428D01*
X150842857Y-90500000D01*
X150814285Y-90557142D01*
X150814285Y-90871428D01*
X150814285Y-90557142D02*
X150785714Y-90500000D01*
X150728571Y-90471428D01*
X150642857Y-90471428D01*
X150585714Y-90500000D01*
X150557142Y-90557142D01*
X150557142Y-90871428D01*
X149842857Y-90242857D02*
X150357142Y-91014285D01*
X149642857Y-90871428D02*
X149642857Y-90471428D01*
X149642857Y-90528571D02*
X149614285Y-90500000D01*
X149557142Y-90471428D01*
X149471428Y-90471428D01*
X149414285Y-90500000D01*
X149385714Y-90557142D01*
X149385714Y-90871428D01*
X149385714Y-90557142D02*
X149357142Y-90500000D01*
X149300000Y-90471428D01*
X149214285Y-90471428D01*
X149157142Y-90500000D01*
X149128571Y-90557142D01*
X149128571Y-90871428D01*
X148842857Y-90642857D02*
X148385714Y-90642857D01*
X148100000Y-90871428D02*
X148100000Y-90271428D01*
X148042857Y-90642857D02*
X147871428Y-90871428D01*
X147871428Y-90471428D02*
X148100000Y-90700000D01*
X147528571Y-90871428D02*
X147585714Y-90842857D01*
X147614285Y-90814285D01*
X147642857Y-90757142D01*
X147642857Y-90585714D01*
X147614285Y-90528571D01*
X147585714Y-90500000D01*
X147528571Y-90471428D01*
X147442857Y-90471428D01*
X147385714Y-90500000D01*
X147357142Y-90528571D01*
X147328571Y-90585714D01*
X147328571Y-90757142D01*
X147357142Y-90814285D01*
X147385714Y-90842857D01*
X147442857Y-90871428D01*
X147528571Y-90871428D01*
X147071428Y-90471428D02*
X147071428Y-91071428D01*
X147071428Y-90500000D02*
X147014285Y-90471428D01*
X146900000Y-90471428D01*
X146842857Y-90500000D01*
X146814285Y-90528571D01*
X146785714Y-90585714D01*
X146785714Y-90757142D01*
X146814285Y-90814285D01*
X146842857Y-90842857D01*
X146900000Y-90871428D01*
X147014285Y-90871428D01*
X147071428Y-90842857D01*
X146528571Y-90871428D02*
X146528571Y-90271428D01*
X146471428Y-90642857D02*
X146300000Y-90871428D01*
X146300000Y-90471428D02*
X146528571Y-90700000D01*
X145785714Y-90871428D02*
X145785714Y-90557142D01*
X145814285Y-90500000D01*
X145871428Y-90471428D01*
X145985714Y-90471428D01*
X146042857Y-90500000D01*
X145785714Y-90842857D02*
X145842857Y-90871428D01*
X145985714Y-90871428D01*
X146042857Y-90842857D01*
X146071428Y-90785714D01*
X146071428Y-90728571D01*
X146042857Y-90671428D01*
X145985714Y-90642857D01*
X145842857Y-90642857D01*
X145785714Y-90614285D01*
X143838095Y-117252380D02*
X143838095Y-117709523D01*
X143838095Y-117480952D02*
X144638095Y-117480952D01*
X144523809Y-117557142D01*
X144447619Y-117633333D01*
X144409523Y-117709523D01*
X144371428Y-116566666D02*
X143838095Y-116566666D01*
X144676190Y-116757142D02*
X144104761Y-116947619D01*
X144104761Y-116452380D01*
X156361904Y-70833333D02*
X157161904Y-71100000D01*
X156361904Y-71366666D01*
X156742857Y-71900000D02*
X156780952Y-72014285D01*
X156819047Y-72052380D01*
X156895238Y-72090476D01*
X157009523Y-72090476D01*
X157085714Y-72052380D01*
X157123809Y-72014285D01*
X157161904Y-71938095D01*
X157161904Y-71633333D01*
X156361904Y-71633333D01*
X156361904Y-71900000D01*
X156400000Y-71976190D01*
X156438095Y-72014285D01*
X156514285Y-72052380D01*
X156590476Y-72052380D01*
X156666666Y-72014285D01*
X156704761Y-71976190D01*
X156742857Y-71900000D01*
X156742857Y-71633333D01*
X147138095Y-118160238D02*
X147138095Y-117665000D01*
X146833333Y-117931666D01*
X146833333Y-117817380D01*
X146795238Y-117741190D01*
X146757142Y-117703095D01*
X146680952Y-117665000D01*
X146490476Y-117665000D01*
X146414285Y-117703095D01*
X146376190Y-117741190D01*
X146338095Y-117817380D01*
X146338095Y-118045952D01*
X146376190Y-118122142D01*
X146414285Y-118160238D01*
X147138095Y-117436428D02*
X146338095Y-117169761D01*
X147138095Y-116903095D01*
X147138095Y-116712619D02*
X147138095Y-116217380D01*
X146833333Y-116484047D01*
X146833333Y-116369761D01*
X146795238Y-116293571D01*
X146757142Y-116255476D01*
X146680952Y-116217380D01*
X146490476Y-116217380D01*
X146414285Y-116255476D01*
X146376190Y-116293571D01*
X146338095Y-116369761D01*
X146338095Y-116598333D01*
X146376190Y-116674523D01*
X146414285Y-116712619D01*
X154777857Y-111871428D02*
X154720714Y-111871428D01*
X154663571Y-111900000D01*
X154635000Y-111928571D01*
X154606428Y-111985714D01*
X154577857Y-112100000D01*
X154577857Y-112242857D01*
X154606428Y-112357142D01*
X154635000Y-112414285D01*
X154663571Y-112442857D01*
X154720714Y-112471428D01*
X154777857Y-112471428D01*
X154835000Y-112442857D01*
X154863571Y-112414285D01*
X154892142Y-112357142D01*
X154920714Y-112242857D01*
X154920714Y-112100000D01*
X154892142Y-111985714D01*
X154863571Y-111928571D01*
X154835000Y-111900000D01*
X154777857Y-111871428D01*
X154377857Y-111871428D02*
X153977857Y-111871428D01*
X154235000Y-112471428D01*
X153320714Y-111842857D02*
X153835000Y-112614285D01*
X153149285Y-111928571D02*
X153120714Y-111900000D01*
X153063571Y-111871428D01*
X152920714Y-111871428D01*
X152863571Y-111900000D01*
X152835000Y-111928571D01*
X152806428Y-111985714D01*
X152806428Y-112042857D01*
X152835000Y-112128571D01*
X153177857Y-112471428D01*
X152806428Y-112471428D01*
X152577857Y-111928571D02*
X152549285Y-111900000D01*
X152492142Y-111871428D01*
X152349285Y-111871428D01*
X152292142Y-111900000D01*
X152263571Y-111928571D01*
X152235000Y-111985714D01*
X152235000Y-112042857D01*
X152263571Y-112128571D01*
X152606428Y-112471428D01*
X152235000Y-112471428D01*
X143838095Y-112252380D02*
X143838095Y-112709523D01*
X143838095Y-112480952D02*
X144638095Y-112480952D01*
X144523809Y-112557142D01*
X144447619Y-112633333D01*
X144409523Y-112709523D01*
X144561904Y-111947619D02*
X144600000Y-111909523D01*
X144638095Y-111833333D01*
X144638095Y-111642857D01*
X144600000Y-111566666D01*
X144561904Y-111528571D01*
X144485714Y-111490476D01*
X144409523Y-111490476D01*
X144295238Y-111528571D01*
X143838095Y-111985714D01*
X143838095Y-111490476D01*
X156438095Y-101290476D02*
X156400000Y-101328571D01*
X156361904Y-101404761D01*
X156361904Y-101595238D01*
X156400000Y-101671428D01*
X156438095Y-101709523D01*
X156514285Y-101747619D01*
X156590476Y-101747619D01*
X156704761Y-101709523D01*
X157161904Y-101252380D01*
X157161904Y-101747619D01*
X156361904Y-102014285D02*
X156361904Y-102509523D01*
X156666666Y-102242857D01*
X156666666Y-102357142D01*
X156704761Y-102433333D01*
X156742857Y-102471428D01*
X156819047Y-102509523D01*
X157009523Y-102509523D01*
X157085714Y-102471428D01*
X157123809Y-102433333D01*
X157161904Y-102357142D01*
X157161904Y-102128571D01*
X157123809Y-102052380D01*
X157085714Y-102014285D01*
X144638095Y-100690476D02*
X144638095Y-100195238D01*
X144333333Y-100461904D01*
X144333333Y-100347619D01*
X144295238Y-100271428D01*
X144257142Y-100233333D01*
X144180952Y-100195238D01*
X143990476Y-100195238D01*
X143914285Y-100233333D01*
X143876190Y-100271428D01*
X143838095Y-100347619D01*
X143838095Y-100576190D01*
X143876190Y-100652380D01*
X143914285Y-100690476D01*
X144638095Y-99966666D02*
X143838095Y-99700000D01*
X144638095Y-99433333D01*
X144638095Y-99242857D02*
X144638095Y-98747619D01*
X144333333Y-99014285D01*
X144333333Y-98900000D01*
X144295238Y-98823809D01*
X144257142Y-98785714D01*
X144180952Y-98747619D01*
X143990476Y-98747619D01*
X143914285Y-98785714D01*
X143876190Y-98823809D01*
X143838095Y-98900000D01*
X143838095Y-99128571D01*
X143876190Y-99204761D01*
X143914285Y-99242857D01*
X157161904Y-119297619D02*
X157161904Y-118840476D01*
X157161904Y-119069047D02*
X156361904Y-119069047D01*
X156476190Y-118992857D01*
X156552380Y-118916666D01*
X156590476Y-118840476D01*
X156361904Y-119983333D02*
X156361904Y-119830952D01*
X156400000Y-119754761D01*
X156438095Y-119716666D01*
X156552380Y-119640476D01*
X156704761Y-119602380D01*
X157009523Y-119602380D01*
X157085714Y-119640476D01*
X157123809Y-119678571D01*
X157161904Y-119754761D01*
X157161904Y-119907142D01*
X157123809Y-119983333D01*
X157085714Y-120021428D01*
X157009523Y-120059523D01*
X156819047Y-120059523D01*
X156742857Y-120021428D01*
X156704761Y-119983333D01*
X156666666Y-119907142D01*
X156666666Y-119754761D01*
X156704761Y-119678571D01*
X156742857Y-119640476D01*
X156819047Y-119602380D01*
X157161904Y-114447619D02*
X157161904Y-113990476D01*
X157161904Y-114219047D02*
X156361904Y-114219047D01*
X156476190Y-114142857D01*
X156552380Y-114066666D01*
X156590476Y-113990476D01*
X156704761Y-114904761D02*
X156666666Y-114828571D01*
X156628571Y-114790476D01*
X156552380Y-114752380D01*
X156514285Y-114752380D01*
X156438095Y-114790476D01*
X156400000Y-114828571D01*
X156361904Y-114904761D01*
X156361904Y-115057142D01*
X156400000Y-115133333D01*
X156438095Y-115171428D01*
X156514285Y-115209523D01*
X156552380Y-115209523D01*
X156628571Y-115171428D01*
X156666666Y-115133333D01*
X156704761Y-115057142D01*
X156704761Y-114904761D01*
X156742857Y-114828571D01*
X156780952Y-114790476D01*
X156857142Y-114752380D01*
X157009523Y-114752380D01*
X157085714Y-114790476D01*
X157123809Y-114828571D01*
X157161904Y-114904761D01*
X157161904Y-115057142D01*
X157123809Y-115133333D01*
X157085714Y-115171428D01*
X157009523Y-115209523D01*
X156857142Y-115209523D01*
X156780952Y-115171428D01*
X156742857Y-115133333D01*
X156704761Y-115057142D01*
X143838095Y-114752380D02*
X143838095Y-115209523D01*
X143838095Y-114980952D02*
X144638095Y-114980952D01*
X144523809Y-115057142D01*
X144447619Y-115133333D01*
X144409523Y-115209523D01*
X144638095Y-114485714D02*
X144638095Y-113990476D01*
X144333333Y-114257142D01*
X144333333Y-114142857D01*
X144295238Y-114066666D01*
X144257142Y-114028571D01*
X144180952Y-113990476D01*
X143990476Y-113990476D01*
X143914285Y-114028571D01*
X143876190Y-114066666D01*
X143838095Y-114142857D01*
X143838095Y-114371428D01*
X143876190Y-114447619D01*
X143914285Y-114485714D01*
X156400000Y-91290476D02*
X156361904Y-91214285D01*
X156361904Y-91100000D01*
X156400000Y-90985714D01*
X156476190Y-90909523D01*
X156552380Y-90871428D01*
X156704761Y-90833333D01*
X156819047Y-90833333D01*
X156971428Y-90871428D01*
X157047619Y-90909523D01*
X157123809Y-90985714D01*
X157161904Y-91100000D01*
X157161904Y-91176190D01*
X157123809Y-91290476D01*
X157085714Y-91328571D01*
X156819047Y-91328571D01*
X156819047Y-91176190D01*
X157161904Y-91671428D02*
X156361904Y-91671428D01*
X157161904Y-92128571D01*
X156361904Y-92128571D01*
X157161904Y-92509523D02*
X156361904Y-92509523D01*
X156361904Y-92700000D01*
X156400000Y-92814285D01*
X156476190Y-92890476D01*
X156552380Y-92928571D01*
X156704761Y-92966666D01*
X156819047Y-92966666D01*
X156971428Y-92928571D01*
X157047619Y-92890476D01*
X157123809Y-92814285D01*
X157161904Y-92700000D01*
X157161904Y-92509523D01*
X144638095Y-76538095D02*
X144638095Y-76461904D01*
X144600000Y-76385714D01*
X144561904Y-76347619D01*
X144485714Y-76309523D01*
X144333333Y-76271428D01*
X144142857Y-76271428D01*
X143990476Y-76309523D01*
X143914285Y-76347619D01*
X143876190Y-76385714D01*
X143838095Y-76461904D01*
X143838095Y-76538095D01*
X143876190Y-76614285D01*
X143914285Y-76652380D01*
X143990476Y-76690476D01*
X144142857Y-76728571D01*
X144333333Y-76728571D01*
X144485714Y-76690476D01*
X144561904Y-76652380D01*
X144600000Y-76614285D01*
X144638095Y-76538095D01*
X144561904Y-81828571D02*
X144600000Y-81790476D01*
X144638095Y-81714285D01*
X144638095Y-81523809D01*
X144600000Y-81447619D01*
X144561904Y-81409523D01*
X144485714Y-81371428D01*
X144409523Y-81371428D01*
X144295238Y-81409523D01*
X143838095Y-81866666D01*
X143838095Y-81371428D01*
X156361904Y-88009523D02*
X156361904Y-88504761D01*
X156666666Y-88238095D01*
X156666666Y-88352380D01*
X156704761Y-88428571D01*
X156742857Y-88466666D01*
X156819047Y-88504761D01*
X157009523Y-88504761D01*
X157085714Y-88466666D01*
X157123809Y-88428571D01*
X157161904Y-88352380D01*
X157161904Y-88123809D01*
X157123809Y-88047619D01*
X157085714Y-88009523D01*
X156361904Y-88733333D02*
X157161904Y-89000000D01*
X156361904Y-89266666D01*
X156361904Y-89457142D02*
X156361904Y-89952380D01*
X156666666Y-89685714D01*
X156666666Y-89800000D01*
X156704761Y-89876190D01*
X156742857Y-89914285D01*
X156819047Y-89952380D01*
X157009523Y-89952380D01*
X157085714Y-89914285D01*
X157123809Y-89876190D01*
X157161904Y-89800000D01*
X157161904Y-89571428D01*
X157123809Y-89495238D01*
X157085714Y-89457142D01*
X147757857Y-112471428D02*
X147957857Y-112185714D01*
X148100714Y-112471428D02*
X148100714Y-111871428D01*
X147872142Y-111871428D01*
X147815000Y-111900000D01*
X147786428Y-111928571D01*
X147757857Y-111985714D01*
X147757857Y-112071428D01*
X147786428Y-112128571D01*
X147815000Y-112157142D01*
X147872142Y-112185714D01*
X148100714Y-112185714D01*
X147272142Y-112442857D02*
X147329285Y-112471428D01*
X147443571Y-112471428D01*
X147500714Y-112442857D01*
X147529285Y-112385714D01*
X147529285Y-112157142D01*
X147500714Y-112100000D01*
X147443571Y-112071428D01*
X147329285Y-112071428D01*
X147272142Y-112100000D01*
X147243571Y-112157142D01*
X147243571Y-112214285D01*
X147529285Y-112271428D01*
X147043571Y-112071428D02*
X146900714Y-112471428D01*
X146757857Y-112071428D01*
X146529285Y-112414285D02*
X146500714Y-112442857D01*
X146529285Y-112471428D01*
X146557857Y-112442857D01*
X146529285Y-112414285D01*
X146529285Y-112471428D01*
X145929285Y-112471428D02*
X146272142Y-112471428D01*
X146100714Y-112471428D02*
X146100714Y-111871428D01*
X146157857Y-111957142D01*
X146215000Y-112014285D01*
X146272142Y-112042857D01*
X143838095Y-119652380D02*
X143838095Y-120109523D01*
X143838095Y-119880952D02*
X144638095Y-119880952D01*
X144523809Y-119957142D01*
X144447619Y-120033333D01*
X144409523Y-120109523D01*
X144638095Y-118928571D02*
X144638095Y-119309523D01*
X144257142Y-119347619D01*
X144295238Y-119309523D01*
X144333333Y-119233333D01*
X144333333Y-119042857D01*
X144295238Y-118966666D01*
X144257142Y-118928571D01*
X144180952Y-118890476D01*
X143990476Y-118890476D01*
X143914285Y-118928571D01*
X143876190Y-118966666D01*
X143838095Y-119042857D01*
X143838095Y-119233333D01*
X143876190Y-119309523D01*
X143914285Y-119347619D01*
X156933333Y-81028571D02*
X156933333Y-81409523D01*
X157161904Y-80952380D02*
X156361904Y-81219047D01*
X157161904Y-81485714D01*
X156438095Y-81714285D02*
X156400000Y-81752380D01*
X156361904Y-81828571D01*
X156361904Y-82019047D01*
X156400000Y-82095238D01*
X156438095Y-82133333D01*
X156514285Y-82171428D01*
X156590476Y-82171428D01*
X156704761Y-82133333D01*
X157161904Y-81676190D01*
X157161904Y-82171428D01*
X157161904Y-111947619D02*
X157161904Y-111490476D01*
X157161904Y-111719047D02*
X156361904Y-111719047D01*
X156476190Y-111642857D01*
X156552380Y-111566666D01*
X156590476Y-111490476D01*
X157161904Y-112328571D02*
X157161904Y-112480952D01*
X157123809Y-112557142D01*
X157085714Y-112595238D01*
X156971428Y-112671428D01*
X156819047Y-112709523D01*
X156514285Y-112709523D01*
X156438095Y-112671428D01*
X156400000Y-112633333D01*
X156361904Y-112557142D01*
X156361904Y-112404761D01*
X156400000Y-112328571D01*
X156438095Y-112290476D01*
X156514285Y-112252380D01*
X156704761Y-112252380D01*
X156780952Y-112290476D01*
X156819047Y-112328571D01*
X156857142Y-112404761D01*
X156857142Y-112557142D01*
X156819047Y-112633333D01*
X156780952Y-112671428D01*
X156704761Y-112709523D01*
X154700000Y-117893571D02*
X154738095Y-117969761D01*
X154738095Y-118084047D01*
X154700000Y-118198333D01*
X154623809Y-118274523D01*
X154547619Y-118312619D01*
X154395238Y-118350714D01*
X154280952Y-118350714D01*
X154128571Y-118312619D01*
X154052380Y-118274523D01*
X153976190Y-118198333D01*
X153938095Y-118084047D01*
X153938095Y-118007857D01*
X153976190Y-117893571D01*
X154014285Y-117855476D01*
X154280952Y-117855476D01*
X154280952Y-118007857D01*
X153938095Y-117512619D02*
X154738095Y-117512619D01*
X153938095Y-117055476D01*
X154738095Y-117055476D01*
X153938095Y-116674523D02*
X154738095Y-116674523D01*
X154738095Y-116484047D01*
X154700000Y-116369761D01*
X154623809Y-116293571D01*
X154547619Y-116255476D01*
X154395238Y-116217380D01*
X154280952Y-116217380D01*
X154128571Y-116255476D01*
X154052380Y-116293571D01*
X153976190Y-116369761D01*
X153938095Y-116484047D01*
X153938095Y-116674523D01*
X144600000Y-72309523D02*
X144638095Y-72385714D01*
X144638095Y-72500000D01*
X144600000Y-72614285D01*
X144523809Y-72690476D01*
X144447619Y-72728571D01*
X144295238Y-72766666D01*
X144180952Y-72766666D01*
X144028571Y-72728571D01*
X143952380Y-72690476D01*
X143876190Y-72614285D01*
X143838095Y-72500000D01*
X143838095Y-72423809D01*
X143876190Y-72309523D01*
X143914285Y-72271428D01*
X144180952Y-72271428D01*
X144180952Y-72423809D01*
X143838095Y-71928571D02*
X144638095Y-71928571D01*
X143838095Y-71471428D01*
X144638095Y-71471428D01*
X143838095Y-71090476D02*
X144638095Y-71090476D01*
X144638095Y-70900000D01*
X144600000Y-70785714D01*
X144523809Y-70709523D01*
X144447619Y-70671428D01*
X144295238Y-70633333D01*
X144180952Y-70633333D01*
X144028571Y-70671428D01*
X143952380Y-70709523D01*
X143876190Y-70785714D01*
X143838095Y-70900000D01*
X143838095Y-71090476D01*
X143838095Y-78771428D02*
X143838095Y-79228571D01*
X143838095Y-79000000D02*
X144638095Y-79000000D01*
X144523809Y-79076190D01*
X144447619Y-79152380D01*
X144409523Y-79228571D01*
%TO.C,G\u002A\u002A\u002A*%
G36*
X151871672Y-89465822D02*
G01*
X151871672Y-89152984D01*
X151582899Y-89152984D01*
X151582899Y-89465822D01*
X151258029Y-89465822D01*
X151258029Y-88852179D01*
X150957224Y-88852179D01*
X150957224Y-88840147D01*
X151582899Y-88840147D01*
X151883705Y-88840147D01*
X151883705Y-89140952D01*
X152172478Y-89140952D01*
X152172478Y-88551374D01*
X151582899Y-88551374D01*
X151582899Y-88840147D01*
X150957224Y-88840147D01*
X150957224Y-88539341D01*
X151570867Y-88539341D01*
X151570867Y-88226504D01*
X151883705Y-88226504D01*
X152172478Y-88226504D01*
X152172478Y-87937731D01*
X151883705Y-87937731D01*
X151883705Y-88226504D01*
X151570867Y-88226504D01*
X151570867Y-87324088D01*
X152172478Y-87324088D01*
X152172478Y-87011250D01*
X152485315Y-87011250D01*
X152485315Y-87636925D01*
X152184510Y-87636925D01*
X152184510Y-87925699D01*
X152485315Y-87925699D01*
X152485315Y-89465822D01*
X151871672Y-89465822D01*
G37*
G36*
X150957224Y-83377522D02*
G01*
X150957224Y-83076717D01*
X150668451Y-83076717D01*
X150668451Y-83377522D01*
X150355614Y-83377522D01*
X150355614Y-83967101D01*
X150668451Y-83967101D01*
X150668451Y-84291971D01*
X150355614Y-84291971D01*
X150355614Y-84580744D01*
X151258029Y-84580744D01*
X151582899Y-84580744D01*
X151871672Y-84580744D01*
X152184510Y-84580744D01*
X152786120Y-84580744D01*
X152786120Y-84291971D01*
X152473283Y-84291971D01*
X152473283Y-83678328D01*
X152184510Y-83678328D01*
X152184510Y-84580744D01*
X151871672Y-84580744D01*
X151871672Y-84291971D01*
X151582899Y-84291971D01*
X151582899Y-84580744D01*
X151258029Y-84580744D01*
X151258029Y-83979133D01*
X150957224Y-83979133D01*
X150957224Y-83666295D01*
X151582899Y-83666295D01*
X151582899Y-83967101D01*
X151871672Y-83967101D01*
X151871672Y-83666295D01*
X152798153Y-83666295D01*
X153086926Y-83666295D01*
X153086926Y-83377522D01*
X152798153Y-83377522D01*
X152798153Y-83666295D01*
X151871672Y-83666295D01*
X151871672Y-83377522D01*
X151570867Y-83377522D01*
X151570867Y-83064685D01*
X153098958Y-83064685D01*
X153098958Y-83365490D01*
X153387731Y-83365490D01*
X153387731Y-83064685D01*
X154927854Y-83064685D01*
X154927854Y-83678328D01*
X154302179Y-83678328D01*
X154302179Y-83377522D01*
X153399763Y-83377522D01*
X153399763Y-83979133D01*
X152798153Y-83979133D01*
X152798153Y-84279938D01*
X153399763Y-84279938D01*
X153399763Y-84893581D01*
X153098958Y-84893581D01*
X153098958Y-85206419D01*
X152798153Y-85206419D01*
X152798153Y-85495192D01*
X153098958Y-85495192D01*
X153098958Y-85808029D01*
X152798153Y-85808029D01*
X152798153Y-86096802D01*
X153387731Y-86096802D01*
X153387731Y-85795997D01*
X153700569Y-85795997D01*
X153700569Y-85507224D01*
X153387731Y-85507224D01*
X153387731Y-85495192D01*
X153712601Y-85495192D01*
X154001374Y-85495192D01*
X154001374Y-85206419D01*
X153712601Y-85206419D01*
X153712601Y-85495192D01*
X153387731Y-85495192D01*
X153387731Y-85194386D01*
X153700569Y-85194386D01*
X153700569Y-84279938D01*
X154001374Y-84279938D01*
X154001374Y-83967101D01*
X154927854Y-83967101D01*
X154927854Y-84291971D01*
X154013406Y-84291971D01*
X154013406Y-84580744D01*
X154314211Y-84580744D01*
X154314211Y-84893581D01*
X154013406Y-84893581D01*
X154013406Y-85194386D01*
X154314211Y-85194386D01*
X154314211Y-85495192D01*
X154927854Y-85495192D01*
X154927854Y-87023283D01*
X154602984Y-87023283D01*
X154602984Y-85808029D01*
X154314211Y-85808029D01*
X154314211Y-86108835D01*
X154013406Y-86108835D01*
X154013406Y-86409640D01*
X154314211Y-86409640D01*
X154314211Y-86722477D01*
X154013406Y-86722477D01*
X154013406Y-87023283D01*
X152786120Y-87023283D01*
X152786120Y-86710445D01*
X153387731Y-86710445D01*
X153387731Y-86421672D01*
X152485315Y-86421672D01*
X152485315Y-86722477D01*
X151883705Y-86722477D01*
X151883705Y-87023283D01*
X151270062Y-87023283D01*
X151270062Y-87336120D01*
X150969256Y-87336120D01*
X150969256Y-87624893D01*
X151270062Y-87624893D01*
X151270062Y-88238536D01*
X150957224Y-88238536D01*
X150957224Y-87937731D01*
X150668451Y-87937731D01*
X150668451Y-88238536D01*
X150355614Y-88238536D01*
X150355614Y-88840147D01*
X150668451Y-88840147D01*
X150668451Y-89152984D01*
X150355614Y-89152984D01*
X150355614Y-89465822D01*
X149741971Y-89465822D01*
X149741971Y-89152984D01*
X149140360Y-89152984D01*
X149140360Y-89465822D01*
X147913075Y-89465822D01*
X147913075Y-89140952D01*
X148213880Y-89140952D01*
X148839555Y-89140952D01*
X149128328Y-89140952D01*
X150054808Y-89140952D01*
X150343581Y-89140952D01*
X150343581Y-88852179D01*
X150054808Y-88852179D01*
X150054808Y-89140952D01*
X149128328Y-89140952D01*
X149128328Y-88852179D01*
X148839555Y-88852179D01*
X148839555Y-89140952D01*
X148213880Y-89140952D01*
X148213880Y-88852179D01*
X147612269Y-88852179D01*
X147612269Y-88840147D01*
X148538750Y-88840147D01*
X148827523Y-88840147D01*
X148827523Y-88551374D01*
X148538750Y-88551374D01*
X148538750Y-88840147D01*
X147612269Y-88840147D01*
X147612269Y-88539341D01*
X147925107Y-88539341D01*
X148213880Y-88539341D01*
X148839555Y-88539341D01*
X149140360Y-88539341D01*
X149140360Y-88840147D01*
X149441165Y-88840147D01*
X149441165Y-88539341D01*
X149754003Y-88539341D01*
X149754003Y-88840147D01*
X150042776Y-88840147D01*
X150042776Y-88238536D01*
X149441165Y-88238536D01*
X149441165Y-87937731D01*
X149128328Y-87937731D01*
X149128328Y-87636925D01*
X148839555Y-87636925D01*
X148839555Y-88539341D01*
X148213880Y-88539341D01*
X148213880Y-88238536D01*
X147925107Y-88238536D01*
X147925107Y-88539341D01*
X147612269Y-88539341D01*
X147612269Y-88238536D01*
X147311464Y-88238536D01*
X147311464Y-87925699D01*
X147624301Y-87925699D01*
X148526717Y-87925699D01*
X148526717Y-87624893D01*
X149754003Y-87624893D01*
X150054808Y-87624893D01*
X150054808Y-87925699D01*
X150656419Y-87925699D01*
X150656419Y-87636925D01*
X150343581Y-87636925D01*
X150343581Y-87336120D01*
X149754003Y-87336120D01*
X149754003Y-87624893D01*
X148526717Y-87624893D01*
X148526717Y-87324088D01*
X149140360Y-87324088D01*
X149741971Y-87324088D01*
X149741971Y-87011250D01*
X150042776Y-87011250D01*
X150042776Y-86722477D01*
X149741971Y-86722477D01*
X149741971Y-86421672D01*
X149453198Y-86421672D01*
X149453198Y-87023283D01*
X149140360Y-87023283D01*
X149140360Y-87324088D01*
X148526717Y-87324088D01*
X148526717Y-87023283D01*
X147624301Y-87023283D01*
X147624301Y-87925699D01*
X147311464Y-87925699D01*
X147311464Y-87636925D01*
X147010659Y-87636925D01*
X147010659Y-88238536D01*
X146084178Y-88238536D01*
X146084178Y-87624893D01*
X146697821Y-87624893D01*
X146697821Y-87336120D01*
X146397016Y-87336120D01*
X146397016Y-87324088D01*
X146709853Y-87324088D01*
X147311464Y-87324088D01*
X147311464Y-87023283D01*
X146709853Y-87023283D01*
X146709853Y-87324088D01*
X146397016Y-87324088D01*
X146397016Y-87011250D01*
X148839555Y-87011250D01*
X149128328Y-87011250D01*
X149128328Y-86722477D01*
X148839555Y-86722477D01*
X148839555Y-87011250D01*
X146397016Y-87011250D01*
X146397016Y-86722477D01*
X146084178Y-86722477D01*
X146084178Y-86710445D01*
X146709853Y-86710445D01*
X147311464Y-86710445D01*
X147311464Y-86421672D01*
X146709853Y-86421672D01*
X146709853Y-86710445D01*
X146084178Y-86710445D01*
X146084178Y-86409640D01*
X146397016Y-86409640D01*
X147323496Y-86409640D01*
X148827523Y-86409640D01*
X149140360Y-86409640D01*
X149441165Y-86409640D01*
X149441165Y-86096802D01*
X149754003Y-86096802D01*
X149754003Y-86409640D01*
X150054808Y-86409640D01*
X150054808Y-86710445D01*
X150343581Y-86710445D01*
X150343581Y-86409640D01*
X150668451Y-86409640D01*
X150668451Y-86722477D01*
X150355614Y-86722477D01*
X150355614Y-87011250D01*
X151258029Y-87011250D01*
X151258029Y-86710445D01*
X151582899Y-86710445D01*
X151871672Y-86710445D01*
X151871672Y-86409640D01*
X153700569Y-86409640D01*
X153700569Y-86108835D01*
X153399763Y-86108835D01*
X153399763Y-86409640D01*
X152172478Y-86409640D01*
X152172478Y-85808029D01*
X151883705Y-85808029D01*
X151883705Y-86108835D01*
X151582899Y-86108835D01*
X151582899Y-86710445D01*
X151258029Y-86710445D01*
X151258029Y-86421672D01*
X150957224Y-86421672D01*
X150957224Y-86096802D01*
X151570867Y-86096802D01*
X151570867Y-85795997D01*
X152485315Y-85795997D01*
X152786120Y-85795997D01*
X152786120Y-85507224D01*
X152485315Y-85507224D01*
X152485315Y-85795997D01*
X151570867Y-85795997D01*
X151570867Y-85495192D01*
X151871672Y-85495192D01*
X151871672Y-85206419D01*
X151570867Y-85206419D01*
X151570867Y-84881549D01*
X152798153Y-84881549D01*
X153086926Y-84881549D01*
X153086926Y-84592776D01*
X152798153Y-84592776D01*
X152798153Y-84881549D01*
X151570867Y-84881549D01*
X151570867Y-84592776D01*
X151270062Y-84592776D01*
X151270062Y-84893581D01*
X150969256Y-84893581D01*
X150969256Y-85194386D01*
X151270062Y-85194386D01*
X151270062Y-85808029D01*
X150957224Y-85808029D01*
X150957224Y-85507224D01*
X150668451Y-85507224D01*
X150668451Y-85808029D01*
X150355614Y-85808029D01*
X150355614Y-86108835D01*
X150042776Y-86108835D01*
X150042776Y-85808029D01*
X149140360Y-85808029D01*
X149140360Y-86409640D01*
X148827523Y-86409640D01*
X148827523Y-86108835D01*
X148526717Y-86108835D01*
X148526717Y-85795997D01*
X148839555Y-85795997D01*
X149128328Y-85795997D01*
X149128328Y-85507224D01*
X148839555Y-85507224D01*
X148839555Y-85795997D01*
X148526717Y-85795997D01*
X148526717Y-85194386D01*
X148827523Y-85194386D01*
X149140360Y-85194386D01*
X149441165Y-85194386D01*
X149754003Y-85194386D01*
X150054808Y-85194386D01*
X150054808Y-85495192D01*
X150656419Y-85495192D01*
X150656419Y-85206419D01*
X150343581Y-85206419D01*
X150343581Y-84592776D01*
X150054808Y-84592776D01*
X150054808Y-84893581D01*
X149754003Y-84893581D01*
X149754003Y-85194386D01*
X149441165Y-85194386D01*
X149441165Y-84893581D01*
X149140360Y-84893581D01*
X149140360Y-85194386D01*
X148827523Y-85194386D01*
X148827523Y-84893581D01*
X148213880Y-84893581D01*
X148213880Y-84881549D01*
X148839555Y-84881549D01*
X149128328Y-84881549D01*
X149128328Y-84291971D01*
X148839555Y-84291971D01*
X148839555Y-84881549D01*
X148213880Y-84881549D01*
X148213880Y-84592776D01*
X147323496Y-84592776D01*
X147323496Y-85194386D01*
X148225912Y-85194386D01*
X148225912Y-85507224D01*
X147925107Y-85507224D01*
X147925107Y-86108835D01*
X147323496Y-86108835D01*
X147323496Y-86409640D01*
X146397016Y-86409640D01*
X146397016Y-86096802D01*
X146998626Y-86096802D01*
X146998626Y-85795997D01*
X147612269Y-85795997D01*
X147612269Y-85507224D01*
X147311464Y-85507224D01*
X147311464Y-85206419D01*
X146709853Y-85206419D01*
X146709853Y-85507224D01*
X146084178Y-85507224D01*
X146084178Y-84881549D01*
X146397016Y-84881549D01*
X146397016Y-84580744D01*
X146709853Y-84580744D01*
X146709853Y-84881549D01*
X146998626Y-84881549D01*
X146998626Y-84580744D01*
X147311464Y-84580744D01*
X147311464Y-84291971D01*
X146998626Y-84291971D01*
X146998626Y-83979133D01*
X146697821Y-83979133D01*
X146697821Y-83967101D01*
X147323496Y-83967101D01*
X147612269Y-83967101D01*
X147612269Y-83678328D01*
X147323496Y-83678328D01*
X147323496Y-83967101D01*
X146697821Y-83967101D01*
X146697821Y-83678328D01*
X146397016Y-83678328D01*
X146397016Y-83064685D01*
X146709853Y-83064685D01*
X146709853Y-83666295D01*
X146998626Y-83666295D01*
X146998626Y-83064685D01*
X147323496Y-83064685D01*
X147323496Y-83365490D01*
X147612269Y-83365490D01*
X147612269Y-83064685D01*
X147925107Y-83064685D01*
X147925107Y-83967101D01*
X148538750Y-83967101D01*
X148538750Y-84279938D01*
X148827523Y-84279938D01*
X148827523Y-83678328D01*
X148213880Y-83678328D01*
X148213880Y-83365490D01*
X148839555Y-83365490D01*
X149140360Y-83365490D01*
X149140360Y-84279938D01*
X149453198Y-84279938D01*
X149453198Y-84881549D01*
X149741971Y-84881549D01*
X149741971Y-84580744D01*
X150042776Y-84580744D01*
X150042776Y-84291971D01*
X149741971Y-84291971D01*
X149741971Y-84279938D01*
X150054808Y-84279938D01*
X150343581Y-84279938D01*
X150343581Y-83979133D01*
X150054808Y-83979133D01*
X150054808Y-84279938D01*
X149741971Y-84279938D01*
X149741971Y-83979133D01*
X149441165Y-83979133D01*
X149441165Y-83666295D01*
X149754003Y-83666295D01*
X149754003Y-83967101D01*
X150042776Y-83967101D01*
X150042776Y-83377522D01*
X149441165Y-83377522D01*
X149441165Y-83076717D01*
X148839555Y-83076717D01*
X148839555Y-83365490D01*
X148213880Y-83365490D01*
X148213880Y-83064685D01*
X148526717Y-83064685D01*
X149754003Y-83064685D01*
X150042776Y-83064685D01*
X150355614Y-83064685D01*
X150656419Y-83064685D01*
X150656419Y-82763880D01*
X150355614Y-82763880D01*
X150355614Y-83064685D01*
X150042776Y-83064685D01*
X150042776Y-82763880D01*
X149754003Y-82763880D01*
X149754003Y-83064685D01*
X148526717Y-83064685D01*
X148526717Y-82751847D01*
X148839555Y-82751847D01*
X149128328Y-82751847D01*
X149453198Y-82751847D01*
X149741971Y-82751847D01*
X150054808Y-82751847D01*
X150343581Y-82751847D01*
X150668451Y-82751847D01*
X150957224Y-82751847D01*
X150957224Y-82463074D01*
X150668451Y-82463074D01*
X150668451Y-82751847D01*
X150343581Y-82751847D01*
X150343581Y-82463074D01*
X150054808Y-82463074D01*
X150054808Y-82751847D01*
X149741971Y-82751847D01*
X149741971Y-82463074D01*
X149453198Y-82463074D01*
X149453198Y-82751847D01*
X149128328Y-82751847D01*
X149128328Y-82463074D01*
X148839555Y-82463074D01*
X148839555Y-82751847D01*
X148526717Y-82751847D01*
X148526717Y-82451042D01*
X148827523Y-82451042D01*
X148827523Y-82162269D01*
X148526717Y-82162269D01*
X148526717Y-81536594D01*
X148827523Y-81536594D01*
X148827523Y-80947016D01*
X148526717Y-80947016D01*
X148526717Y-80622146D01*
X148839555Y-80622146D01*
X148839555Y-80934983D01*
X149140360Y-80934983D01*
X149140360Y-81235789D01*
X149441165Y-81235789D01*
X149441165Y-80934983D01*
X149741971Y-80934983D01*
X149741971Y-80622146D01*
X150355614Y-80622146D01*
X150355614Y-80947016D01*
X149754003Y-80947016D01*
X149754003Y-81235789D01*
X150054808Y-81235789D01*
X150054808Y-81548626D01*
X149754003Y-81548626D01*
X149754003Y-81849431D01*
X149128328Y-81849431D01*
X149128328Y-81548626D01*
X148839555Y-81548626D01*
X148839555Y-82150237D01*
X149140360Y-82150237D01*
X149140360Y-82451042D01*
X149441165Y-82451042D01*
X149441165Y-82150237D01*
X149754003Y-82150237D01*
X149754003Y-82451042D01*
X150042776Y-82451042D01*
X150042776Y-81837399D01*
X151258029Y-81837399D01*
X151582899Y-81837399D01*
X151871672Y-81837399D01*
X151871672Y-81548626D01*
X151582899Y-81548626D01*
X151582899Y-81837399D01*
X151258029Y-81837399D01*
X151258029Y-81247821D01*
X150957224Y-81247821D01*
X150957224Y-80934983D01*
X151582899Y-80934983D01*
X151582899Y-81235789D01*
X151871672Y-81235789D01*
X151871672Y-80622146D01*
X152184510Y-80622146D01*
X152184510Y-80934983D01*
X152485315Y-80934983D01*
X152485315Y-81247821D01*
X152184510Y-81247821D01*
X152184510Y-81536594D01*
X152485315Y-81536594D01*
X152485315Y-81849431D01*
X151883705Y-81849431D01*
X151883705Y-82763880D01*
X151570867Y-82763880D01*
X151570867Y-81849431D01*
X151270062Y-81849431D01*
X151270062Y-82162269D01*
X150969256Y-82162269D01*
X150969256Y-82451042D01*
X151270062Y-82451042D01*
X151270062Y-83377522D01*
X150957224Y-83377522D01*
G37*
G36*
X147010659Y-88840147D02*
G01*
X147323496Y-88840147D01*
X147323496Y-89140952D01*
X147624301Y-89140952D01*
X147624301Y-89465822D01*
X146697821Y-89465822D01*
X146697821Y-88852179D01*
X146409048Y-88852179D01*
X146409048Y-89152984D01*
X146084178Y-89152984D01*
X146084178Y-88840147D01*
X146397016Y-88840147D01*
X146397016Y-88539341D01*
X147010659Y-88539341D01*
X147010659Y-88840147D01*
G37*
G36*
X152786120Y-89453790D02*
G01*
X152786120Y-89152984D01*
X153086746Y-89152984D01*
X154615196Y-89152984D01*
X154612098Y-88391947D01*
X154609001Y-87630909D01*
X153092942Y-87630909D01*
X153089844Y-88391947D01*
X153086746Y-89152984D01*
X152786120Y-89152984D01*
X152786120Y-87324088D01*
X154915822Y-87324088D01*
X154915822Y-89453790D01*
X152786120Y-89453790D01*
G37*
G36*
X154927854Y-84893581D02*
G01*
X154602984Y-84893581D01*
X154602984Y-84580744D01*
X154927854Y-84580744D01*
X154927854Y-84893581D01*
G37*
G36*
X146409048Y-84291971D02*
G01*
X146084178Y-84291971D01*
X146084178Y-83967101D01*
X146409048Y-83967101D01*
X146409048Y-84291971D01*
G37*
G36*
X152786120Y-82763880D02*
G01*
X152786120Y-82451042D01*
X153086926Y-82451042D01*
X154615017Y-82451042D01*
X154615017Y-80934983D01*
X153086926Y-80934983D01*
X153086926Y-82451042D01*
X152786120Y-82451042D01*
X152786120Y-80634178D01*
X154915822Y-80634178D01*
X154915822Y-82763880D01*
X152786120Y-82763880D01*
G37*
G36*
X152485315Y-82763880D02*
G01*
X152172478Y-82763880D01*
X152172478Y-82150237D01*
X152485315Y-82150237D01*
X152485315Y-82763880D01*
G37*
G36*
X148222292Y-82576997D02*
G01*
X148221298Y-82651732D01*
X148220225Y-82707611D01*
X148219085Y-82742899D01*
X148217891Y-82755858D01*
X148207699Y-82756911D01*
X148174998Y-82758059D01*
X148121498Y-82759141D01*
X148048933Y-82760145D01*
X147959041Y-82761057D01*
X147853558Y-82761865D01*
X147734219Y-82762555D01*
X147602762Y-82763115D01*
X147460922Y-82763531D01*
X147310436Y-82763790D01*
X147153040Y-82763880D01*
X146096210Y-82763880D01*
X146096210Y-82451042D01*
X146397016Y-82451042D01*
X147913075Y-82451042D01*
X147913075Y-80934983D01*
X146397016Y-80934983D01*
X146397016Y-82451042D01*
X146096210Y-82451042D01*
X146096210Y-80634178D01*
X148225912Y-80634178D01*
X148225912Y-81691007D01*
X148225843Y-81829852D01*
X148225603Y-81981259D01*
X148225205Y-82124227D01*
X148224662Y-82257022D01*
X148223987Y-82377906D01*
X148223445Y-82451042D01*
X148223192Y-82485143D01*
X148222292Y-82576997D01*
G37*
G36*
X150668451Y-81548626D02*
G01*
X150343581Y-81548626D01*
X150343581Y-81235789D01*
X150668451Y-81235789D01*
X150668451Y-81548626D01*
G37*
G36*
X148225912Y-87636925D02*
G01*
X147913075Y-87636925D01*
X147913075Y-87324088D01*
X148225912Y-87324088D01*
X148225912Y-87636925D01*
G37*
G36*
X154314211Y-88386933D02*
G01*
X154314210Y-88395830D01*
X154313967Y-88496976D01*
X154313345Y-88590255D01*
X154312390Y-88672966D01*
X154311149Y-88742412D01*
X154309671Y-88795892D01*
X154308002Y-88830707D01*
X154306190Y-88844157D01*
X154305944Y-88844316D01*
X154290567Y-88846118D01*
X154254056Y-88847773D01*
X154199110Y-88849233D01*
X154128429Y-88850451D01*
X154044711Y-88851379D01*
X153950657Y-88851971D01*
X153848966Y-88852179D01*
X153399763Y-88852179D01*
X153399763Y-87937731D01*
X154314211Y-87937731D01*
X154314211Y-88386933D01*
G37*
G36*
X154308195Y-81241805D02*
G01*
X154314501Y-82150237D01*
X153399763Y-82150237D01*
X153399763Y-81235499D01*
X154308195Y-81241805D01*
G37*
G36*
X147612269Y-82150237D02*
G01*
X146697532Y-82150237D01*
X146700684Y-81696021D01*
X146703837Y-81241805D01*
X147612269Y-81235499D01*
X147612269Y-82150237D01*
G37*
%TD*%
M02*
