%TF.GenerationSoftware,KiCad,Pcbnew,(6.0.1-0)*%
%TF.CreationDate,2023-04-29T18:30:50+02:00*%
%TF.ProjectId,archimedes,61726368-696d-4656-9465-732e6b696361,rev?*%
%TF.SameCoordinates,Original*%
%TF.FileFunction,Copper,L2,Bot*%
%TF.FilePolarity,Positive*%
%FSLAX46Y46*%
G04 Gerber Fmt 4.6, Leading zero omitted, Abs format (unit mm)*
G04 Created by KiCad (PCBNEW (6.0.1-0)) date 2023-04-29 18:30:50*
%MOMM*%
%LPD*%
G01*
G04 APERTURE LIST*
%TA.AperFunction,ComponentPad*%
%ADD10O,1.700000X1.700000*%
%TD*%
%TA.AperFunction,ComponentPad*%
%ADD11C,1.700000*%
%TD*%
%TA.AperFunction,ComponentPad*%
%ADD12O,1.000000X2.100000*%
%TD*%
%TA.AperFunction,ComponentPad*%
%ADD13O,1.000000X1.600000*%
%TD*%
%TA.AperFunction,ViaPad*%
%ADD14C,0.600000*%
%TD*%
%TA.AperFunction,Conductor*%
%ADD15C,0.500000*%
%TD*%
%TA.AperFunction,Conductor*%
%ADD16C,0.300000*%
%TD*%
%TA.AperFunction,Conductor*%
%ADD17C,0.200000*%
%TD*%
G04 APERTURE END LIST*
D10*
%TO.P,J4,1,Pin_1*%
%TO.N,+3V3*%
X146690000Y-114345000D03*
%TO.P,J4,2,Pin_2*%
%TO.N,/MCU and Flash/SWDIO*%
X149230000Y-114345000D03*
%TO.P,J4,3,Pin_3*%
%TO.N,/MCU and Flash/SWCLK*%
X151770000Y-114345000D03*
D11*
%TO.P,J4,4,Pin_4*%
%TO.N,GND*%
X154310000Y-114345000D03*
%TD*%
D12*
%TO.P,J1,S1,SHIELD*%
%TO.N,GND*%
X154820000Y-76130000D03*
X146180000Y-76130000D03*
D13*
X146180000Y-71950000D03*
X154820000Y-71950000D03*
%TD*%
D11*
%TO.P,J3,1,Pin_1*%
%TO.N,VBUS*%
X159390000Y-71400000D03*
D10*
%TO.P,J3,2,Pin_2*%
%TO.N,GND*%
X159390000Y-73940000D03*
%TO.P,J3,3,Pin_3*%
%TO.N,+5V*%
X159390000Y-76480000D03*
%TO.P,J3,4,Pin_4*%
%TO.N,/MCU and Flash/ADC3*%
X159390000Y-79020000D03*
%TO.P,J3,5,Pin_5*%
%TO.N,/MCU and Flash/ADC2*%
X159390000Y-81560000D03*
%TO.P,J3,6,Pin_6*%
%TO.N,/MCU and Flash/ADC1*%
X159390000Y-84100000D03*
%TO.P,J3,7,Pin_7*%
%TO.N,/MCU and Flash/ADC0*%
X159390000Y-86640000D03*
%TO.P,J3,8,Pin_8*%
%TO.N,+3V3*%
X159390000Y-89180000D03*
%TO.P,J3,9,Pin_9*%
%TO.N,GND*%
X159390000Y-91720000D03*
%TO.P,J3,10,Pin_10*%
%TO.N,/MCU and Flash/GPIO25*%
X159390000Y-94260000D03*
%TO.P,J3,11,Pin_11*%
%TO.N,/MCU and Flash/GPIO24*%
X159390000Y-96800000D03*
%TO.P,J3,12,Pin_12*%
%TO.N,/MCU and Flash/~{RUN}*%
X159390000Y-99340000D03*
%TO.P,J3,13,Pin_13*%
%TO.N,/MCU and Flash/GPIO23*%
X159390000Y-101880000D03*
%TO.P,J3,14,Pin_14*%
%TO.N,/MCU and Flash/GPIO22*%
X159390000Y-104420000D03*
%TO.P,J3,15,Pin_15*%
%TO.N,/MCU and Flash/GPIO21*%
X159390000Y-106960000D03*
%TO.P,J3,16,Pin_16*%
%TO.N,/MCU and Flash/GPIO20*%
X159390000Y-109500000D03*
%TO.P,J3,17,Pin_17*%
%TO.N,/MCU and Flash/GPIO19*%
X159390000Y-112040000D03*
%TO.P,J3,18,Pin_18*%
%TO.N,/MCU and Flash/GPIO18*%
X159390000Y-114580000D03*
%TO.P,J3,19,Pin_19*%
%TO.N,/MCU and Flash/GPIO17*%
X159390000Y-117120000D03*
%TO.P,J3,20,Pin_20*%
%TO.N,/MCU and Flash/GPIO16*%
X159390000Y-119660000D03*
%TD*%
D11*
%TO.P,J2,1,Pin_1*%
%TO.N,GND*%
X141610000Y-71400000D03*
D10*
%TO.P,J2,2,Pin_2*%
%TO.N,+3V3*%
X141610000Y-73940000D03*
%TO.P,J2,3,Pin_3*%
%TO.N,/MCU and Flash/GPIO0*%
X141610000Y-76480000D03*
%TO.P,J2,4,Pin_4*%
%TO.N,/MCU and Flash/GPIO1*%
X141610000Y-79020000D03*
%TO.P,J2,5,Pin_5*%
%TO.N,/MCU and Flash/GPIO2*%
X141610000Y-81560000D03*
%TO.P,J2,6,Pin_6*%
%TO.N,/MCU and Flash/GPIO3*%
X141610000Y-84100000D03*
%TO.P,J2,7,Pin_7*%
%TO.N,/MCU and Flash/GPIO4*%
X141610000Y-86640000D03*
%TO.P,J2,8,Pin_8*%
%TO.N,/MCU and Flash/GPIO5*%
X141610000Y-89180000D03*
%TO.P,J2,9,Pin_9*%
%TO.N,/MCU and Flash/GPIO6*%
X141610000Y-91720000D03*
%TO.P,J2,10,Pin_10*%
%TO.N,/MCU and Flash/GPIO7*%
X141610000Y-94260000D03*
%TO.P,J2,11,Pin_11*%
%TO.N,GND*%
X141610000Y-96800000D03*
%TO.P,J2,12,Pin_12*%
%TO.N,+3V3*%
X141610000Y-99340000D03*
%TO.P,J2,13,Pin_13*%
%TO.N,/MCU and Flash/GPIO8*%
X141610000Y-101880000D03*
%TO.P,J2,14,Pin_14*%
%TO.N,/MCU and Flash/GPIO9*%
X141610000Y-104420000D03*
%TO.P,J2,15,Pin_15*%
%TO.N,/MCU and Flash/GPIO10*%
X141610000Y-106960000D03*
%TO.P,J2,16,Pin_16*%
%TO.N,/MCU and Flash/GPIO11*%
X141610000Y-109500000D03*
%TO.P,J2,17,Pin_17*%
%TO.N,/MCU and Flash/GPIO12*%
X141610000Y-112040000D03*
%TO.P,J2,18,Pin_18*%
%TO.N,/MCU and Flash/GPIO13*%
X141610000Y-114580000D03*
%TO.P,J2,19,Pin_19*%
%TO.N,/MCU and Flash/GPIO14*%
X141610000Y-117120000D03*
%TO.P,J2,20,Pin_20*%
%TO.N,/MCU and Flash/GPIO15*%
X141610000Y-119660000D03*
%TD*%
D14*
%TO.N,GND*%
X147400000Y-105500000D03*
X148100000Y-100800000D03*
X152700000Y-85800000D03*
X148000000Y-88350000D03*
X151700000Y-97100000D03*
X149410000Y-75750000D03*
X145800000Y-81250000D03*
X148750000Y-85700000D03*
X150450000Y-91600000D03*
X145750000Y-77950000D03*
X151700000Y-107500000D03*
X155590000Y-104080000D03*
X151746532Y-95794279D03*
X155750000Y-108200000D03*
X153700000Y-91750000D03*
X147850000Y-92350000D03*
X153705189Y-101887355D03*
X154300000Y-104100000D03*
X149850000Y-91150000D03*
X153400000Y-110350000D03*
X146600000Y-77950000D03*
X155300000Y-111200000D03*
X151450000Y-79600000D03*
X155925000Y-88350000D03*
X144400000Y-100450000D03*
X151400000Y-83950000D03*
X145700000Y-109500000D03*
X146026114Y-94138942D03*
X153100000Y-88800000D03*
X149800000Y-105500000D03*
X151700000Y-105500000D03*
X151317333Y-104786074D03*
X147700000Y-109500000D03*
X147208540Y-101700000D03*
X142650000Y-98150000D03*
X145700000Y-105500000D03*
X149700000Y-109500000D03*
X155950000Y-93950000D03*
X155950000Y-92850000D03*
X149300000Y-99500000D03*
X154400000Y-77950000D03*
X153000000Y-98310000D03*
X151700000Y-99500000D03*
X156650000Y-97750000D03*
X149300000Y-97100000D03*
X151400000Y-87050000D03*
X157930000Y-99240000D03*
X151700000Y-109500000D03*
X148700000Y-81400000D03*
X148800000Y-78800000D03*
X153650000Y-85800000D03*
X153050000Y-79900000D03*
X153000000Y-96300000D03*
X155750000Y-105900000D03*
X150250000Y-89750000D03*
X152800000Y-91750000D03*
X155600000Y-85650000D03*
X145700000Y-107500000D03*
X152930000Y-100360000D03*
X156130000Y-100660000D03*
X149180000Y-103760000D03*
X154150000Y-106000000D03*
X155250000Y-77950000D03*
X151950000Y-75760000D03*
X146750000Y-104325000D03*
X145800000Y-83550000D03*
X150500000Y-98300000D03*
%TO.N,+3V3*%
X155200000Y-87850000D03*
X154450000Y-87850000D03*
X154300000Y-93400000D03*
X154300000Y-95100000D03*
X147998124Y-99017788D03*
X146450000Y-89330000D03*
X147997548Y-95974996D03*
X153450000Y-94050000D03*
X153102852Y-99289626D03*
X154300000Y-94250000D03*
X150496044Y-100813626D03*
X150920000Y-95800980D03*
%TO.N,/MCU and Flash/GPIO7*%
X143476071Y-98153929D03*
%TO.N,/MCU and Flash/SWDIO*%
X151720000Y-100810000D03*
%TO.N,/MCU and Flash/GPIO25*%
X155612500Y-90000000D03*
%TO.N,/MCU and Flash/GPIO8*%
X147987344Y-99817218D03*
%TO.N,/MCU and Flash/~{RUN}*%
X153450000Y-103550000D03*
%TD*%
D15*
%TO.N,+3V3*%
X149177452Y-98152452D02*
X147997548Y-98152452D01*
D16*
X154380020Y-95180020D02*
X154300000Y-95100000D01*
D15*
X146450000Y-89100000D02*
X147000000Y-89650000D01*
X151584079Y-95000000D02*
X153550000Y-95000000D01*
X150920000Y-95664079D02*
X151584079Y-95000000D01*
X150745984Y-95974996D02*
X150920000Y-95800980D01*
X154820000Y-89180000D02*
X154600000Y-89400000D01*
X150500000Y-100809670D02*
X150500000Y-99475000D01*
X154820000Y-89180000D02*
X154820000Y-89170000D01*
X153550000Y-95000000D02*
X154300000Y-94250000D01*
X146645000Y-114345000D02*
X144875000Y-112575000D01*
X154110374Y-99289626D02*
X154600000Y-98800000D01*
X154600000Y-88000000D02*
X154450000Y-87850000D01*
X155175000Y-87850000D02*
X154425000Y-87850000D01*
X153102852Y-99289626D02*
X154110374Y-99289626D01*
X154300000Y-93400000D02*
X154600000Y-93100000D01*
X149136374Y-100813626D02*
X150496044Y-100813626D01*
X154600000Y-93100000D02*
X154600000Y-89400000D01*
X147997548Y-95974996D02*
X147997548Y-98152452D01*
X144875000Y-112575000D02*
X144875000Y-105075000D01*
X146690000Y-114345000D02*
X146645000Y-114345000D01*
X144025000Y-74800000D02*
X143165000Y-73940000D01*
X154600000Y-98800000D02*
X154600000Y-95050000D01*
X155100000Y-87850000D02*
X154600000Y-88350000D01*
X147997548Y-98152452D02*
X147997548Y-99017212D01*
X146450000Y-89100000D02*
X144025000Y-86675000D01*
X154600000Y-89400000D02*
X154600000Y-88950000D01*
X147997548Y-99017212D02*
X147998124Y-99017788D01*
X144025000Y-86675000D02*
X144025000Y-74800000D01*
X147997548Y-95974996D02*
X150745984Y-95974996D01*
X150496044Y-100813626D02*
X150500000Y-100809670D01*
X154350000Y-95050000D02*
X154300000Y-95100000D01*
X147000000Y-94977448D02*
X147997548Y-95974996D01*
X144875000Y-105075000D02*
X149136374Y-100813626D01*
X154600000Y-95050000D02*
X154350000Y-95050000D01*
X159390000Y-89180000D02*
X154820000Y-89180000D01*
X154600000Y-88950000D02*
X154600000Y-88350000D01*
X154600000Y-88350000D02*
X154600000Y-88000000D01*
X154820000Y-89170000D02*
X154600000Y-88950000D01*
X155200000Y-87850000D02*
X155100000Y-87850000D01*
D16*
X150920000Y-95800980D02*
X150920000Y-95702263D01*
D15*
X150500000Y-99475000D02*
X149177452Y-98152452D01*
X143165000Y-73940000D02*
X141610000Y-73940000D01*
X147000000Y-89650000D02*
X147000000Y-94977448D01*
X150920000Y-95800980D02*
X150920000Y-95664079D01*
D17*
%TO.N,/MCU and Flash/GPIO7*%
X141610000Y-94260000D02*
X143476071Y-96126071D01*
X143476071Y-96126071D02*
X143476071Y-98153929D01*
%TO.N,/MCU and Flash/SWDIO*%
X152875000Y-109425000D02*
X149220000Y-113080000D01*
X149220000Y-113080000D02*
X149220000Y-114625000D01*
X152875000Y-101965000D02*
X152875000Y-109425000D01*
X151720000Y-100810000D02*
X152875000Y-101965000D01*
%TO.N,/MCU and Flash/GPIO25*%
X157650000Y-92037500D02*
X157650000Y-93900000D01*
X155612500Y-90000000D02*
X157650000Y-92037500D01*
X158010000Y-94260000D02*
X159390000Y-94260000D01*
X157650000Y-93900000D02*
X158010000Y-94260000D01*
%TO.N,/MCU and Flash/GPIO8*%
X141610000Y-101880000D02*
X145924562Y-101880000D01*
X145924562Y-101880000D02*
X147987344Y-99817218D01*
%TO.N,/MCU and Flash/~{RUN}*%
X153450000Y-103550000D02*
X155180000Y-103550000D01*
X157730000Y-101000000D02*
X159390000Y-99340000D01*
X155180000Y-103550000D02*
X157730000Y-101000000D01*
%TD*%
%TA.AperFunction,Conductor*%
%TO.N,GND*%
G36*
X140991777Y-70268907D02*
G01*
X141027741Y-70318407D01*
X141027741Y-70379593D01*
X140991777Y-70429093D01*
X140984204Y-70434081D01*
X140935057Y-70463320D01*
X140927733Y-70468641D01*
X140919831Y-70475572D01*
X140913012Y-70487034D01*
X140913335Y-70490551D01*
X140914706Y-70492574D01*
X141598914Y-71176782D01*
X141610797Y-71182836D01*
X141615828Y-71182040D01*
X142302539Y-70495329D01*
X142308593Y-70483446D01*
X142308147Y-70480625D01*
X142232232Y-70432727D01*
X142193108Y-70385685D01*
X142189106Y-70324631D01*
X142221755Y-70272885D01*
X142278585Y-70250212D01*
X142285060Y-70250000D01*
X158919144Y-70250000D01*
X158977335Y-70268907D01*
X159013299Y-70318407D01*
X159013299Y-70379593D01*
X158977335Y-70429093D01*
X158965011Y-70436734D01*
X158816291Y-70514483D01*
X158816285Y-70514487D01*
X158812002Y-70516726D01*
X158808231Y-70519758D01*
X158655220Y-70642781D01*
X158655217Y-70642783D01*
X158651447Y-70645815D01*
X158648333Y-70649526D01*
X158648332Y-70649527D01*
X158596919Y-70710799D01*
X158519024Y-70803630D01*
X158516689Y-70807878D01*
X158516688Y-70807879D01*
X158509955Y-70820126D01*
X158419776Y-70984162D01*
X158418313Y-70988775D01*
X158418311Y-70988779D01*
X158406342Y-71026512D01*
X158357484Y-71180532D01*
X158356944Y-71185344D01*
X158356944Y-71185345D01*
X158344394Y-71297237D01*
X158334520Y-71385262D01*
X158351759Y-71590553D01*
X158353092Y-71595201D01*
X158353092Y-71595202D01*
X158361126Y-71623218D01*
X158408544Y-71788586D01*
X158502712Y-71971818D01*
X158630677Y-72133270D01*
X158634357Y-72136402D01*
X158634359Y-72136404D01*
X158747017Y-72232283D01*
X158787564Y-72266791D01*
X158791787Y-72269151D01*
X158791791Y-72269154D01*
X158873695Y-72314928D01*
X158967398Y-72367297D01*
X158971996Y-72368791D01*
X159158724Y-72429463D01*
X159158726Y-72429464D01*
X159163329Y-72430959D01*
X159367894Y-72455351D01*
X159372716Y-72454980D01*
X159372719Y-72454980D01*
X159440541Y-72449761D01*
X159573300Y-72439546D01*
X159771725Y-72384145D01*
X159776038Y-72381966D01*
X159776044Y-72381964D01*
X159951289Y-72293441D01*
X159951291Y-72293440D01*
X159955610Y-72291258D01*
X159990943Y-72263653D01*
X160114135Y-72167406D01*
X160114139Y-72167402D01*
X160117951Y-72164424D01*
X160252564Y-72008472D01*
X160271231Y-71975613D01*
X160351934Y-71833550D01*
X160351935Y-71833547D01*
X160354323Y-71829344D01*
X160364085Y-71800000D01*
X160417824Y-71638454D01*
X160417824Y-71638452D01*
X160419351Y-71633863D01*
X160445171Y-71429474D01*
X160445583Y-71400000D01*
X160436501Y-71307371D01*
X160425952Y-71199780D01*
X160425951Y-71199776D01*
X160425480Y-71194970D01*
X160422520Y-71185164D01*
X160367333Y-71002380D01*
X160365935Y-70997749D01*
X160269218Y-70815849D01*
X160139011Y-70656200D01*
X159980275Y-70524882D01*
X159816048Y-70436085D01*
X159773854Y-70391777D01*
X159765761Y-70331129D01*
X159794863Y-70277307D01*
X159850042Y-70250870D01*
X159863135Y-70250000D01*
X160651000Y-70250000D01*
X160709191Y-70268907D01*
X160745155Y-70318407D01*
X160750000Y-70349000D01*
X160750000Y-120651000D01*
X160731093Y-120709191D01*
X160681593Y-120745155D01*
X160651000Y-120750000D01*
X159977726Y-120750000D01*
X159919535Y-120731093D01*
X159883571Y-120681593D01*
X159883571Y-120620407D01*
X159919535Y-120570907D01*
X159933090Y-120562634D01*
X159951285Y-120553443D01*
X159951287Y-120553442D01*
X159955610Y-120551258D01*
X159990943Y-120523653D01*
X160114135Y-120427406D01*
X160114139Y-120427402D01*
X160117951Y-120424424D01*
X160252564Y-120268472D01*
X160271231Y-120235613D01*
X160351934Y-120093550D01*
X160351935Y-120093547D01*
X160354323Y-120089344D01*
X160367882Y-120048586D01*
X160417824Y-119898454D01*
X160417824Y-119898452D01*
X160419351Y-119893863D01*
X160445171Y-119689474D01*
X160445583Y-119660000D01*
X160425480Y-119454970D01*
X160365935Y-119257749D01*
X160269218Y-119075849D01*
X160139011Y-118916200D01*
X159980275Y-118784882D01*
X159799055Y-118686897D01*
X159735855Y-118667333D01*
X159606875Y-118627407D01*
X159606871Y-118627406D01*
X159602254Y-118625977D01*
X159597446Y-118625472D01*
X159597443Y-118625471D01*
X159402185Y-118604949D01*
X159402183Y-118604949D01*
X159397369Y-118604443D01*
X159337354Y-118609905D01*
X159197022Y-118622675D01*
X159197017Y-118622676D01*
X159192203Y-118623114D01*
X158994572Y-118681280D01*
X158990288Y-118683519D01*
X158990287Y-118683520D01*
X158979428Y-118689197D01*
X158812002Y-118776726D01*
X158808231Y-118779758D01*
X158655220Y-118902781D01*
X158655217Y-118902783D01*
X158651447Y-118905815D01*
X158648333Y-118909526D01*
X158648332Y-118909527D01*
X158639585Y-118919952D01*
X158519024Y-119063630D01*
X158516689Y-119067878D01*
X158516688Y-119067879D01*
X158509955Y-119080126D01*
X158419776Y-119244162D01*
X158357484Y-119440532D01*
X158356944Y-119445344D01*
X158356944Y-119445345D01*
X158355865Y-119454970D01*
X158334520Y-119645262D01*
X158351759Y-119850553D01*
X158408544Y-120048586D01*
X158502712Y-120231818D01*
X158630677Y-120393270D01*
X158634357Y-120396402D01*
X158634359Y-120396404D01*
X158747017Y-120492283D01*
X158787564Y-120526791D01*
X158791787Y-120529151D01*
X158791791Y-120529154D01*
X158855181Y-120564581D01*
X158896753Y-120609474D01*
X158903998Y-120670229D01*
X158874148Y-120723639D01*
X158818605Y-120749304D01*
X158806883Y-120750000D01*
X142197726Y-120750000D01*
X142139535Y-120731093D01*
X142103571Y-120681593D01*
X142103571Y-120620407D01*
X142139535Y-120570907D01*
X142153090Y-120562634D01*
X142171285Y-120553443D01*
X142171287Y-120553442D01*
X142175610Y-120551258D01*
X142210943Y-120523653D01*
X142334135Y-120427406D01*
X142334139Y-120427402D01*
X142337951Y-120424424D01*
X142472564Y-120268472D01*
X142491231Y-120235613D01*
X142571934Y-120093550D01*
X142571935Y-120093547D01*
X142574323Y-120089344D01*
X142587882Y-120048586D01*
X142637824Y-119898454D01*
X142637824Y-119898452D01*
X142639351Y-119893863D01*
X142665171Y-119689474D01*
X142665583Y-119660000D01*
X142645480Y-119454970D01*
X142585935Y-119257749D01*
X142489218Y-119075849D01*
X142359011Y-118916200D01*
X142200275Y-118784882D01*
X142019055Y-118686897D01*
X141955855Y-118667333D01*
X141826875Y-118627407D01*
X141826871Y-118627406D01*
X141822254Y-118625977D01*
X141817446Y-118625472D01*
X141817443Y-118625471D01*
X141622185Y-118604949D01*
X141622183Y-118604949D01*
X141617369Y-118604443D01*
X141557354Y-118609905D01*
X141417022Y-118622675D01*
X141417017Y-118622676D01*
X141412203Y-118623114D01*
X141214572Y-118681280D01*
X141210288Y-118683519D01*
X141210287Y-118683520D01*
X141199428Y-118689197D01*
X141032002Y-118776726D01*
X141028231Y-118779758D01*
X140875220Y-118902781D01*
X140875217Y-118902783D01*
X140871447Y-118905815D01*
X140868333Y-118909526D01*
X140868332Y-118909527D01*
X140859585Y-118919952D01*
X140739024Y-119063630D01*
X140736689Y-119067878D01*
X140736688Y-119067879D01*
X140729955Y-119080126D01*
X140639776Y-119244162D01*
X140577484Y-119440532D01*
X140576944Y-119445344D01*
X140576944Y-119445345D01*
X140575865Y-119454970D01*
X140554520Y-119645262D01*
X140571759Y-119850553D01*
X140628544Y-120048586D01*
X140722712Y-120231818D01*
X140850677Y-120393270D01*
X140854357Y-120396402D01*
X140854359Y-120396404D01*
X140967017Y-120492283D01*
X141007564Y-120526791D01*
X141011787Y-120529151D01*
X141011791Y-120529154D01*
X141075181Y-120564581D01*
X141116753Y-120609474D01*
X141123998Y-120670229D01*
X141094148Y-120723639D01*
X141038605Y-120749304D01*
X141026883Y-120750000D01*
X140349000Y-120750000D01*
X140290809Y-120731093D01*
X140254845Y-120681593D01*
X140250000Y-120651000D01*
X140250000Y-117105262D01*
X140554520Y-117105262D01*
X140571759Y-117310553D01*
X140628544Y-117508586D01*
X140722712Y-117691818D01*
X140850677Y-117853270D01*
X140854357Y-117856402D01*
X140854359Y-117856404D01*
X140967017Y-117952283D01*
X141007564Y-117986791D01*
X141011787Y-117989151D01*
X141011791Y-117989154D01*
X141051342Y-118011258D01*
X141187398Y-118087297D01*
X141191996Y-118088791D01*
X141378724Y-118149463D01*
X141378726Y-118149464D01*
X141383329Y-118150959D01*
X141587894Y-118175351D01*
X141592716Y-118174980D01*
X141592719Y-118174980D01*
X141660541Y-118169761D01*
X141793300Y-118159546D01*
X141991725Y-118104145D01*
X141996038Y-118101966D01*
X141996044Y-118101964D01*
X142171289Y-118013441D01*
X142171291Y-118013440D01*
X142175610Y-118011258D01*
X142210943Y-117983653D01*
X142334135Y-117887406D01*
X142334139Y-117887402D01*
X142337951Y-117884424D01*
X142472564Y-117728472D01*
X142491231Y-117695613D01*
X142571934Y-117553550D01*
X142571935Y-117553547D01*
X142574323Y-117549344D01*
X142587882Y-117508586D01*
X142637824Y-117358454D01*
X142637824Y-117358452D01*
X142639351Y-117353863D01*
X142665171Y-117149474D01*
X142665583Y-117120000D01*
X142664138Y-117105262D01*
X158334520Y-117105262D01*
X158351759Y-117310553D01*
X158408544Y-117508586D01*
X158502712Y-117691818D01*
X158630677Y-117853270D01*
X158634357Y-117856402D01*
X158634359Y-117856404D01*
X158747017Y-117952283D01*
X158787564Y-117986791D01*
X158791787Y-117989151D01*
X158791791Y-117989154D01*
X158831342Y-118011258D01*
X158967398Y-118087297D01*
X158971996Y-118088791D01*
X159158724Y-118149463D01*
X159158726Y-118149464D01*
X159163329Y-118150959D01*
X159367894Y-118175351D01*
X159372716Y-118174980D01*
X159372719Y-118174980D01*
X159440541Y-118169761D01*
X159573300Y-118159546D01*
X159771725Y-118104145D01*
X159776038Y-118101966D01*
X159776044Y-118101964D01*
X159951289Y-118013441D01*
X159951291Y-118013440D01*
X159955610Y-118011258D01*
X159990943Y-117983653D01*
X160114135Y-117887406D01*
X160114139Y-117887402D01*
X160117951Y-117884424D01*
X160252564Y-117728472D01*
X160271231Y-117695613D01*
X160351934Y-117553550D01*
X160351935Y-117553547D01*
X160354323Y-117549344D01*
X160367882Y-117508586D01*
X160417824Y-117358454D01*
X160417824Y-117358452D01*
X160419351Y-117353863D01*
X160445171Y-117149474D01*
X160445583Y-117120000D01*
X160425480Y-116914970D01*
X160365935Y-116717749D01*
X160269218Y-116535849D01*
X160139011Y-116376200D01*
X159980275Y-116244882D01*
X159799055Y-116146897D01*
X159735855Y-116127333D01*
X159606875Y-116087407D01*
X159606871Y-116087406D01*
X159602254Y-116085977D01*
X159597446Y-116085472D01*
X159597443Y-116085471D01*
X159402185Y-116064949D01*
X159402183Y-116064949D01*
X159397369Y-116064443D01*
X159337354Y-116069905D01*
X159197022Y-116082675D01*
X159197017Y-116082676D01*
X159192203Y-116083114D01*
X158994572Y-116141280D01*
X158990288Y-116143519D01*
X158990287Y-116143520D01*
X158979428Y-116149197D01*
X158812002Y-116236726D01*
X158808231Y-116239758D01*
X158655220Y-116362781D01*
X158655217Y-116362783D01*
X158651447Y-116365815D01*
X158648333Y-116369526D01*
X158648332Y-116369527D01*
X158639585Y-116379952D01*
X158519024Y-116523630D01*
X158516689Y-116527878D01*
X158516688Y-116527879D01*
X158509955Y-116540126D01*
X158419776Y-116704162D01*
X158357484Y-116900532D01*
X158356944Y-116905344D01*
X158356944Y-116905345D01*
X158355865Y-116914970D01*
X158334520Y-117105262D01*
X142664138Y-117105262D01*
X142645480Y-116914970D01*
X142585935Y-116717749D01*
X142489218Y-116535849D01*
X142359011Y-116376200D01*
X142200275Y-116244882D01*
X142019055Y-116146897D01*
X141955855Y-116127333D01*
X141826875Y-116087407D01*
X141826871Y-116087406D01*
X141822254Y-116085977D01*
X141817446Y-116085472D01*
X141817443Y-116085471D01*
X141622185Y-116064949D01*
X141622183Y-116064949D01*
X141617369Y-116064443D01*
X141557354Y-116069905D01*
X141417022Y-116082675D01*
X141417017Y-116082676D01*
X141412203Y-116083114D01*
X141214572Y-116141280D01*
X141210288Y-116143519D01*
X141210287Y-116143520D01*
X141199428Y-116149197D01*
X141032002Y-116236726D01*
X141028231Y-116239758D01*
X140875220Y-116362781D01*
X140875217Y-116362783D01*
X140871447Y-116365815D01*
X140868333Y-116369526D01*
X140868332Y-116369527D01*
X140859585Y-116379952D01*
X140739024Y-116523630D01*
X140736689Y-116527878D01*
X140736688Y-116527879D01*
X140729955Y-116540126D01*
X140639776Y-116704162D01*
X140577484Y-116900532D01*
X140576944Y-116905344D01*
X140576944Y-116905345D01*
X140575865Y-116914970D01*
X140554520Y-117105262D01*
X140250000Y-117105262D01*
X140250000Y-114565262D01*
X140554520Y-114565262D01*
X140558464Y-114612228D01*
X140569017Y-114737896D01*
X140571759Y-114770553D01*
X140628544Y-114968586D01*
X140722712Y-115151818D01*
X140850677Y-115313270D01*
X140854357Y-115316402D01*
X140854359Y-115316404D01*
X140907657Y-115361764D01*
X141007564Y-115446791D01*
X141011787Y-115449151D01*
X141011791Y-115449154D01*
X141128702Y-115514493D01*
X141187398Y-115547297D01*
X141191996Y-115548791D01*
X141378724Y-115609463D01*
X141378726Y-115609464D01*
X141383329Y-115610959D01*
X141587894Y-115635351D01*
X141592716Y-115634980D01*
X141592719Y-115634980D01*
X141660541Y-115629761D01*
X141793300Y-115619546D01*
X141991725Y-115564145D01*
X141996038Y-115561966D01*
X141996044Y-115561964D01*
X142171289Y-115473441D01*
X142171291Y-115473440D01*
X142175610Y-115471258D01*
X142179427Y-115468276D01*
X142334135Y-115347406D01*
X142334139Y-115347402D01*
X142337951Y-115344424D01*
X142350017Y-115330446D01*
X142397313Y-115275651D01*
X142472564Y-115188472D01*
X142491231Y-115155613D01*
X142571934Y-115013550D01*
X142571935Y-115013547D01*
X142574323Y-115009344D01*
X142576550Y-115002652D01*
X142637824Y-114818454D01*
X142637824Y-114818452D01*
X142639351Y-114813863D01*
X142644344Y-114774344D01*
X142664823Y-114612228D01*
X142665171Y-114609474D01*
X142665583Y-114580000D01*
X142659812Y-114521144D01*
X142645952Y-114379780D01*
X142645951Y-114379776D01*
X142645480Y-114374970D01*
X142636432Y-114345000D01*
X142587333Y-114182380D01*
X142585935Y-114177749D01*
X142489218Y-113995849D01*
X142359011Y-113836200D01*
X142342790Y-113822781D01*
X142204002Y-113707965D01*
X142204000Y-113707964D01*
X142200275Y-113704882D01*
X142019055Y-113606897D01*
X141955855Y-113587333D01*
X141826875Y-113547407D01*
X141826871Y-113547406D01*
X141822254Y-113545977D01*
X141817446Y-113545472D01*
X141817443Y-113545471D01*
X141622185Y-113524949D01*
X141622183Y-113524949D01*
X141617369Y-113524443D01*
X141557354Y-113529905D01*
X141417022Y-113542675D01*
X141417017Y-113542676D01*
X141412203Y-113543114D01*
X141214572Y-113601280D01*
X141210288Y-113603519D01*
X141210287Y-113603520D01*
X141199428Y-113609197D01*
X141032002Y-113696726D01*
X141028231Y-113699758D01*
X140875220Y-113822781D01*
X140875217Y-113822783D01*
X140871447Y-113825815D01*
X140868333Y-113829526D01*
X140868332Y-113829527D01*
X140859585Y-113839952D01*
X140739024Y-113983630D01*
X140736689Y-113987878D01*
X140736688Y-113987879D01*
X140729955Y-114000126D01*
X140639776Y-114164162D01*
X140577484Y-114360532D01*
X140576944Y-114365344D01*
X140576944Y-114365345D01*
X140559469Y-114521144D01*
X140554520Y-114565262D01*
X140250000Y-114565262D01*
X140250000Y-112025262D01*
X140554520Y-112025262D01*
X140571759Y-112230553D01*
X140628544Y-112428586D01*
X140722712Y-112611818D01*
X140850677Y-112773270D01*
X140854357Y-112776402D01*
X140854359Y-112776404D01*
X140939890Y-112849196D01*
X141007564Y-112906791D01*
X141011787Y-112909151D01*
X141011791Y-112909154D01*
X141128702Y-112974493D01*
X141187398Y-113007297D01*
X141191996Y-113008791D01*
X141378724Y-113069463D01*
X141378726Y-113069464D01*
X141383329Y-113070959D01*
X141587894Y-113095351D01*
X141592716Y-113094980D01*
X141592719Y-113094980D01*
X141660541Y-113089761D01*
X141793300Y-113079546D01*
X141991725Y-113024145D01*
X141996038Y-113021966D01*
X141996044Y-113021964D01*
X142171289Y-112933441D01*
X142171291Y-112933440D01*
X142175610Y-112931258D01*
X142210943Y-112903653D01*
X142334135Y-112807406D01*
X142334139Y-112807402D01*
X142337951Y-112804424D01*
X142362167Y-112776370D01*
X142420351Y-112708962D01*
X142472564Y-112648472D01*
X142491231Y-112615613D01*
X142571934Y-112473550D01*
X142571935Y-112473547D01*
X142574323Y-112469344D01*
X142587882Y-112428586D01*
X142637824Y-112278454D01*
X142637824Y-112278452D01*
X142639351Y-112273863D01*
X142665171Y-112069474D01*
X142665583Y-112040000D01*
X142645480Y-111834970D01*
X142585935Y-111637749D01*
X142489218Y-111455849D01*
X142359011Y-111296200D01*
X142200275Y-111164882D01*
X142019055Y-111066897D01*
X141955855Y-111047333D01*
X141826875Y-111007407D01*
X141826871Y-111007406D01*
X141822254Y-111005977D01*
X141817446Y-111005472D01*
X141817443Y-111005471D01*
X141622185Y-110984949D01*
X141622183Y-110984949D01*
X141617369Y-110984443D01*
X141557354Y-110989905D01*
X141417022Y-111002675D01*
X141417017Y-111002676D01*
X141412203Y-111003114D01*
X141214572Y-111061280D01*
X141210288Y-111063519D01*
X141210287Y-111063520D01*
X141199428Y-111069197D01*
X141032002Y-111156726D01*
X141028231Y-111159758D01*
X140875220Y-111282781D01*
X140875217Y-111282783D01*
X140871447Y-111285815D01*
X140868333Y-111289526D01*
X140868332Y-111289527D01*
X140859585Y-111299952D01*
X140739024Y-111443630D01*
X140736689Y-111447878D01*
X140736688Y-111447879D01*
X140729955Y-111460126D01*
X140639776Y-111624162D01*
X140577484Y-111820532D01*
X140576944Y-111825344D01*
X140576944Y-111825345D01*
X140575865Y-111834970D01*
X140554520Y-112025262D01*
X140250000Y-112025262D01*
X140250000Y-109485262D01*
X140554520Y-109485262D01*
X140558000Y-109526699D01*
X140570069Y-109670425D01*
X140571759Y-109690553D01*
X140628544Y-109888586D01*
X140722712Y-110071818D01*
X140850677Y-110233270D01*
X140854357Y-110236402D01*
X140854359Y-110236404D01*
X140967017Y-110332283D01*
X141007564Y-110366791D01*
X141011787Y-110369151D01*
X141011791Y-110369154D01*
X141051342Y-110391258D01*
X141187398Y-110467297D01*
X141191996Y-110468791D01*
X141378724Y-110529463D01*
X141378726Y-110529464D01*
X141383329Y-110530959D01*
X141587894Y-110555351D01*
X141592716Y-110554980D01*
X141592719Y-110554980D01*
X141660541Y-110549761D01*
X141793300Y-110539546D01*
X141991725Y-110484145D01*
X141996038Y-110481966D01*
X141996044Y-110481964D01*
X142171289Y-110393441D01*
X142171291Y-110393440D01*
X142175610Y-110391258D01*
X142210943Y-110363653D01*
X142334135Y-110267406D01*
X142334139Y-110267402D01*
X142337951Y-110264424D01*
X142472564Y-110108472D01*
X142491231Y-110075613D01*
X142571934Y-109933550D01*
X142571935Y-109933547D01*
X142574323Y-109929344D01*
X142587882Y-109888586D01*
X142637824Y-109738454D01*
X142637824Y-109738452D01*
X142639351Y-109733863D01*
X142647944Y-109665846D01*
X142664823Y-109532228D01*
X142665171Y-109529474D01*
X142665263Y-109522934D01*
X142665544Y-109502776D01*
X142665583Y-109500000D01*
X142665313Y-109497244D01*
X142645952Y-109299780D01*
X142645951Y-109299776D01*
X142645480Y-109294970D01*
X142585935Y-109097749D01*
X142489218Y-108915849D01*
X142359011Y-108756200D01*
X142200275Y-108624882D01*
X142019055Y-108526897D01*
X141955855Y-108507333D01*
X141826875Y-108467407D01*
X141826871Y-108467406D01*
X141822254Y-108465977D01*
X141817446Y-108465472D01*
X141817443Y-108465471D01*
X141622185Y-108444949D01*
X141622183Y-108444949D01*
X141617369Y-108444443D01*
X141557354Y-108449905D01*
X141417022Y-108462675D01*
X141417017Y-108462676D01*
X141412203Y-108463114D01*
X141214572Y-108521280D01*
X141210288Y-108523519D01*
X141210287Y-108523520D01*
X141199428Y-108529197D01*
X141032002Y-108616726D01*
X141028231Y-108619758D01*
X140875220Y-108742781D01*
X140875217Y-108742783D01*
X140871447Y-108745815D01*
X140868333Y-108749526D01*
X140868332Y-108749527D01*
X140859585Y-108759952D01*
X140739024Y-108903630D01*
X140736689Y-108907878D01*
X140736688Y-108907879D01*
X140729955Y-108920126D01*
X140639776Y-109084162D01*
X140577484Y-109280532D01*
X140576944Y-109285344D01*
X140576944Y-109285345D01*
X140557317Y-109460330D01*
X140554520Y-109485262D01*
X140250000Y-109485262D01*
X140250000Y-106945262D01*
X140554520Y-106945262D01*
X140571759Y-107150553D01*
X140628544Y-107348586D01*
X140722712Y-107531818D01*
X140850677Y-107693270D01*
X140854357Y-107696402D01*
X140854359Y-107696404D01*
X140967017Y-107792283D01*
X141007564Y-107826791D01*
X141011787Y-107829151D01*
X141011791Y-107829154D01*
X141051342Y-107851258D01*
X141187398Y-107927297D01*
X141191996Y-107928791D01*
X141378724Y-107989463D01*
X141378726Y-107989464D01*
X141383329Y-107990959D01*
X141587894Y-108015351D01*
X141592716Y-108014980D01*
X141592719Y-108014980D01*
X141660541Y-108009761D01*
X141793300Y-107999546D01*
X141991725Y-107944145D01*
X141996038Y-107941966D01*
X141996044Y-107941964D01*
X142171289Y-107853441D01*
X142171291Y-107853440D01*
X142175610Y-107851258D01*
X142210943Y-107823653D01*
X142334135Y-107727406D01*
X142334139Y-107727402D01*
X142337951Y-107724424D01*
X142472564Y-107568472D01*
X142491231Y-107535613D01*
X142571934Y-107393550D01*
X142571935Y-107393547D01*
X142574323Y-107389344D01*
X142587882Y-107348586D01*
X142637824Y-107198454D01*
X142637824Y-107198452D01*
X142639351Y-107193863D01*
X142665171Y-106989474D01*
X142665583Y-106960000D01*
X142645480Y-106754970D01*
X142585935Y-106557749D01*
X142489218Y-106375849D01*
X142359011Y-106216200D01*
X142200275Y-106084882D01*
X142019055Y-105986897D01*
X141955855Y-105967333D01*
X141826875Y-105927407D01*
X141826871Y-105927406D01*
X141822254Y-105925977D01*
X141817446Y-105925472D01*
X141817443Y-105925471D01*
X141622185Y-105904949D01*
X141622183Y-105904949D01*
X141617369Y-105904443D01*
X141557354Y-105909905D01*
X141417022Y-105922675D01*
X141417017Y-105922676D01*
X141412203Y-105923114D01*
X141214572Y-105981280D01*
X141210288Y-105983519D01*
X141210287Y-105983520D01*
X141199428Y-105989197D01*
X141032002Y-106076726D01*
X141028231Y-106079758D01*
X140875220Y-106202781D01*
X140875217Y-106202783D01*
X140871447Y-106205815D01*
X140868333Y-106209526D01*
X140868332Y-106209527D01*
X140859585Y-106219952D01*
X140739024Y-106363630D01*
X140736689Y-106367878D01*
X140736688Y-106367879D01*
X140729955Y-106380126D01*
X140639776Y-106544162D01*
X140577484Y-106740532D01*
X140576944Y-106745344D01*
X140576944Y-106745345D01*
X140575865Y-106754970D01*
X140554520Y-106945262D01*
X140250000Y-106945262D01*
X140250000Y-104405262D01*
X140554520Y-104405262D01*
X140571759Y-104610553D01*
X140573092Y-104615201D01*
X140573092Y-104615202D01*
X140617255Y-104769215D01*
X140628544Y-104808586D01*
X140722712Y-104991818D01*
X140850677Y-105153270D01*
X140854357Y-105156402D01*
X140854359Y-105156404D01*
X140943898Y-105232607D01*
X141007564Y-105286791D01*
X141011787Y-105289151D01*
X141011791Y-105289154D01*
X141051342Y-105311258D01*
X141187398Y-105387297D01*
X141191996Y-105388791D01*
X141378724Y-105449463D01*
X141378726Y-105449464D01*
X141383329Y-105450959D01*
X141587894Y-105475351D01*
X141592716Y-105474980D01*
X141592719Y-105474980D01*
X141660541Y-105469761D01*
X141793300Y-105459546D01*
X141991725Y-105404145D01*
X141996038Y-105401966D01*
X141996044Y-105401964D01*
X142171289Y-105313441D01*
X142171291Y-105313440D01*
X142175610Y-105311258D01*
X142239166Y-105261603D01*
X142334135Y-105187406D01*
X142334139Y-105187402D01*
X142337951Y-105184424D01*
X142472564Y-105028472D01*
X142483562Y-105009112D01*
X142571934Y-104853550D01*
X142571935Y-104853547D01*
X142574323Y-104849344D01*
X142586409Y-104813014D01*
X142637824Y-104658454D01*
X142637824Y-104658452D01*
X142639351Y-104653863D01*
X142665171Y-104449474D01*
X142665583Y-104420000D01*
X142645480Y-104214970D01*
X142585935Y-104017749D01*
X142489218Y-103835849D01*
X142359011Y-103676200D01*
X142200275Y-103544882D01*
X142019055Y-103446897D01*
X141955855Y-103427333D01*
X141826875Y-103387407D01*
X141826871Y-103387406D01*
X141822254Y-103385977D01*
X141817446Y-103385472D01*
X141817443Y-103385471D01*
X141622185Y-103364949D01*
X141622183Y-103364949D01*
X141617369Y-103364443D01*
X141557354Y-103369905D01*
X141417022Y-103382675D01*
X141417017Y-103382676D01*
X141412203Y-103383114D01*
X141214572Y-103441280D01*
X141210288Y-103443519D01*
X141210287Y-103443520D01*
X141199428Y-103449197D01*
X141032002Y-103536726D01*
X141028231Y-103539758D01*
X140875220Y-103662781D01*
X140875217Y-103662783D01*
X140871447Y-103665815D01*
X140868333Y-103669526D01*
X140868332Y-103669527D01*
X140744236Y-103817419D01*
X140739024Y-103823630D01*
X140736689Y-103827878D01*
X140736688Y-103827879D01*
X140731739Y-103836882D01*
X140639776Y-104004162D01*
X140638313Y-104008775D01*
X140638311Y-104008779D01*
X140625262Y-104049915D01*
X140577484Y-104200532D01*
X140576944Y-104205344D01*
X140576944Y-104205345D01*
X140575865Y-104214970D01*
X140554520Y-104405262D01*
X140250000Y-104405262D01*
X140250000Y-101865262D01*
X140554520Y-101865262D01*
X140560932Y-101941617D01*
X140570913Y-102060475D01*
X140571759Y-102070553D01*
X140573092Y-102075201D01*
X140573092Y-102075202D01*
X140603053Y-102179687D01*
X140628544Y-102268586D01*
X140722712Y-102451818D01*
X140850677Y-102613270D01*
X140854357Y-102616402D01*
X140854359Y-102616404D01*
X140967017Y-102712283D01*
X141007564Y-102746791D01*
X141011787Y-102749151D01*
X141011791Y-102749154D01*
X141051342Y-102771258D01*
X141187398Y-102847297D01*
X141191996Y-102848791D01*
X141378724Y-102909463D01*
X141378726Y-102909464D01*
X141383329Y-102910959D01*
X141587894Y-102935351D01*
X141592716Y-102934980D01*
X141592719Y-102934980D01*
X141660541Y-102929761D01*
X141793300Y-102919546D01*
X141991725Y-102864145D01*
X141996038Y-102861966D01*
X141996044Y-102861964D01*
X142171289Y-102773441D01*
X142171291Y-102773440D01*
X142175610Y-102771258D01*
X142210943Y-102743653D01*
X142334135Y-102647406D01*
X142334139Y-102647402D01*
X142337951Y-102644424D01*
X142472564Y-102488472D01*
X142491231Y-102455613D01*
X142571934Y-102313550D01*
X142571935Y-102313547D01*
X142574323Y-102309344D01*
X142587882Y-102268586D01*
X142594646Y-102248251D01*
X142630955Y-102199003D01*
X142688585Y-102180500D01*
X145871054Y-102180500D01*
X145875179Y-102180803D01*
X145879904Y-102182425D01*
X145929323Y-102180570D01*
X145933036Y-102180500D01*
X145952510Y-102180500D01*
X145956940Y-102179675D01*
X145962133Y-102179339D01*
X145978164Y-102178737D01*
X145982637Y-102178569D01*
X145991770Y-102178226D01*
X146000164Y-102174620D01*
X146000167Y-102174619D01*
X146002345Y-102173683D01*
X146023296Y-102167317D01*
X146034615Y-102165209D01*
X146057291Y-102151232D01*
X146070158Y-102144548D01*
X146088204Y-102136795D01*
X146088205Y-102136794D01*
X146094625Y-102134036D01*
X146099511Y-102130022D01*
X146103875Y-102125658D01*
X146121930Y-102111387D01*
X146129910Y-102106468D01*
X146147580Y-102083231D01*
X146156372Y-102073161D01*
X147883304Y-100346230D01*
X147937821Y-100318453D01*
X147955119Y-100317251D01*
X147999750Y-100318070D01*
X148042790Y-100318859D01*
X148042792Y-100318859D01*
X148049843Y-100318988D01*
X148056646Y-100317133D01*
X148056648Y-100317133D01*
X148157856Y-100289540D01*
X148188161Y-100281278D01*
X148310335Y-100206263D01*
X148406544Y-100099972D01*
X148469054Y-99970951D01*
X148472220Y-99952138D01*
X148492206Y-99833342D01*
X148492206Y-99833338D01*
X148492840Y-99829572D01*
X148492991Y-99817218D01*
X148472667Y-99675300D01*
X148445208Y-99614907D01*
X148416249Y-99551214D01*
X148416248Y-99551213D01*
X148413328Y-99544790D01*
X148371279Y-99495990D01*
X148364531Y-99488158D01*
X148340870Y-99431733D01*
X148354894Y-99372176D01*
X148366132Y-99357099D01*
X148412592Y-99305770D01*
X148417324Y-99300542D01*
X148479834Y-99171521D01*
X148483664Y-99148761D01*
X148502986Y-99033912D01*
X148502986Y-99033908D01*
X148503620Y-99030142D01*
X148503771Y-99017788D01*
X148483447Y-98875870D01*
X148456926Y-98817540D01*
X148448048Y-98776564D01*
X148448048Y-98701952D01*
X148466955Y-98643761D01*
X148516455Y-98607797D01*
X148547048Y-98602952D01*
X148949841Y-98602952D01*
X149008032Y-98621859D01*
X149019845Y-98631948D01*
X150020504Y-99632607D01*
X150048281Y-99687124D01*
X150049500Y-99702611D01*
X150049500Y-100264126D01*
X150030593Y-100322317D01*
X149981093Y-100358281D01*
X149950500Y-100363126D01*
X149169001Y-100363126D01*
X149157365Y-100362440D01*
X149155828Y-100362258D01*
X149122064Y-100358262D01*
X149114788Y-100359591D01*
X149114785Y-100359591D01*
X149095431Y-100363126D01*
X149063944Y-100368877D01*
X149060898Y-100369384D01*
X149002412Y-100378177D01*
X148995899Y-100381305D01*
X148988801Y-100382601D01*
X148964256Y-100395351D01*
X148936394Y-100409824D01*
X148933612Y-100411214D01*
X148886966Y-100433613D01*
X148886963Y-100433615D01*
X148880295Y-100436817D01*
X148875853Y-100440923D01*
X148873593Y-100442446D01*
X148868586Y-100445047D01*
X148863546Y-100449351D01*
X148825914Y-100486983D01*
X148823111Y-100489677D01*
X148786250Y-100523750D01*
X148786248Y-100523753D01*
X148780818Y-100528772D01*
X148777296Y-100534836D01*
X148770736Y-100542161D01*
X144579516Y-104733381D01*
X144570804Y-104741122D01*
X144542890Y-104763128D01*
X144511473Y-104808586D01*
X144509292Y-104811741D01*
X144507483Y-104814272D01*
X144484968Y-104844755D01*
X144472366Y-104861816D01*
X144469973Y-104868632D01*
X144465869Y-104874569D01*
X144463636Y-104881628D01*
X144463636Y-104881629D01*
X144448049Y-104930915D01*
X144447082Y-104933814D01*
X144427481Y-104989631D01*
X144427244Y-104995673D01*
X144426723Y-104998347D01*
X144425020Y-105003730D01*
X144424500Y-105010337D01*
X144424500Y-105063541D01*
X144424424Y-105067428D01*
X144422162Y-105124994D01*
X144423959Y-105131772D01*
X144424500Y-105141597D01*
X144424500Y-112542373D01*
X144423814Y-112554009D01*
X144419636Y-112589310D01*
X144420965Y-112596586D01*
X144420965Y-112596589D01*
X144430248Y-112647414D01*
X144430758Y-112650476D01*
X144439551Y-112708962D01*
X144442679Y-112715475D01*
X144443975Y-112722573D01*
X144447386Y-112729139D01*
X144471198Y-112774980D01*
X144472588Y-112777762D01*
X144494987Y-112824408D01*
X144494989Y-112824411D01*
X144498191Y-112831079D01*
X144502297Y-112835521D01*
X144503820Y-112837781D01*
X144506421Y-112842788D01*
X144510725Y-112847828D01*
X144548357Y-112885460D01*
X144551051Y-112888263D01*
X144585124Y-112925124D01*
X144585127Y-112925126D01*
X144590146Y-112930556D01*
X144596210Y-112934078D01*
X144603535Y-112940638D01*
X145646456Y-113983559D01*
X145674233Y-114038076D01*
X145670818Y-114083498D01*
X145657484Y-114125532D01*
X145656944Y-114130344D01*
X145656944Y-114130345D01*
X145651108Y-114182380D01*
X145634520Y-114330262D01*
X145651759Y-114535553D01*
X145653092Y-114540201D01*
X145653092Y-114540202D01*
X145661126Y-114568218D01*
X145708544Y-114733586D01*
X145802712Y-114916818D01*
X145930677Y-115078270D01*
X145934357Y-115081402D01*
X145934359Y-115081404D01*
X146017096Y-115151818D01*
X146087564Y-115211791D01*
X146091787Y-115214151D01*
X146091791Y-115214154D01*
X146173695Y-115259928D01*
X146267398Y-115312297D01*
X146271996Y-115313791D01*
X146458724Y-115374463D01*
X146458726Y-115374464D01*
X146463329Y-115375959D01*
X146667894Y-115400351D01*
X146672716Y-115399980D01*
X146672719Y-115399980D01*
X146740541Y-115394761D01*
X146873300Y-115384546D01*
X147071725Y-115329145D01*
X147076038Y-115326966D01*
X147076044Y-115326964D01*
X147251289Y-115238441D01*
X147251291Y-115238440D01*
X147255610Y-115236258D01*
X147290943Y-115208653D01*
X147414135Y-115112406D01*
X147414139Y-115112402D01*
X147417951Y-115109424D01*
X147552564Y-114953472D01*
X147571231Y-114920613D01*
X147651934Y-114778550D01*
X147651935Y-114778547D01*
X147654323Y-114774344D01*
X147657188Y-114765734D01*
X147717824Y-114583454D01*
X147717824Y-114583452D01*
X147719351Y-114578863D01*
X147720461Y-114570082D01*
X147744823Y-114377228D01*
X147745171Y-114374474D01*
X147745583Y-114345000D01*
X147744138Y-114330262D01*
X148174520Y-114330262D01*
X148191759Y-114535553D01*
X148193092Y-114540201D01*
X148193092Y-114540202D01*
X148201126Y-114568218D01*
X148248544Y-114733586D01*
X148342712Y-114916818D01*
X148470677Y-115078270D01*
X148474357Y-115081402D01*
X148474359Y-115081404D01*
X148557096Y-115151818D01*
X148627564Y-115211791D01*
X148631787Y-115214151D01*
X148631791Y-115214154D01*
X148713695Y-115259928D01*
X148807398Y-115312297D01*
X148811996Y-115313791D01*
X148998724Y-115374463D01*
X148998726Y-115374464D01*
X149003329Y-115375959D01*
X149207894Y-115400351D01*
X149212716Y-115399980D01*
X149212719Y-115399980D01*
X149280541Y-115394761D01*
X149413300Y-115384546D01*
X149611725Y-115329145D01*
X149616038Y-115326966D01*
X149616044Y-115326964D01*
X149791289Y-115238441D01*
X149791291Y-115238440D01*
X149795610Y-115236258D01*
X149830943Y-115208653D01*
X149954135Y-115112406D01*
X149954139Y-115112402D01*
X149957951Y-115109424D01*
X150092564Y-114953472D01*
X150111231Y-114920613D01*
X150191934Y-114778550D01*
X150191935Y-114778547D01*
X150194323Y-114774344D01*
X150197188Y-114765734D01*
X150257824Y-114583454D01*
X150257824Y-114583452D01*
X150259351Y-114578863D01*
X150260461Y-114570082D01*
X150284823Y-114377228D01*
X150285171Y-114374474D01*
X150285583Y-114345000D01*
X150284138Y-114330262D01*
X150714520Y-114330262D01*
X150731759Y-114535553D01*
X150733092Y-114540201D01*
X150733092Y-114540202D01*
X150741126Y-114568218D01*
X150788544Y-114733586D01*
X150882712Y-114916818D01*
X151010677Y-115078270D01*
X151014357Y-115081402D01*
X151014359Y-115081404D01*
X151097096Y-115151818D01*
X151167564Y-115211791D01*
X151171787Y-115214151D01*
X151171791Y-115214154D01*
X151253695Y-115259928D01*
X151347398Y-115312297D01*
X151351996Y-115313791D01*
X151538724Y-115374463D01*
X151538726Y-115374464D01*
X151543329Y-115375959D01*
X151747894Y-115400351D01*
X151752716Y-115399980D01*
X151752719Y-115399980D01*
X151820541Y-115394761D01*
X151953300Y-115384546D01*
X152151725Y-115329145D01*
X152156038Y-115326966D01*
X152156044Y-115326964D01*
X152288752Y-115259928D01*
X153613033Y-115259928D01*
X153613040Y-115259973D01*
X153618563Y-115266188D01*
X153755138Y-115357446D01*
X153763093Y-115361764D01*
X153948929Y-115441606D01*
X153957540Y-115444404D01*
X154154826Y-115489044D01*
X154163785Y-115490224D01*
X154365911Y-115498166D01*
X154374938Y-115497692D01*
X154575115Y-115468668D01*
X154583914Y-115466556D01*
X154775450Y-115401538D01*
X154783714Y-115397858D01*
X154960194Y-115299026D01*
X154967652Y-115293900D01*
X154998787Y-115268005D01*
X155005907Y-115256721D01*
X155005721Y-115253891D01*
X155003719Y-115250851D01*
X154321086Y-114568218D01*
X154309203Y-114562164D01*
X154304172Y-114562960D01*
X153619087Y-115248045D01*
X153613033Y-115259928D01*
X152288752Y-115259928D01*
X152331289Y-115238441D01*
X152331291Y-115238440D01*
X152335610Y-115236258D01*
X152370943Y-115208653D01*
X152494135Y-115112406D01*
X152494139Y-115112402D01*
X152497951Y-115109424D01*
X152632564Y-114953472D01*
X152651231Y-114920613D01*
X152731934Y-114778550D01*
X152731935Y-114778547D01*
X152734323Y-114774344D01*
X152737188Y-114765734D01*
X152797824Y-114583454D01*
X152797824Y-114583452D01*
X152799351Y-114578863D01*
X152800461Y-114570082D01*
X152824823Y-114377228D01*
X152825171Y-114374474D01*
X152825583Y-114345000D01*
X152823063Y-114319296D01*
X153155766Y-114319296D01*
X153168995Y-114521144D01*
X153170408Y-114530065D01*
X153220200Y-114726121D01*
X153223220Y-114734649D01*
X153307903Y-114918339D01*
X153312424Y-114926170D01*
X153387961Y-115033052D01*
X153398648Y-115041032D01*
X153399397Y-115041042D01*
X153405528Y-115037340D01*
X154086782Y-114356086D01*
X154092024Y-114345797D01*
X154527164Y-114345797D01*
X154527960Y-114350828D01*
X155211891Y-115034759D01*
X155223774Y-115040813D01*
X155226577Y-115040369D01*
X155229421Y-115038097D01*
X155258900Y-115002652D01*
X155264026Y-114995194D01*
X155362858Y-114818714D01*
X155366538Y-114810450D01*
X155431556Y-114618914D01*
X155433668Y-114610115D01*
X155440172Y-114565262D01*
X158334520Y-114565262D01*
X158338464Y-114612228D01*
X158349017Y-114737896D01*
X158351759Y-114770553D01*
X158408544Y-114968586D01*
X158502712Y-115151818D01*
X158630677Y-115313270D01*
X158634357Y-115316402D01*
X158634359Y-115316404D01*
X158687657Y-115361764D01*
X158787564Y-115446791D01*
X158791787Y-115449151D01*
X158791791Y-115449154D01*
X158908702Y-115514493D01*
X158967398Y-115547297D01*
X158971996Y-115548791D01*
X159158724Y-115609463D01*
X159158726Y-115609464D01*
X159163329Y-115610959D01*
X159367894Y-115635351D01*
X159372716Y-115634980D01*
X159372719Y-115634980D01*
X159440541Y-115629761D01*
X159573300Y-115619546D01*
X159771725Y-115564145D01*
X159776038Y-115561966D01*
X159776044Y-115561964D01*
X159951289Y-115473441D01*
X159951291Y-115473440D01*
X159955610Y-115471258D01*
X159959427Y-115468276D01*
X160114135Y-115347406D01*
X160114139Y-115347402D01*
X160117951Y-115344424D01*
X160130017Y-115330446D01*
X160177313Y-115275651D01*
X160252564Y-115188472D01*
X160271231Y-115155613D01*
X160351934Y-115013550D01*
X160351935Y-115013547D01*
X160354323Y-115009344D01*
X160356550Y-115002652D01*
X160417824Y-114818454D01*
X160417824Y-114818452D01*
X160419351Y-114813863D01*
X160424344Y-114774344D01*
X160444823Y-114612228D01*
X160445171Y-114609474D01*
X160445583Y-114580000D01*
X160439812Y-114521144D01*
X160425952Y-114379780D01*
X160425951Y-114379776D01*
X160425480Y-114374970D01*
X160416432Y-114345000D01*
X160367333Y-114182380D01*
X160365935Y-114177749D01*
X160269218Y-113995849D01*
X160139011Y-113836200D01*
X160122790Y-113822781D01*
X159984002Y-113707965D01*
X159984000Y-113707964D01*
X159980275Y-113704882D01*
X159799055Y-113606897D01*
X159735855Y-113587333D01*
X159606875Y-113547407D01*
X159606871Y-113547406D01*
X159602254Y-113545977D01*
X159597446Y-113545472D01*
X159597443Y-113545471D01*
X159402185Y-113524949D01*
X159402183Y-113524949D01*
X159397369Y-113524443D01*
X159337354Y-113529905D01*
X159197022Y-113542675D01*
X159197017Y-113542676D01*
X159192203Y-113543114D01*
X158994572Y-113601280D01*
X158990288Y-113603519D01*
X158990287Y-113603520D01*
X158979428Y-113609197D01*
X158812002Y-113696726D01*
X158808231Y-113699758D01*
X158655220Y-113822781D01*
X158655217Y-113822783D01*
X158651447Y-113825815D01*
X158648333Y-113829526D01*
X158648332Y-113829527D01*
X158639585Y-113839952D01*
X158519024Y-113983630D01*
X158516689Y-113987878D01*
X158516688Y-113987879D01*
X158509955Y-114000126D01*
X158419776Y-114164162D01*
X158357484Y-114360532D01*
X158356944Y-114365344D01*
X158356944Y-114365345D01*
X158339469Y-114521144D01*
X158334520Y-114565262D01*
X155440172Y-114565262D01*
X155462924Y-114408344D01*
X155463421Y-114402518D01*
X155464851Y-114347914D01*
X155464661Y-114342100D01*
X155446003Y-114139048D01*
X155444356Y-114130164D01*
X155389449Y-113935481D01*
X155386208Y-113927037D01*
X155296745Y-113745624D01*
X155292020Y-113737914D01*
X155231804Y-113657274D01*
X155220912Y-113649576D01*
X155219463Y-113649595D01*
X155214370Y-113652762D01*
X154533218Y-114333914D01*
X154527164Y-114345797D01*
X154092024Y-114345797D01*
X154092836Y-114344203D01*
X154092040Y-114339172D01*
X153408667Y-113655799D01*
X153396784Y-113649745D01*
X153394667Y-113650080D01*
X153390936Y-113653142D01*
X153344209Y-113712415D01*
X153339284Y-113719998D01*
X153245097Y-113899018D01*
X153241643Y-113907358D01*
X153181658Y-114100538D01*
X153179777Y-114109388D01*
X153156002Y-114310263D01*
X153155766Y-114319296D01*
X152823063Y-114319296D01*
X152822177Y-114310263D01*
X152805952Y-114144780D01*
X152805951Y-114144776D01*
X152805480Y-114139970D01*
X152802520Y-114130164D01*
X152761967Y-113995849D01*
X152745935Y-113942749D01*
X152649218Y-113760849D01*
X152519011Y-113601200D01*
X152448267Y-113542675D01*
X152364002Y-113472965D01*
X152364000Y-113472964D01*
X152360275Y-113469882D01*
X152290276Y-113432034D01*
X153613012Y-113432034D01*
X153613335Y-113435551D01*
X153614706Y-113437574D01*
X154298914Y-114121782D01*
X154310797Y-114127836D01*
X154315828Y-114127040D01*
X155002539Y-113440329D01*
X155008593Y-113428446D01*
X155008147Y-113425625D01*
X154838163Y-113318374D01*
X154830110Y-113314271D01*
X154642229Y-113239314D01*
X154633571Y-113236749D01*
X154435177Y-113197286D01*
X154426184Y-113196341D01*
X154223924Y-113193692D01*
X154214909Y-113194402D01*
X154015559Y-113228657D01*
X154006823Y-113230998D01*
X153817050Y-113301009D01*
X153808887Y-113304902D01*
X153635057Y-113408320D01*
X153627733Y-113413641D01*
X153619831Y-113420572D01*
X153613012Y-113432034D01*
X152290276Y-113432034D01*
X152179055Y-113371897D01*
X152095302Y-113345971D01*
X151986875Y-113312407D01*
X151986871Y-113312406D01*
X151982254Y-113310977D01*
X151977446Y-113310472D01*
X151977443Y-113310471D01*
X151782185Y-113289949D01*
X151782183Y-113289949D01*
X151777369Y-113289443D01*
X151717354Y-113294905D01*
X151577022Y-113307675D01*
X151577017Y-113307676D01*
X151572203Y-113308114D01*
X151374572Y-113366280D01*
X151370288Y-113368519D01*
X151370287Y-113368520D01*
X151359428Y-113374197D01*
X151192002Y-113461726D01*
X151188231Y-113464758D01*
X151035220Y-113587781D01*
X151035217Y-113587783D01*
X151031447Y-113590815D01*
X151028333Y-113594526D01*
X151028332Y-113594527D01*
X150940033Y-113699758D01*
X150899024Y-113748630D01*
X150896689Y-113752878D01*
X150896688Y-113752879D01*
X150889955Y-113765126D01*
X150799776Y-113929162D01*
X150798313Y-113933775D01*
X150798311Y-113933779D01*
X150750818Y-114083498D01*
X150737484Y-114125532D01*
X150736944Y-114130344D01*
X150736944Y-114130345D01*
X150731108Y-114182380D01*
X150714520Y-114330262D01*
X150284138Y-114330262D01*
X150282177Y-114310263D01*
X150265952Y-114144780D01*
X150265951Y-114144776D01*
X150265480Y-114139970D01*
X150262520Y-114130164D01*
X150221967Y-113995849D01*
X150205935Y-113942749D01*
X150109218Y-113760849D01*
X149979011Y-113601200D01*
X149908267Y-113542675D01*
X149824002Y-113472965D01*
X149824000Y-113472964D01*
X149820275Y-113469882D01*
X149639055Y-113371897D01*
X149590226Y-113356782D01*
X149540228Y-113321513D01*
X149520500Y-113262209D01*
X149520500Y-113245479D01*
X149539407Y-113187288D01*
X149549496Y-113175475D01*
X150699709Y-112025262D01*
X158334520Y-112025262D01*
X158351759Y-112230553D01*
X158408544Y-112428586D01*
X158502712Y-112611818D01*
X158630677Y-112773270D01*
X158634357Y-112776402D01*
X158634359Y-112776404D01*
X158719890Y-112849196D01*
X158787564Y-112906791D01*
X158791787Y-112909151D01*
X158791791Y-112909154D01*
X158908702Y-112974493D01*
X158967398Y-113007297D01*
X158971996Y-113008791D01*
X159158724Y-113069463D01*
X159158726Y-113069464D01*
X159163329Y-113070959D01*
X159367894Y-113095351D01*
X159372716Y-113094980D01*
X159372719Y-113094980D01*
X159440541Y-113089761D01*
X159573300Y-113079546D01*
X159771725Y-113024145D01*
X159776038Y-113021966D01*
X159776044Y-113021964D01*
X159951289Y-112933441D01*
X159951291Y-112933440D01*
X159955610Y-112931258D01*
X159990943Y-112903653D01*
X160114135Y-112807406D01*
X160114139Y-112807402D01*
X160117951Y-112804424D01*
X160142167Y-112776370D01*
X160200351Y-112708962D01*
X160252564Y-112648472D01*
X160271231Y-112615613D01*
X160351934Y-112473550D01*
X160351935Y-112473547D01*
X160354323Y-112469344D01*
X160367882Y-112428586D01*
X160417824Y-112278454D01*
X160417824Y-112278452D01*
X160419351Y-112273863D01*
X160445171Y-112069474D01*
X160445583Y-112040000D01*
X160425480Y-111834970D01*
X160365935Y-111637749D01*
X160269218Y-111455849D01*
X160139011Y-111296200D01*
X159980275Y-111164882D01*
X159799055Y-111066897D01*
X159735855Y-111047333D01*
X159606875Y-111007407D01*
X159606871Y-111007406D01*
X159602254Y-111005977D01*
X159597446Y-111005472D01*
X159597443Y-111005471D01*
X159402185Y-110984949D01*
X159402183Y-110984949D01*
X159397369Y-110984443D01*
X159337354Y-110989905D01*
X159197022Y-111002675D01*
X159197017Y-111002676D01*
X159192203Y-111003114D01*
X158994572Y-111061280D01*
X158990288Y-111063519D01*
X158990287Y-111063520D01*
X158979428Y-111069197D01*
X158812002Y-111156726D01*
X158808231Y-111159758D01*
X158655220Y-111282781D01*
X158655217Y-111282783D01*
X158651447Y-111285815D01*
X158648333Y-111289526D01*
X158648332Y-111289527D01*
X158639585Y-111299952D01*
X158519024Y-111443630D01*
X158516689Y-111447878D01*
X158516688Y-111447879D01*
X158509955Y-111460126D01*
X158419776Y-111624162D01*
X158357484Y-111820532D01*
X158356944Y-111825344D01*
X158356944Y-111825345D01*
X158355865Y-111834970D01*
X158334520Y-112025262D01*
X150699709Y-112025262D01*
X153049651Y-109675320D01*
X153052780Y-109672620D01*
X153057269Y-109670425D01*
X153090893Y-109634178D01*
X153093469Y-109631502D01*
X153107248Y-109617723D01*
X153109793Y-109614013D01*
X153113229Y-109610100D01*
X153127187Y-109595053D01*
X153133401Y-109588354D01*
X153136788Y-109579866D01*
X153137667Y-109577663D01*
X153147978Y-109558352D01*
X153149322Y-109556393D01*
X153149323Y-109556390D01*
X153154493Y-109548854D01*
X153158439Y-109532228D01*
X153160644Y-109522934D01*
X153165014Y-109509115D01*
X153174530Y-109485262D01*
X158334520Y-109485262D01*
X158338000Y-109526699D01*
X158350069Y-109670425D01*
X158351759Y-109690553D01*
X158408544Y-109888586D01*
X158502712Y-110071818D01*
X158630677Y-110233270D01*
X158634357Y-110236402D01*
X158634359Y-110236404D01*
X158747017Y-110332283D01*
X158787564Y-110366791D01*
X158791787Y-110369151D01*
X158791791Y-110369154D01*
X158831342Y-110391258D01*
X158967398Y-110467297D01*
X158971996Y-110468791D01*
X159158724Y-110529463D01*
X159158726Y-110529464D01*
X159163329Y-110530959D01*
X159367894Y-110555351D01*
X159372716Y-110554980D01*
X159372719Y-110554980D01*
X159440541Y-110549761D01*
X159573300Y-110539546D01*
X159771725Y-110484145D01*
X159776038Y-110481966D01*
X159776044Y-110481964D01*
X159951289Y-110393441D01*
X159951291Y-110393440D01*
X159955610Y-110391258D01*
X159990943Y-110363653D01*
X160114135Y-110267406D01*
X160114139Y-110267402D01*
X160117951Y-110264424D01*
X160252564Y-110108472D01*
X160271231Y-110075613D01*
X160351934Y-109933550D01*
X160351935Y-109933547D01*
X160354323Y-109929344D01*
X160367882Y-109888586D01*
X160417824Y-109738454D01*
X160417824Y-109738452D01*
X160419351Y-109733863D01*
X160427944Y-109665846D01*
X160444823Y-109532228D01*
X160445171Y-109529474D01*
X160445263Y-109522934D01*
X160445544Y-109502776D01*
X160445583Y-109500000D01*
X160445313Y-109497244D01*
X160425952Y-109299780D01*
X160425951Y-109299776D01*
X160425480Y-109294970D01*
X160365935Y-109097749D01*
X160269218Y-108915849D01*
X160139011Y-108756200D01*
X159980275Y-108624882D01*
X159799055Y-108526897D01*
X159735855Y-108507333D01*
X159606875Y-108467407D01*
X159606871Y-108467406D01*
X159602254Y-108465977D01*
X159597446Y-108465472D01*
X159597443Y-108465471D01*
X159402185Y-108444949D01*
X159402183Y-108444949D01*
X159397369Y-108444443D01*
X159337354Y-108449905D01*
X159197022Y-108462675D01*
X159197017Y-108462676D01*
X159192203Y-108463114D01*
X158994572Y-108521280D01*
X158990288Y-108523519D01*
X158990287Y-108523520D01*
X158979428Y-108529197D01*
X158812002Y-108616726D01*
X158808231Y-108619758D01*
X158655220Y-108742781D01*
X158655217Y-108742783D01*
X158651447Y-108745815D01*
X158648333Y-108749526D01*
X158648332Y-108749527D01*
X158639585Y-108759952D01*
X158519024Y-108903630D01*
X158516689Y-108907878D01*
X158516688Y-108907879D01*
X158509955Y-108920126D01*
X158419776Y-109084162D01*
X158357484Y-109280532D01*
X158356944Y-109285344D01*
X158356944Y-109285345D01*
X158337317Y-109460330D01*
X158334520Y-109485262D01*
X153174530Y-109485262D01*
X153174883Y-109484378D01*
X153175500Y-109478085D01*
X153175500Y-109471915D01*
X153178175Y-109449056D01*
X153178230Y-109448826D01*
X153180340Y-109439934D01*
X153176404Y-109411012D01*
X153175500Y-109397663D01*
X153175500Y-106945262D01*
X158334520Y-106945262D01*
X158351759Y-107150553D01*
X158408544Y-107348586D01*
X158502712Y-107531818D01*
X158630677Y-107693270D01*
X158634357Y-107696402D01*
X158634359Y-107696404D01*
X158747017Y-107792283D01*
X158787564Y-107826791D01*
X158791787Y-107829151D01*
X158791791Y-107829154D01*
X158831342Y-107851258D01*
X158967398Y-107927297D01*
X158971996Y-107928791D01*
X159158724Y-107989463D01*
X159158726Y-107989464D01*
X159163329Y-107990959D01*
X159367894Y-108015351D01*
X159372716Y-108014980D01*
X159372719Y-108014980D01*
X159440541Y-108009761D01*
X159573300Y-107999546D01*
X159771725Y-107944145D01*
X159776038Y-107941966D01*
X159776044Y-107941964D01*
X159951289Y-107853441D01*
X159951291Y-107853440D01*
X159955610Y-107851258D01*
X159990943Y-107823653D01*
X160114135Y-107727406D01*
X160114139Y-107727402D01*
X160117951Y-107724424D01*
X160252564Y-107568472D01*
X160271231Y-107535613D01*
X160351934Y-107393550D01*
X160351935Y-107393547D01*
X160354323Y-107389344D01*
X160367882Y-107348586D01*
X160417824Y-107198454D01*
X160417824Y-107198452D01*
X160419351Y-107193863D01*
X160445171Y-106989474D01*
X160445583Y-106960000D01*
X160425480Y-106754970D01*
X160365935Y-106557749D01*
X160269218Y-106375849D01*
X160139011Y-106216200D01*
X159980275Y-106084882D01*
X159799055Y-105986897D01*
X159735855Y-105967333D01*
X159606875Y-105927407D01*
X159606871Y-105927406D01*
X159602254Y-105925977D01*
X159597446Y-105925472D01*
X159597443Y-105925471D01*
X159402185Y-105904949D01*
X159402183Y-105904949D01*
X159397369Y-105904443D01*
X159337354Y-105909905D01*
X159197022Y-105922675D01*
X159197017Y-105922676D01*
X159192203Y-105923114D01*
X158994572Y-105981280D01*
X158990288Y-105983519D01*
X158990287Y-105983520D01*
X158979428Y-105989197D01*
X158812002Y-106076726D01*
X158808231Y-106079758D01*
X158655220Y-106202781D01*
X158655217Y-106202783D01*
X158651447Y-106205815D01*
X158648333Y-106209526D01*
X158648332Y-106209527D01*
X158639585Y-106219952D01*
X158519024Y-106363630D01*
X158516689Y-106367878D01*
X158516688Y-106367879D01*
X158509955Y-106380126D01*
X158419776Y-106544162D01*
X158357484Y-106740532D01*
X158356944Y-106745344D01*
X158356944Y-106745345D01*
X158355865Y-106754970D01*
X158334520Y-106945262D01*
X153175500Y-106945262D01*
X153175500Y-104405262D01*
X158334520Y-104405262D01*
X158351759Y-104610553D01*
X158353092Y-104615201D01*
X158353092Y-104615202D01*
X158397255Y-104769215D01*
X158408544Y-104808586D01*
X158502712Y-104991818D01*
X158630677Y-105153270D01*
X158634357Y-105156402D01*
X158634359Y-105156404D01*
X158723898Y-105232607D01*
X158787564Y-105286791D01*
X158791787Y-105289151D01*
X158791791Y-105289154D01*
X158831342Y-105311258D01*
X158967398Y-105387297D01*
X158971996Y-105388791D01*
X159158724Y-105449463D01*
X159158726Y-105449464D01*
X159163329Y-105450959D01*
X159367894Y-105475351D01*
X159372716Y-105474980D01*
X159372719Y-105474980D01*
X159440541Y-105469761D01*
X159573300Y-105459546D01*
X159771725Y-105404145D01*
X159776038Y-105401966D01*
X159776044Y-105401964D01*
X159951289Y-105313441D01*
X159951291Y-105313440D01*
X159955610Y-105311258D01*
X160019166Y-105261603D01*
X160114135Y-105187406D01*
X160114139Y-105187402D01*
X160117951Y-105184424D01*
X160252564Y-105028472D01*
X160263562Y-105009112D01*
X160351934Y-104853550D01*
X160351935Y-104853547D01*
X160354323Y-104849344D01*
X160366409Y-104813014D01*
X160417824Y-104658454D01*
X160417824Y-104658452D01*
X160419351Y-104653863D01*
X160445171Y-104449474D01*
X160445583Y-104420000D01*
X160425480Y-104214970D01*
X160365935Y-104017749D01*
X160269218Y-103835849D01*
X160139011Y-103676200D01*
X159980275Y-103544882D01*
X159799055Y-103446897D01*
X159735855Y-103427333D01*
X159606875Y-103387407D01*
X159606871Y-103387406D01*
X159602254Y-103385977D01*
X159597446Y-103385472D01*
X159597443Y-103385471D01*
X159402185Y-103364949D01*
X159402183Y-103364949D01*
X159397369Y-103364443D01*
X159337354Y-103369905D01*
X159197022Y-103382675D01*
X159197017Y-103382676D01*
X159192203Y-103383114D01*
X158994572Y-103441280D01*
X158990288Y-103443519D01*
X158990287Y-103443520D01*
X158979428Y-103449197D01*
X158812002Y-103536726D01*
X158808231Y-103539758D01*
X158655220Y-103662781D01*
X158655217Y-103662783D01*
X158651447Y-103665815D01*
X158648333Y-103669526D01*
X158648332Y-103669527D01*
X158524236Y-103817419D01*
X158519024Y-103823630D01*
X158516689Y-103827878D01*
X158516688Y-103827879D01*
X158511739Y-103836882D01*
X158419776Y-104004162D01*
X158418313Y-104008775D01*
X158418311Y-104008779D01*
X158405262Y-104049915D01*
X158357484Y-104200532D01*
X158356944Y-104205344D01*
X158356944Y-104205345D01*
X158355865Y-104214970D01*
X158334520Y-104405262D01*
X153175500Y-104405262D01*
X153175500Y-104123289D01*
X153194407Y-104065098D01*
X153243907Y-104029134D01*
X153304022Y-104028793D01*
X153362425Y-104047039D01*
X153362426Y-104047039D01*
X153369157Y-104049142D01*
X153440828Y-104050456D01*
X153505445Y-104051641D01*
X153505447Y-104051641D01*
X153512499Y-104051770D01*
X153519302Y-104049915D01*
X153519304Y-104049915D01*
X153596777Y-104028793D01*
X153650817Y-104014060D01*
X153772991Y-103939045D01*
X153823662Y-103883064D01*
X153876730Y-103852610D01*
X153897060Y-103850500D01*
X155126492Y-103850500D01*
X155130617Y-103850803D01*
X155135342Y-103852425D01*
X155184761Y-103850570D01*
X155188474Y-103850500D01*
X155207948Y-103850500D01*
X155212378Y-103849675D01*
X155217571Y-103849339D01*
X155233602Y-103848737D01*
X155238075Y-103848569D01*
X155247208Y-103848226D01*
X155255602Y-103844620D01*
X155255605Y-103844619D01*
X155257783Y-103843683D01*
X155278734Y-103837317D01*
X155290053Y-103835209D01*
X155312729Y-103821232D01*
X155325596Y-103814548D01*
X155343642Y-103806795D01*
X155343643Y-103806794D01*
X155350063Y-103804036D01*
X155354949Y-103800022D01*
X155359313Y-103795658D01*
X155377368Y-103781387D01*
X155385348Y-103776468D01*
X155403018Y-103753231D01*
X155411810Y-103743161D01*
X157289709Y-101865262D01*
X158334520Y-101865262D01*
X158340932Y-101941617D01*
X158350913Y-102060475D01*
X158351759Y-102070553D01*
X158353092Y-102075201D01*
X158353092Y-102075202D01*
X158383053Y-102179687D01*
X158408544Y-102268586D01*
X158502712Y-102451818D01*
X158630677Y-102613270D01*
X158634357Y-102616402D01*
X158634359Y-102616404D01*
X158747017Y-102712283D01*
X158787564Y-102746791D01*
X158791787Y-102749151D01*
X158791791Y-102749154D01*
X158831342Y-102771258D01*
X158967398Y-102847297D01*
X158971996Y-102848791D01*
X159158724Y-102909463D01*
X159158726Y-102909464D01*
X159163329Y-102910959D01*
X159367894Y-102935351D01*
X159372716Y-102934980D01*
X159372719Y-102934980D01*
X159440541Y-102929761D01*
X159573300Y-102919546D01*
X159771725Y-102864145D01*
X159776038Y-102861966D01*
X159776044Y-102861964D01*
X159951289Y-102773441D01*
X159951291Y-102773440D01*
X159955610Y-102771258D01*
X159990943Y-102743653D01*
X160114135Y-102647406D01*
X160114139Y-102647402D01*
X160117951Y-102644424D01*
X160252564Y-102488472D01*
X160271231Y-102455613D01*
X160351934Y-102313550D01*
X160351935Y-102313547D01*
X160354323Y-102309344D01*
X160367882Y-102268586D01*
X160417824Y-102118454D01*
X160417824Y-102118452D01*
X160419351Y-102113863D01*
X160422433Y-102089471D01*
X160444823Y-101912228D01*
X160445171Y-101909474D01*
X160445583Y-101880000D01*
X160437243Y-101794938D01*
X160425952Y-101679780D01*
X160425951Y-101679776D01*
X160425480Y-101674970D01*
X160365935Y-101477749D01*
X160269218Y-101295849D01*
X160139011Y-101136200D01*
X159980275Y-101004882D01*
X159799055Y-100906897D01*
X159714449Y-100880707D01*
X159606875Y-100847407D01*
X159606871Y-100847406D01*
X159602254Y-100845977D01*
X159597446Y-100845472D01*
X159597443Y-100845471D01*
X159402185Y-100824949D01*
X159402183Y-100824949D01*
X159397369Y-100824443D01*
X159339053Y-100829750D01*
X159197022Y-100842675D01*
X159197017Y-100842676D01*
X159192203Y-100843114D01*
X158994572Y-100901280D01*
X158990288Y-100903519D01*
X158990287Y-100903520D01*
X158979428Y-100909197D01*
X158812002Y-100996726D01*
X158808231Y-100999758D01*
X158655220Y-101122781D01*
X158655217Y-101122783D01*
X158651447Y-101125815D01*
X158648333Y-101129526D01*
X158648332Y-101129527D01*
X158524012Y-101277686D01*
X158519024Y-101283630D01*
X158516689Y-101287878D01*
X158516688Y-101287879D01*
X158492830Y-101331276D01*
X158419776Y-101464162D01*
X158357484Y-101660532D01*
X158356944Y-101665344D01*
X158356944Y-101665345D01*
X158341689Y-101801352D01*
X158334520Y-101865262D01*
X157289709Y-101865262D01*
X158837654Y-100317317D01*
X158892171Y-100289540D01*
X158955957Y-100300903D01*
X158967398Y-100307297D01*
X158971996Y-100308791D01*
X159158724Y-100369463D01*
X159158726Y-100369464D01*
X159163329Y-100370959D01*
X159367894Y-100395351D01*
X159372716Y-100394980D01*
X159372719Y-100394980D01*
X159440541Y-100389761D01*
X159573300Y-100379546D01*
X159771725Y-100324145D01*
X159776038Y-100321966D01*
X159776044Y-100321964D01*
X159951289Y-100233441D01*
X159951291Y-100233440D01*
X159955610Y-100231258D01*
X159986927Y-100206791D01*
X160114135Y-100107406D01*
X160114139Y-100107402D01*
X160117951Y-100104424D01*
X160252564Y-99948472D01*
X160271231Y-99915613D01*
X160351934Y-99773550D01*
X160351935Y-99773547D01*
X160354323Y-99769344D01*
X160362084Y-99746016D01*
X160417824Y-99578454D01*
X160417824Y-99578452D01*
X160419351Y-99573863D01*
X160420965Y-99561091D01*
X160439613Y-99413467D01*
X160445171Y-99369474D01*
X160445583Y-99340000D01*
X160444138Y-99325262D01*
X160425952Y-99139780D01*
X160425951Y-99139776D01*
X160425480Y-99134970D01*
X160422433Y-99124876D01*
X160386652Y-99006366D01*
X160365935Y-98937749D01*
X160269218Y-98755849D01*
X160139011Y-98596200D01*
X160122790Y-98582781D01*
X159984002Y-98467965D01*
X159984000Y-98467964D01*
X159980275Y-98464882D01*
X159799055Y-98366897D01*
X159735855Y-98347333D01*
X159606875Y-98307407D01*
X159606871Y-98307406D01*
X159602254Y-98305977D01*
X159597446Y-98305472D01*
X159597443Y-98305471D01*
X159402185Y-98284949D01*
X159402183Y-98284949D01*
X159397369Y-98284443D01*
X159337354Y-98289905D01*
X159197022Y-98302675D01*
X159197017Y-98302676D01*
X159192203Y-98303114D01*
X158994572Y-98361280D01*
X158990288Y-98363519D01*
X158990287Y-98363520D01*
X158979428Y-98369197D01*
X158812002Y-98456726D01*
X158808231Y-98459758D01*
X158655220Y-98582781D01*
X158655217Y-98582783D01*
X158651447Y-98585815D01*
X158648333Y-98589526D01*
X158648332Y-98589527D01*
X158594364Y-98653844D01*
X158519024Y-98743630D01*
X158516689Y-98747878D01*
X158516688Y-98747879D01*
X158511456Y-98757396D01*
X158419776Y-98924162D01*
X158418313Y-98928775D01*
X158418311Y-98928779D01*
X158387369Y-99026321D01*
X158357484Y-99120532D01*
X158356944Y-99125344D01*
X158356944Y-99125345D01*
X158337293Y-99300542D01*
X158334520Y-99325262D01*
X158338000Y-99366699D01*
X158349834Y-99507626D01*
X158351759Y-99530553D01*
X158353092Y-99535201D01*
X158353092Y-99535202D01*
X158360516Y-99561091D01*
X158408544Y-99728586D01*
X158432542Y-99775282D01*
X158442323Y-99835678D01*
X158414493Y-99890536D01*
X157555057Y-100749972D01*
X157555051Y-100749977D01*
X157555040Y-100749988D01*
X155084525Y-103220504D01*
X155030008Y-103248281D01*
X155014521Y-103249500D01*
X153897173Y-103249500D01*
X153838982Y-103230593D01*
X153822174Y-103215123D01*
X153787005Y-103174307D01*
X153787004Y-103174306D01*
X153782400Y-103168963D01*
X153662095Y-103090985D01*
X153524739Y-103049907D01*
X153441497Y-103049398D01*
X153388427Y-103049074D01*
X153388426Y-103049074D01*
X153381376Y-103049031D01*
X153374599Y-103050968D01*
X153374598Y-103050968D01*
X153301705Y-103071801D01*
X153240559Y-103069612D01*
X153192377Y-103031900D01*
X153175500Y-102976612D01*
X153175500Y-102018513D01*
X153175803Y-102014384D01*
X153177426Y-102009658D01*
X153175570Y-101960223D01*
X153175500Y-101956509D01*
X153175500Y-101937052D01*
X153174675Y-101932622D01*
X153174339Y-101927436D01*
X153173569Y-101906925D01*
X153173569Y-101906924D01*
X153173226Y-101897792D01*
X153169620Y-101889398D01*
X153169619Y-101889395D01*
X153168683Y-101887217D01*
X153162317Y-101866266D01*
X153160209Y-101854947D01*
X153146230Y-101832269D01*
X153139550Y-101819409D01*
X153131792Y-101801352D01*
X153131791Y-101801351D01*
X153129036Y-101794938D01*
X153125023Y-101790051D01*
X153120657Y-101785685D01*
X153106385Y-101767629D01*
X153106264Y-101767432D01*
X153106263Y-101767431D01*
X153101468Y-101759652D01*
X153078244Y-101741992D01*
X153068165Y-101733193D01*
X152666248Y-101331276D01*
X152251771Y-100916800D01*
X152223994Y-100862283D01*
X152224148Y-100830366D01*
X152224862Y-100826125D01*
X152224863Y-100826119D01*
X152225496Y-100822354D01*
X152225647Y-100810000D01*
X152205323Y-100668082D01*
X152145984Y-100537572D01*
X152061932Y-100440025D01*
X152057005Y-100434307D01*
X152057004Y-100434306D01*
X152052400Y-100428963D01*
X151932095Y-100350985D01*
X151794739Y-100309907D01*
X151711497Y-100309398D01*
X151658427Y-100309074D01*
X151658426Y-100309074D01*
X151651376Y-100309031D01*
X151644599Y-100310968D01*
X151644598Y-100310968D01*
X151520309Y-100346490D01*
X151520307Y-100346491D01*
X151513529Y-100348428D01*
X151392280Y-100424930D01*
X151387613Y-100430214D01*
X151387611Y-100430216D01*
X151302044Y-100527103D01*
X151302042Y-100527105D01*
X151297377Y-100532388D01*
X151294381Y-100538770D01*
X151294380Y-100538771D01*
X151291927Y-100543996D01*
X151236447Y-100662163D01*
X151235362Y-100669132D01*
X151235361Y-100669135D01*
X151234438Y-100675066D01*
X151214391Y-100803823D01*
X151215306Y-100810820D01*
X151215306Y-100810821D01*
X151224445Y-100880707D01*
X151232980Y-100945979D01*
X151235821Y-100952435D01*
X151235821Y-100952436D01*
X151260255Y-101007965D01*
X151290720Y-101077203D01*
X151329032Y-101122781D01*
X151378431Y-101181549D01*
X151378434Y-101181551D01*
X151382970Y-101186948D01*
X151502313Y-101266390D01*
X151571097Y-101287879D01*
X151632425Y-101307039D01*
X151632426Y-101307039D01*
X151639157Y-101309142D01*
X151712526Y-101310487D01*
X151757124Y-101311305D01*
X151814958Y-101331276D01*
X151825313Y-101340284D01*
X152545504Y-102060475D01*
X152573281Y-102114992D01*
X152574500Y-102130479D01*
X152574500Y-109259520D01*
X152555593Y-109317711D01*
X152545504Y-109329524D01*
X149045349Y-112829680D01*
X149042220Y-112832380D01*
X149037731Y-112834575D01*
X149031513Y-112841278D01*
X149004107Y-112870822D01*
X149001531Y-112873498D01*
X148987752Y-112887277D01*
X148985207Y-112890987D01*
X148981771Y-112894900D01*
X148961599Y-112916646D01*
X148958212Y-112925134D01*
X148958212Y-112925135D01*
X148957334Y-112927336D01*
X148947020Y-112946652D01*
X148945679Y-112948607D01*
X148945678Y-112948610D01*
X148940508Y-112956146D01*
X148938398Y-112965038D01*
X148934359Y-112982058D01*
X148929986Y-112995884D01*
X148926375Y-113004936D01*
X148920117Y-113020622D01*
X148919500Y-113026915D01*
X148919500Y-113033084D01*
X148916825Y-113055943D01*
X148914660Y-113065066D01*
X148918596Y-113093987D01*
X148919500Y-113107337D01*
X148919500Y-113267223D01*
X148900593Y-113325414D01*
X148848451Y-113362195D01*
X148834572Y-113366280D01*
X148830288Y-113368519D01*
X148830287Y-113368520D01*
X148819428Y-113374197D01*
X148652002Y-113461726D01*
X148648231Y-113464758D01*
X148495220Y-113587781D01*
X148495217Y-113587783D01*
X148491447Y-113590815D01*
X148488333Y-113594526D01*
X148488332Y-113594527D01*
X148400033Y-113699758D01*
X148359024Y-113748630D01*
X148356689Y-113752878D01*
X148356688Y-113752879D01*
X148349955Y-113765126D01*
X148259776Y-113929162D01*
X148258313Y-113933775D01*
X148258311Y-113933779D01*
X148210818Y-114083498D01*
X148197484Y-114125532D01*
X148196944Y-114130344D01*
X148196944Y-114130345D01*
X148191108Y-114182380D01*
X148174520Y-114330262D01*
X147744138Y-114330262D01*
X147742177Y-114310263D01*
X147725952Y-114144780D01*
X147725951Y-114144776D01*
X147725480Y-114139970D01*
X147722520Y-114130164D01*
X147681967Y-113995849D01*
X147665935Y-113942749D01*
X147569218Y-113760849D01*
X147439011Y-113601200D01*
X147368267Y-113542675D01*
X147284002Y-113472965D01*
X147284000Y-113472964D01*
X147280275Y-113469882D01*
X147099055Y-113371897D01*
X147015302Y-113345971D01*
X146906875Y-113312407D01*
X146906871Y-113312406D01*
X146902254Y-113310977D01*
X146897446Y-113310472D01*
X146897443Y-113310471D01*
X146702185Y-113289949D01*
X146702183Y-113289949D01*
X146697369Y-113289443D01*
X146637354Y-113294905D01*
X146497022Y-113307675D01*
X146497017Y-113307676D01*
X146492203Y-113308114D01*
X146457342Y-113318374D01*
X146357769Y-113347679D01*
X146296608Y-113345971D01*
X146259814Y-113322711D01*
X145354496Y-112417393D01*
X145326719Y-112362876D01*
X145325500Y-112347389D01*
X145325500Y-105302611D01*
X145344407Y-105244420D01*
X145354496Y-105232607D01*
X149293981Y-101293122D01*
X149348498Y-101265345D01*
X149363985Y-101264126D01*
X150245929Y-101264126D01*
X150277935Y-101271368D01*
X150278357Y-101270016D01*
X150408469Y-101310665D01*
X150408470Y-101310665D01*
X150415201Y-101312768D01*
X150486872Y-101314082D01*
X150551489Y-101315267D01*
X150551491Y-101315267D01*
X150558543Y-101315396D01*
X150565346Y-101313541D01*
X150565348Y-101313541D01*
X150644010Y-101292095D01*
X150696861Y-101277686D01*
X150819035Y-101202671D01*
X150829729Y-101190857D01*
X150910512Y-101101608D01*
X150915244Y-101096380D01*
X150977754Y-100967359D01*
X150982529Y-100938982D01*
X151000906Y-100829750D01*
X151000906Y-100829746D01*
X151001540Y-100825980D01*
X151001691Y-100813626D01*
X150981367Y-100671708D01*
X150977027Y-100662163D01*
X150959378Y-100623344D01*
X150950500Y-100582369D01*
X150950500Y-99507626D01*
X150951186Y-99495990D01*
X150954494Y-99468037D01*
X150955364Y-99460689D01*
X150954035Y-99453413D01*
X150954035Y-99453409D01*
X150944750Y-99402573D01*
X150944239Y-99399505D01*
X150936549Y-99348355D01*
X150935449Y-99341038D01*
X150932321Y-99334525D01*
X150931025Y-99327427D01*
X150903793Y-99275002D01*
X150902403Y-99272221D01*
X150880012Y-99225592D01*
X150876809Y-99218921D01*
X150872705Y-99214481D01*
X150871180Y-99212218D01*
X150868579Y-99207211D01*
X150864275Y-99202172D01*
X150826643Y-99164540D01*
X150823949Y-99161737D01*
X150789876Y-99124876D01*
X150789873Y-99124874D01*
X150784854Y-99119444D01*
X150778790Y-99115922D01*
X150771465Y-99109362D01*
X149519071Y-97856968D01*
X149511329Y-97848255D01*
X149493905Y-97826153D01*
X149489324Y-97820342D01*
X149440703Y-97786738D01*
X149438180Y-97784935D01*
X149437111Y-97784145D01*
X149422750Y-97773538D01*
X149396591Y-97754216D01*
X149396589Y-97754215D01*
X149390636Y-97749818D01*
X149383820Y-97747425D01*
X149377883Y-97743321D01*
X149370824Y-97741088D01*
X149370823Y-97741088D01*
X149350479Y-97734654D01*
X149321523Y-97725496D01*
X149318638Y-97724534D01*
X149262821Y-97704933D01*
X149256779Y-97704696D01*
X149254105Y-97704175D01*
X149248722Y-97702472D01*
X149242115Y-97701952D01*
X149188911Y-97701952D01*
X149185024Y-97701876D01*
X149134849Y-97699904D01*
X149134846Y-97699904D01*
X149127458Y-97699614D01*
X149120680Y-97701411D01*
X149110855Y-97701952D01*
X148547048Y-97701952D01*
X148488857Y-97683045D01*
X148452893Y-97633545D01*
X148448048Y-97602952D01*
X148448048Y-96524496D01*
X148466955Y-96466305D01*
X148516455Y-96430341D01*
X148547048Y-96425496D01*
X150713357Y-96425496D01*
X150724993Y-96426182D01*
X150760294Y-96430360D01*
X150767570Y-96429031D01*
X150767573Y-96429031D01*
X150798272Y-96423424D01*
X150818414Y-96419745D01*
X150821460Y-96419238D01*
X150879946Y-96410445D01*
X150886459Y-96407317D01*
X150893557Y-96406021D01*
X150945966Y-96378797D01*
X150948746Y-96377408D01*
X150995392Y-96355009D01*
X150995395Y-96355007D01*
X151002063Y-96351805D01*
X151006505Y-96347699D01*
X151008765Y-96346176D01*
X151013772Y-96343575D01*
X151018812Y-96339271D01*
X151056445Y-96301638D01*
X151059220Y-96298970D01*
X151067727Y-96291107D01*
X151108885Y-96268293D01*
X151120817Y-96265040D01*
X151242991Y-96190025D01*
X151263457Y-96167415D01*
X151334468Y-96088962D01*
X151339200Y-96083734D01*
X151401710Y-95954713D01*
X151403049Y-95946758D01*
X151423816Y-95823320D01*
X151451441Y-95769741D01*
X151741687Y-95479496D01*
X151796203Y-95451719D01*
X151811690Y-95450500D01*
X153517373Y-95450500D01*
X153529009Y-95451186D01*
X153564310Y-95455364D01*
X153571586Y-95454035D01*
X153571588Y-95454035D01*
X153578240Y-95452820D01*
X153584860Y-95451611D01*
X153602645Y-95450000D01*
X153745116Y-95450000D01*
X153806961Y-95471694D01*
X154112345Y-95716001D01*
X154145973Y-95767117D01*
X154149500Y-95793307D01*
X154149500Y-98572389D01*
X154130593Y-98630580D01*
X154120504Y-98642393D01*
X153952767Y-98810130D01*
X153898250Y-98837907D01*
X153882763Y-98839126D01*
X153352757Y-98839126D01*
X153315417Y-98830916D01*
X153314947Y-98830611D01*
X153308189Y-98828590D01*
X153308187Y-98828589D01*
X153184352Y-98791555D01*
X153177591Y-98789533D01*
X153094349Y-98789024D01*
X153041279Y-98788700D01*
X153041278Y-98788700D01*
X153034228Y-98788657D01*
X153027451Y-98790594D01*
X153027450Y-98790594D01*
X152903161Y-98826116D01*
X152903159Y-98826117D01*
X152896381Y-98828054D01*
X152775132Y-98904556D01*
X152770465Y-98909840D01*
X152770463Y-98909842D01*
X152684896Y-99006729D01*
X152684894Y-99006731D01*
X152680229Y-99012014D01*
X152677233Y-99018396D01*
X152677232Y-99018397D01*
X152676886Y-99019135D01*
X152619299Y-99141789D01*
X152618214Y-99148758D01*
X152618213Y-99148761D01*
X152609113Y-99207211D01*
X152597243Y-99283449D01*
X152615832Y-99425605D01*
X152618673Y-99432061D01*
X152618673Y-99432062D01*
X152668275Y-99544790D01*
X152673572Y-99556829D01*
X152691750Y-99578454D01*
X152761283Y-99661175D01*
X152761286Y-99661177D01*
X152765822Y-99666574D01*
X152771693Y-99670482D01*
X152771694Y-99670483D01*
X152803396Y-99691586D01*
X152885165Y-99746016D01*
X152973298Y-99773550D01*
X153015277Y-99786665D01*
X153015278Y-99786665D01*
X153022009Y-99788768D01*
X153093680Y-99790082D01*
X153158297Y-99791267D01*
X153158299Y-99791267D01*
X153165351Y-99791396D01*
X153172154Y-99789541D01*
X153172156Y-99789541D01*
X153296865Y-99755541D01*
X153303669Y-99753686D01*
X153309679Y-99749996D01*
X153313672Y-99748268D01*
X153352989Y-99740126D01*
X154077747Y-99740126D01*
X154089383Y-99740812D01*
X154124684Y-99744990D01*
X154131960Y-99743661D01*
X154131963Y-99743661D01*
X154162662Y-99738054D01*
X154182804Y-99734375D01*
X154185850Y-99733868D01*
X154244336Y-99725075D01*
X154250849Y-99721947D01*
X154257947Y-99720651D01*
X154310356Y-99693427D01*
X154313136Y-99692038D01*
X154359782Y-99669639D01*
X154359785Y-99669637D01*
X154366453Y-99666435D01*
X154370895Y-99662329D01*
X154373155Y-99660806D01*
X154378162Y-99658205D01*
X154383202Y-99653901D01*
X154420834Y-99616269D01*
X154423637Y-99613575D01*
X154460498Y-99579502D01*
X154460500Y-99579499D01*
X154465930Y-99574480D01*
X154469452Y-99568416D01*
X154476012Y-99561091D01*
X154895484Y-99141619D01*
X154904197Y-99133877D01*
X154926299Y-99116453D01*
X154932110Y-99111872D01*
X154965704Y-99063266D01*
X154967511Y-99060737D01*
X154998239Y-99019135D01*
X154998240Y-99019134D01*
X155002635Y-99013183D01*
X155005029Y-99006366D01*
X155009131Y-99000431D01*
X155026948Y-98944096D01*
X155027928Y-98941159D01*
X155045068Y-98892352D01*
X155045068Y-98892350D01*
X155047520Y-98885369D01*
X155047758Y-98879327D01*
X155048280Y-98876647D01*
X155049980Y-98871270D01*
X155050500Y-98864663D01*
X155050500Y-98811469D01*
X155050576Y-98807583D01*
X155052548Y-98757396D01*
X155052548Y-98757394D01*
X155052838Y-98750006D01*
X155051041Y-98743228D01*
X155050500Y-98733402D01*
X155050500Y-96785262D01*
X158334520Y-96785262D01*
X158334925Y-96790082D01*
X158349657Y-96965518D01*
X158351759Y-96990553D01*
X158408544Y-97188586D01*
X158502712Y-97371818D01*
X158630677Y-97533270D01*
X158634357Y-97536402D01*
X158634359Y-97536404D01*
X158712553Y-97602952D01*
X158787564Y-97666791D01*
X158791787Y-97669151D01*
X158791791Y-97669154D01*
X158892613Y-97725501D01*
X158967398Y-97767297D01*
X158971996Y-97768791D01*
X159158724Y-97829463D01*
X159158726Y-97829464D01*
X159163329Y-97830959D01*
X159367894Y-97855351D01*
X159372716Y-97854980D01*
X159372719Y-97854980D01*
X159440541Y-97849761D01*
X159573300Y-97839546D01*
X159771725Y-97784145D01*
X159776038Y-97781966D01*
X159776044Y-97781964D01*
X159951289Y-97693441D01*
X159951291Y-97693440D01*
X159955610Y-97691258D01*
X160047370Y-97619568D01*
X160114135Y-97567406D01*
X160114139Y-97567402D01*
X160117951Y-97564424D01*
X160127615Y-97553229D01*
X160216551Y-97450194D01*
X160252564Y-97408472D01*
X160254957Y-97404260D01*
X160351934Y-97233550D01*
X160351935Y-97233547D01*
X160354323Y-97229344D01*
X160367882Y-97188586D01*
X160417824Y-97038454D01*
X160417824Y-97038452D01*
X160419351Y-97033863D01*
X160426643Y-96976145D01*
X160444823Y-96832228D01*
X160445171Y-96829474D01*
X160445583Y-96800000D01*
X160430876Y-96650000D01*
X160425952Y-96599780D01*
X160425951Y-96599776D01*
X160425480Y-96594970D01*
X160422520Y-96585164D01*
X160368222Y-96405325D01*
X160365935Y-96397749D01*
X160269218Y-96215849D01*
X160139011Y-96056200D01*
X160101299Y-96025002D01*
X159984002Y-95927965D01*
X159984000Y-95927964D01*
X159980275Y-95924882D01*
X159799055Y-95826897D01*
X159699944Y-95796217D01*
X159606875Y-95767407D01*
X159606871Y-95767406D01*
X159602254Y-95765977D01*
X159597446Y-95765472D01*
X159597443Y-95765471D01*
X159402185Y-95744949D01*
X159402183Y-95744949D01*
X159397369Y-95744443D01*
X159337354Y-95749905D01*
X159197022Y-95762675D01*
X159197017Y-95762676D01*
X159192203Y-95763114D01*
X158994572Y-95821280D01*
X158990288Y-95823519D01*
X158990287Y-95823520D01*
X158979428Y-95829197D01*
X158812002Y-95916726D01*
X158808231Y-95919758D01*
X158655220Y-96042781D01*
X158655217Y-96042783D01*
X158651447Y-96045815D01*
X158648333Y-96049526D01*
X158648332Y-96049527D01*
X158551340Y-96165118D01*
X158519024Y-96203630D01*
X158516689Y-96207878D01*
X158516688Y-96207879D01*
X158509955Y-96220126D01*
X158419776Y-96384162D01*
X158418313Y-96388775D01*
X158418311Y-96388779D01*
X158405397Y-96429490D01*
X158357484Y-96580532D01*
X158356944Y-96585344D01*
X158356944Y-96585345D01*
X158350617Y-96641757D01*
X158334520Y-96785262D01*
X155050500Y-96785262D01*
X155050500Y-95112966D01*
X155051945Y-95100332D01*
X155051933Y-95100331D01*
X155052513Y-95092957D01*
X155054185Y-95085745D01*
X155050747Y-95037190D01*
X155050500Y-95030198D01*
X155050500Y-95016150D01*
X155050167Y-95013933D01*
X155050000Y-95009460D01*
X155050000Y-93174909D01*
X155050305Y-93167142D01*
X155050347Y-93166605D01*
X155050500Y-93164663D01*
X155050500Y-93111459D01*
X155050576Y-93107572D01*
X155052548Y-93057397D01*
X155052548Y-93057394D01*
X155052838Y-93050006D01*
X155051041Y-93043228D01*
X155050500Y-93033403D01*
X155050500Y-90380945D01*
X155069407Y-90322754D01*
X155118907Y-90286790D01*
X155180093Y-90286790D01*
X155225283Y-90317243D01*
X155270931Y-90371549D01*
X155270934Y-90371551D01*
X155275470Y-90376948D01*
X155281341Y-90380856D01*
X155281342Y-90380857D01*
X155313044Y-90401960D01*
X155394813Y-90456390D01*
X155495420Y-90487821D01*
X155524925Y-90497039D01*
X155524926Y-90497039D01*
X155531657Y-90499142D01*
X155605026Y-90500487D01*
X155649624Y-90501305D01*
X155707458Y-90521276D01*
X155717813Y-90530284D01*
X157320504Y-92132975D01*
X157348281Y-92187492D01*
X157349500Y-92202979D01*
X157349500Y-93846492D01*
X157349197Y-93850617D01*
X157347575Y-93855342D01*
X157349282Y-93900809D01*
X157349430Y-93904761D01*
X157349500Y-93908474D01*
X157349500Y-93927948D01*
X157350325Y-93932378D01*
X157350661Y-93937571D01*
X157351774Y-93967208D01*
X157355380Y-93975602D01*
X157355381Y-93975605D01*
X157356317Y-93977783D01*
X157362683Y-93998734D01*
X157364791Y-94010053D01*
X157369588Y-94017835D01*
X157378768Y-94032728D01*
X157385451Y-94045595D01*
X157395964Y-94070063D01*
X157399978Y-94074949D01*
X157404342Y-94079313D01*
X157418613Y-94097368D01*
X157423532Y-94105348D01*
X157446769Y-94123018D01*
X157456839Y-94131810D01*
X157759680Y-94434651D01*
X157762380Y-94437780D01*
X157764575Y-94442269D01*
X157771278Y-94448487D01*
X157800822Y-94475893D01*
X157803498Y-94478469D01*
X157817277Y-94492248D01*
X157820987Y-94494793D01*
X157824900Y-94498229D01*
X157846646Y-94518401D01*
X157855132Y-94521787D01*
X157855134Y-94521788D01*
X157857337Y-94522667D01*
X157876648Y-94532978D01*
X157878607Y-94534322D01*
X157878610Y-94534323D01*
X157886146Y-94539493D01*
X157895038Y-94541603D01*
X157895040Y-94541604D01*
X157912066Y-94545644D01*
X157925885Y-94550014D01*
X157950622Y-94559883D01*
X157956915Y-94560500D01*
X157963085Y-94560500D01*
X157985941Y-94563175D01*
X157995066Y-94565340D01*
X158023988Y-94561404D01*
X158037337Y-94560500D01*
X158308684Y-94560500D01*
X158366875Y-94579407D01*
X158403849Y-94632213D01*
X158408544Y-94648586D01*
X158502712Y-94831818D01*
X158630677Y-94993270D01*
X158634357Y-94996402D01*
X158634359Y-94996404D01*
X158730660Y-95078362D01*
X158787564Y-95126791D01*
X158791787Y-95129151D01*
X158791791Y-95129154D01*
X158908702Y-95194493D01*
X158967398Y-95227297D01*
X158971996Y-95228791D01*
X159158724Y-95289463D01*
X159158726Y-95289464D01*
X159163329Y-95290959D01*
X159367894Y-95315351D01*
X159372716Y-95314980D01*
X159372719Y-95314980D01*
X159440541Y-95309761D01*
X159573300Y-95299546D01*
X159771725Y-95244145D01*
X159776038Y-95241966D01*
X159776044Y-95241964D01*
X159951289Y-95153441D01*
X159951291Y-95153440D01*
X159955610Y-95151258D01*
X159993448Y-95121696D01*
X160114135Y-95027406D01*
X160114139Y-95027402D01*
X160117951Y-95024424D01*
X160121900Y-95019850D01*
X160186662Y-94944821D01*
X160252564Y-94868472D01*
X160271231Y-94835613D01*
X160351934Y-94693550D01*
X160351935Y-94693547D01*
X160354323Y-94689344D01*
X160359185Y-94674730D01*
X160417824Y-94498454D01*
X160417824Y-94498452D01*
X160419351Y-94493863D01*
X160445171Y-94289474D01*
X160445583Y-94260000D01*
X160426960Y-94070063D01*
X160425952Y-94059780D01*
X160425951Y-94059776D01*
X160425480Y-94054970D01*
X160420633Y-94038914D01*
X160367333Y-93862380D01*
X160365935Y-93857749D01*
X160269218Y-93675849D01*
X160139011Y-93516200D01*
X159980275Y-93384882D01*
X159799055Y-93286897D01*
X159735855Y-93267333D01*
X159606875Y-93227407D01*
X159606871Y-93227406D01*
X159602254Y-93225977D01*
X159597446Y-93225472D01*
X159597443Y-93225471D01*
X159402185Y-93204949D01*
X159402183Y-93204949D01*
X159397369Y-93204443D01*
X159337354Y-93209905D01*
X159197022Y-93222675D01*
X159197017Y-93222676D01*
X159192203Y-93223114D01*
X158994572Y-93281280D01*
X158990288Y-93283519D01*
X158990287Y-93283520D01*
X158979428Y-93289197D01*
X158812002Y-93376726D01*
X158808231Y-93379758D01*
X158655220Y-93502781D01*
X158655217Y-93502783D01*
X158651447Y-93505815D01*
X158648333Y-93509526D01*
X158648332Y-93509527D01*
X158639585Y-93519952D01*
X158519024Y-93663630D01*
X158516689Y-93667878D01*
X158516688Y-93667879D01*
X158509955Y-93680126D01*
X158419776Y-93844162D01*
X158418313Y-93848774D01*
X158405098Y-93890434D01*
X158369481Y-93940184D01*
X158310732Y-93959500D01*
X158175479Y-93959500D01*
X158117288Y-93940593D01*
X158105475Y-93930504D01*
X157979496Y-93804525D01*
X157951719Y-93750008D01*
X157950500Y-93734521D01*
X157950500Y-92091008D01*
X157950803Y-92086883D01*
X157952425Y-92082158D01*
X157950570Y-92032739D01*
X157950500Y-92029026D01*
X157950500Y-92009552D01*
X157949675Y-92005122D01*
X157949338Y-91999917D01*
X157948569Y-91979425D01*
X157948226Y-91970292D01*
X157944620Y-91961898D01*
X157944619Y-91961895D01*
X157943683Y-91959717D01*
X157937317Y-91938766D01*
X157935209Y-91927447D01*
X157921232Y-91904771D01*
X157914548Y-91891904D01*
X157909178Y-91879405D01*
X158247898Y-91879405D01*
X158248995Y-91896145D01*
X158250408Y-91905064D01*
X158300200Y-92101121D01*
X158303220Y-92109649D01*
X158387904Y-92293341D01*
X158392422Y-92301167D01*
X158509171Y-92466363D01*
X158515035Y-92473229D01*
X158659931Y-92614381D01*
X158666954Y-92620068D01*
X158835138Y-92732446D01*
X158843093Y-92736764D01*
X159028929Y-92816606D01*
X159037540Y-92819404D01*
X159229830Y-92862914D01*
X159237167Y-92860840D01*
X159239787Y-92857514D01*
X159240000Y-92856317D01*
X159240000Y-92844679D01*
X159540000Y-92844679D01*
X159544122Y-92857364D01*
X159545292Y-92858215D01*
X159551272Y-92858725D01*
X159655115Y-92843668D01*
X159663914Y-92841556D01*
X159855450Y-92776538D01*
X159863714Y-92772858D01*
X160040194Y-92674026D01*
X160047652Y-92668900D01*
X160203157Y-92539568D01*
X160209568Y-92533157D01*
X160338900Y-92377652D01*
X160344026Y-92370194D01*
X160442858Y-92193714D01*
X160446538Y-92185450D01*
X160511556Y-91993914D01*
X160513668Y-91985115D01*
X160528109Y-91885518D01*
X160525850Y-91872372D01*
X160524815Y-91871363D01*
X160518968Y-91870000D01*
X159555680Y-91870000D01*
X159542995Y-91874122D01*
X159540000Y-91878243D01*
X159540000Y-92844679D01*
X159240000Y-92844679D01*
X159240000Y-91885680D01*
X159235878Y-91872995D01*
X159231757Y-91870000D01*
X158262962Y-91870000D01*
X158250277Y-91874122D01*
X158248202Y-91876978D01*
X158247898Y-91879405D01*
X157909178Y-91879405D01*
X157906795Y-91873858D01*
X157906794Y-91873857D01*
X157904036Y-91867437D01*
X157900022Y-91862551D01*
X157895658Y-91858187D01*
X157881387Y-91840132D01*
X157881264Y-91839933D01*
X157876468Y-91832152D01*
X157853231Y-91814482D01*
X157843161Y-91805690D01*
X157591899Y-91554428D01*
X158251487Y-91554428D01*
X158254090Y-91567511D01*
X158255663Y-91568965D01*
X158260378Y-91570000D01*
X159224320Y-91570000D01*
X159237005Y-91565878D01*
X159240000Y-91561757D01*
X159240000Y-91554320D01*
X159540000Y-91554320D01*
X159544122Y-91567005D01*
X159548243Y-91570000D01*
X160515464Y-91570000D01*
X160528149Y-91565878D01*
X160529818Y-91563582D01*
X160530222Y-91559966D01*
X160526003Y-91514048D01*
X160524356Y-91505164D01*
X160469449Y-91310481D01*
X160466208Y-91302037D01*
X160376745Y-91120624D01*
X160372020Y-91112914D01*
X160250994Y-90950840D01*
X160244945Y-90944122D01*
X160096405Y-90806814D01*
X160089240Y-90801315D01*
X159918163Y-90693374D01*
X159910110Y-90689271D01*
X159722229Y-90614314D01*
X159713571Y-90611749D01*
X159555379Y-90580283D01*
X159542132Y-90581851D01*
X159542100Y-90581881D01*
X159540000Y-90589928D01*
X159540000Y-91554320D01*
X159240000Y-91554320D01*
X159240000Y-90594517D01*
X159235878Y-90581832D01*
X159235274Y-90581393D01*
X159228127Y-90580877D01*
X159095559Y-90603657D01*
X159086823Y-90605998D01*
X158897050Y-90676009D01*
X158888887Y-90679902D01*
X158715047Y-90783326D01*
X158707745Y-90788631D01*
X158555657Y-90922010D01*
X158549434Y-90928568D01*
X158424209Y-91087415D01*
X158419284Y-91094998D01*
X158325097Y-91274018D01*
X158321643Y-91282358D01*
X158261658Y-91475538D01*
X158259777Y-91484389D01*
X158251487Y-91554428D01*
X157591899Y-91554428D01*
X156144271Y-90106800D01*
X156116494Y-90052283D01*
X156116648Y-90020366D01*
X156117362Y-90016125D01*
X156117363Y-90016119D01*
X156117996Y-90012354D01*
X156118147Y-90000000D01*
X156097823Y-89858082D01*
X156057991Y-89770476D01*
X156051118Y-89709678D01*
X156081293Y-89656451D01*
X156136992Y-89631127D01*
X156148113Y-89630500D01*
X158379933Y-89630500D01*
X158438124Y-89649407D01*
X158467985Y-89684247D01*
X158502712Y-89751818D01*
X158630677Y-89913270D01*
X158634357Y-89916402D01*
X158634359Y-89916404D01*
X158725327Y-89993823D01*
X158787564Y-90046791D01*
X158791787Y-90049151D01*
X158791791Y-90049154D01*
X158831342Y-90071258D01*
X158967398Y-90147297D01*
X158971996Y-90148791D01*
X159158724Y-90209463D01*
X159158726Y-90209464D01*
X159163329Y-90210959D01*
X159367894Y-90235351D01*
X159372716Y-90234980D01*
X159372719Y-90234980D01*
X159440541Y-90229761D01*
X159573300Y-90219546D01*
X159771725Y-90164145D01*
X159776038Y-90161966D01*
X159776044Y-90161964D01*
X159951289Y-90073441D01*
X159951291Y-90073440D01*
X159955610Y-90071258D01*
X159990943Y-90043653D01*
X160114135Y-89947406D01*
X160114139Y-89947402D01*
X160117951Y-89944424D01*
X160130704Y-89929650D01*
X160215190Y-89831770D01*
X160252564Y-89788472D01*
X160271231Y-89755613D01*
X160351934Y-89613550D01*
X160351935Y-89613547D01*
X160354323Y-89609344D01*
X160360510Y-89590747D01*
X160417824Y-89418454D01*
X160417824Y-89418452D01*
X160419351Y-89413863D01*
X160421028Y-89400593D01*
X160444823Y-89212228D01*
X160445171Y-89209474D01*
X160445583Y-89180000D01*
X160443667Y-89160454D01*
X160425952Y-88979780D01*
X160425951Y-88979776D01*
X160425480Y-88974970D01*
X160411604Y-88929009D01*
X160367333Y-88782380D01*
X160365935Y-88777749D01*
X160269218Y-88595849D01*
X160139011Y-88436200D01*
X160095246Y-88399994D01*
X159984002Y-88307965D01*
X159984000Y-88307964D01*
X159980275Y-88304882D01*
X159799055Y-88206897D01*
X159735855Y-88187333D01*
X159606875Y-88147407D01*
X159606871Y-88147406D01*
X159602254Y-88145977D01*
X159597446Y-88145472D01*
X159597443Y-88145471D01*
X159402185Y-88124949D01*
X159402183Y-88124949D01*
X159397369Y-88124443D01*
X159337354Y-88129905D01*
X159197022Y-88142675D01*
X159197017Y-88142676D01*
X159192203Y-88143114D01*
X158994572Y-88201280D01*
X158990288Y-88203519D01*
X158990287Y-88203520D01*
X158979428Y-88209197D01*
X158812002Y-88296726D01*
X158808231Y-88299758D01*
X158655220Y-88422781D01*
X158655217Y-88422783D01*
X158651447Y-88425815D01*
X158648333Y-88429526D01*
X158648332Y-88429527D01*
X158522139Y-88579917D01*
X158522136Y-88579921D01*
X158519024Y-88583630D01*
X158516692Y-88587873D01*
X158516690Y-88587875D01*
X158467038Y-88678193D01*
X158422435Y-88720078D01*
X158380283Y-88729500D01*
X155149500Y-88729500D01*
X155091309Y-88710593D01*
X155055345Y-88661093D01*
X155050500Y-88630500D01*
X155050500Y-88577611D01*
X155069407Y-88519420D01*
X155079496Y-88507607D01*
X155208584Y-88378519D01*
X155262595Y-88352120D01*
X155262499Y-88351770D01*
X155400817Y-88314060D01*
X155522991Y-88239045D01*
X155555147Y-88203520D01*
X155614468Y-88137982D01*
X155619200Y-88132754D01*
X155681710Y-88003733D01*
X155685875Y-87978982D01*
X155704862Y-87866124D01*
X155704862Y-87866120D01*
X155705496Y-87862354D01*
X155705647Y-87850000D01*
X155685323Y-87708082D01*
X155625984Y-87577572D01*
X155532400Y-87468963D01*
X155412095Y-87390985D01*
X155274739Y-87349907D01*
X155191497Y-87349398D01*
X155138427Y-87349074D01*
X155138426Y-87349074D01*
X155131376Y-87349031D01*
X155124599Y-87350968D01*
X155124598Y-87350968D01*
X155000306Y-87386491D01*
X154993529Y-87388428D01*
X154989220Y-87391147D01*
X154950092Y-87399500D01*
X154699905Y-87399500D01*
X154662565Y-87391290D01*
X154662095Y-87390985D01*
X154655337Y-87388964D01*
X154655335Y-87388963D01*
X154531500Y-87351929D01*
X154524739Y-87349907D01*
X154441497Y-87349398D01*
X154388427Y-87349074D01*
X154388426Y-87349074D01*
X154381376Y-87349031D01*
X154374599Y-87350968D01*
X154374598Y-87350968D01*
X154250309Y-87386490D01*
X154250307Y-87386491D01*
X154243529Y-87388428D01*
X154122280Y-87464930D01*
X154117613Y-87470214D01*
X154117611Y-87470216D01*
X154032044Y-87567103D01*
X154032042Y-87567105D01*
X154027377Y-87572388D01*
X154024381Y-87578770D01*
X154024380Y-87578771D01*
X154010987Y-87607297D01*
X153966447Y-87702163D01*
X153944391Y-87843823D01*
X153945306Y-87850820D01*
X153945306Y-87850821D01*
X153946814Y-87862354D01*
X153962980Y-87985979D01*
X153965821Y-87992435D01*
X153965821Y-87992436D01*
X153973586Y-88010082D01*
X154020720Y-88117203D01*
X154112970Y-88226948D01*
X154116999Y-88229630D01*
X154147265Y-88281636D01*
X154149500Y-88302554D01*
X154149500Y-88338541D01*
X154149424Y-88342428D01*
X154147162Y-88399994D01*
X154148959Y-88406772D01*
X154149500Y-88416597D01*
X154149500Y-88917373D01*
X154148814Y-88929009D01*
X154144636Y-88964310D01*
X154145965Y-88971586D01*
X154145965Y-88971589D01*
X154147889Y-88982121D01*
X154149500Y-88999908D01*
X154149500Y-89388541D01*
X154149424Y-89392428D01*
X154147162Y-89449994D01*
X154148959Y-89456772D01*
X154149500Y-89466597D01*
X154149500Y-92685373D01*
X154130593Y-92743564D01*
X154113878Y-92761427D01*
X154073031Y-92795466D01*
X154072344Y-92796034D01*
X153010879Y-93664505D01*
X153010871Y-93664512D01*
X153009661Y-93665502D01*
X153008504Y-93666580D01*
X152992060Y-93681895D01*
X152992051Y-93681904D01*
X152990886Y-93682989D01*
X152973484Y-93701420D01*
X152928695Y-93776922D01*
X152909788Y-93835113D01*
X152909179Y-93838957D01*
X152909178Y-93838962D01*
X152905138Y-93864476D01*
X152900000Y-93896915D01*
X152900000Y-94450500D01*
X152881093Y-94508691D01*
X152831593Y-94544655D01*
X152801000Y-94549500D01*
X151616706Y-94549500D01*
X151605070Y-94548814D01*
X151603533Y-94548632D01*
X151569769Y-94544636D01*
X151511646Y-94555251D01*
X151508599Y-94555758D01*
X151485207Y-94559275D01*
X151457432Y-94563451D01*
X151457431Y-94563451D01*
X151450117Y-94564551D01*
X151443607Y-94567677D01*
X151436506Y-94568974D01*
X151416421Y-94579407D01*
X151384084Y-94596204D01*
X151381306Y-94597592D01*
X151334679Y-94619983D01*
X151334675Y-94619985D01*
X151328000Y-94623191D01*
X151323561Y-94627295D01*
X151321300Y-94628819D01*
X151316291Y-94631420D01*
X151311251Y-94635724D01*
X151273606Y-94673369D01*
X151270804Y-94676062D01*
X151228523Y-94715146D01*
X151225002Y-94721208D01*
X151218447Y-94728528D01*
X150624512Y-95322464D01*
X150615798Y-95330206D01*
X150608667Y-95335828D01*
X150587890Y-95352207D01*
X150554292Y-95400820D01*
X150552488Y-95403343D01*
X150517366Y-95450895D01*
X150514973Y-95457711D01*
X150510869Y-95463648D01*
X150509019Y-95469497D01*
X150466857Y-95512994D01*
X150420543Y-95524496D01*
X148247453Y-95524496D01*
X148210116Y-95516287D01*
X148209643Y-95515981D01*
X148185084Y-95508637D01*
X148143447Y-95483792D01*
X147479496Y-94819841D01*
X147451719Y-94765324D01*
X147450500Y-94749837D01*
X147450500Y-89682626D01*
X147451186Y-89670990D01*
X147454494Y-89643037D01*
X147455364Y-89635689D01*
X147444743Y-89577534D01*
X147444244Y-89574541D01*
X147435449Y-89516038D01*
X147432322Y-89509525D01*
X147431025Y-89502426D01*
X147403795Y-89450005D01*
X147402406Y-89447226D01*
X147380013Y-89400593D01*
X147380013Y-89400592D01*
X147376809Y-89393921D01*
X147372705Y-89389481D01*
X147371180Y-89387218D01*
X147368579Y-89382211D01*
X147364275Y-89377172D01*
X147326643Y-89339540D01*
X147323949Y-89336737D01*
X147289876Y-89299876D01*
X147289873Y-89299874D01*
X147284854Y-89294444D01*
X147278790Y-89290922D01*
X147271465Y-89284362D01*
X144612365Y-86625262D01*
X158334520Y-86625262D01*
X158334925Y-86630082D01*
X158350810Y-86819248D01*
X158351759Y-86830553D01*
X158353092Y-86835201D01*
X158353092Y-86835202D01*
X158396982Y-86988263D01*
X158408544Y-87028586D01*
X158502712Y-87211818D01*
X158630677Y-87373270D01*
X158634357Y-87376402D01*
X158634359Y-87376404D01*
X158733956Y-87461167D01*
X158787564Y-87506791D01*
X158791787Y-87509151D01*
X158791791Y-87509154D01*
X158831342Y-87531258D01*
X158967398Y-87607297D01*
X158971996Y-87608791D01*
X159158724Y-87669463D01*
X159158726Y-87669464D01*
X159163329Y-87670959D01*
X159367894Y-87695351D01*
X159372716Y-87694980D01*
X159372719Y-87694980D01*
X159440541Y-87689761D01*
X159573300Y-87679546D01*
X159771725Y-87624145D01*
X159776038Y-87621966D01*
X159776044Y-87621964D01*
X159951289Y-87533441D01*
X159951291Y-87533440D01*
X159955610Y-87531258D01*
X159990943Y-87503653D01*
X160114135Y-87407406D01*
X160114139Y-87407402D01*
X160117951Y-87404424D01*
X160122202Y-87399500D01*
X160177313Y-87335651D01*
X160252564Y-87248472D01*
X160271231Y-87215613D01*
X160351934Y-87073550D01*
X160351935Y-87073547D01*
X160354323Y-87069344D01*
X160363873Y-87040638D01*
X160417824Y-86878454D01*
X160417824Y-86878452D01*
X160419351Y-86873863D01*
X160425831Y-86822573D01*
X160444823Y-86672228D01*
X160445171Y-86669474D01*
X160445583Y-86640000D01*
X160443667Y-86620454D01*
X160425952Y-86439780D01*
X160425951Y-86439776D01*
X160425480Y-86434970D01*
X160365935Y-86237749D01*
X160269218Y-86055849D01*
X160139011Y-85896200D01*
X159980275Y-85764882D01*
X159799055Y-85666897D01*
X159735855Y-85647333D01*
X159606875Y-85607407D01*
X159606871Y-85607406D01*
X159602254Y-85605977D01*
X159597446Y-85605472D01*
X159597443Y-85605471D01*
X159402185Y-85584949D01*
X159402183Y-85584949D01*
X159397369Y-85584443D01*
X159337354Y-85589905D01*
X159197022Y-85602675D01*
X159197017Y-85602676D01*
X159192203Y-85603114D01*
X158994572Y-85661280D01*
X158990288Y-85663519D01*
X158990287Y-85663520D01*
X158979428Y-85669197D01*
X158812002Y-85756726D01*
X158808231Y-85759758D01*
X158655220Y-85882781D01*
X158655217Y-85882783D01*
X158651447Y-85885815D01*
X158648333Y-85889526D01*
X158648332Y-85889527D01*
X158639585Y-85899952D01*
X158519024Y-86043630D01*
X158516689Y-86047878D01*
X158516688Y-86047879D01*
X158509955Y-86060126D01*
X158419776Y-86224162D01*
X158357484Y-86420532D01*
X158356944Y-86425344D01*
X158356944Y-86425345D01*
X158354472Y-86447389D01*
X158334520Y-86625262D01*
X144612365Y-86625262D01*
X144504496Y-86517393D01*
X144476719Y-86462876D01*
X144475500Y-86447389D01*
X144475500Y-84085262D01*
X158334520Y-84085262D01*
X158351759Y-84290553D01*
X158408544Y-84488586D01*
X158502712Y-84671818D01*
X158630677Y-84833270D01*
X158634357Y-84836402D01*
X158634359Y-84836404D01*
X158747017Y-84932283D01*
X158787564Y-84966791D01*
X158791787Y-84969151D01*
X158791791Y-84969154D01*
X158831342Y-84991258D01*
X158967398Y-85067297D01*
X158971996Y-85068791D01*
X159158724Y-85129463D01*
X159158726Y-85129464D01*
X159163329Y-85130959D01*
X159367894Y-85155351D01*
X159372716Y-85154980D01*
X159372719Y-85154980D01*
X159440541Y-85149761D01*
X159573300Y-85139546D01*
X159771725Y-85084145D01*
X159776038Y-85081966D01*
X159776044Y-85081964D01*
X159951289Y-84993441D01*
X159951291Y-84993440D01*
X159955610Y-84991258D01*
X159990943Y-84963653D01*
X160114135Y-84867406D01*
X160114139Y-84867402D01*
X160117951Y-84864424D01*
X160252564Y-84708472D01*
X160271231Y-84675613D01*
X160351934Y-84533550D01*
X160351935Y-84533547D01*
X160354323Y-84529344D01*
X160367882Y-84488586D01*
X160417824Y-84338454D01*
X160417824Y-84338452D01*
X160419351Y-84333863D01*
X160445171Y-84129474D01*
X160445583Y-84100000D01*
X160425480Y-83894970D01*
X160365935Y-83697749D01*
X160269218Y-83515849D01*
X160139011Y-83356200D01*
X159980275Y-83224882D01*
X159799055Y-83126897D01*
X159735855Y-83107333D01*
X159606875Y-83067407D01*
X159606871Y-83067406D01*
X159602254Y-83065977D01*
X159597446Y-83065472D01*
X159597443Y-83065471D01*
X159402185Y-83044949D01*
X159402183Y-83044949D01*
X159397369Y-83044443D01*
X159337354Y-83049905D01*
X159197022Y-83062675D01*
X159197017Y-83062676D01*
X159192203Y-83063114D01*
X158994572Y-83121280D01*
X158990288Y-83123519D01*
X158990287Y-83123520D01*
X158979428Y-83129197D01*
X158812002Y-83216726D01*
X158808231Y-83219758D01*
X158655220Y-83342781D01*
X158655217Y-83342783D01*
X158651447Y-83345815D01*
X158648333Y-83349526D01*
X158648332Y-83349527D01*
X158639585Y-83359952D01*
X158519024Y-83503630D01*
X158516689Y-83507878D01*
X158516688Y-83507879D01*
X158509955Y-83520126D01*
X158419776Y-83684162D01*
X158357484Y-83880532D01*
X158356944Y-83885344D01*
X158356944Y-83885345D01*
X158355865Y-83894970D01*
X158334520Y-84085262D01*
X144475500Y-84085262D01*
X144475500Y-81545262D01*
X158334520Y-81545262D01*
X158351759Y-81750553D01*
X158408544Y-81948586D01*
X158502712Y-82131818D01*
X158630677Y-82293270D01*
X158634357Y-82296402D01*
X158634359Y-82296404D01*
X158747017Y-82392283D01*
X158787564Y-82426791D01*
X158791787Y-82429151D01*
X158791791Y-82429154D01*
X158831342Y-82451258D01*
X158967398Y-82527297D01*
X158971996Y-82528791D01*
X159158724Y-82589463D01*
X159158726Y-82589464D01*
X159163329Y-82590959D01*
X159367894Y-82615351D01*
X159372716Y-82614980D01*
X159372719Y-82614980D01*
X159440541Y-82609761D01*
X159573300Y-82599546D01*
X159771725Y-82544145D01*
X159776038Y-82541966D01*
X159776044Y-82541964D01*
X159951289Y-82453441D01*
X159951291Y-82453440D01*
X159955610Y-82451258D01*
X159990943Y-82423653D01*
X160114135Y-82327406D01*
X160114139Y-82327402D01*
X160117951Y-82324424D01*
X160252564Y-82168472D01*
X160271231Y-82135613D01*
X160351934Y-81993550D01*
X160351935Y-81993547D01*
X160354323Y-81989344D01*
X160367882Y-81948586D01*
X160417824Y-81798454D01*
X160417824Y-81798452D01*
X160419351Y-81793863D01*
X160445171Y-81589474D01*
X160445583Y-81560000D01*
X160425480Y-81354970D01*
X160365935Y-81157749D01*
X160269218Y-80975849D01*
X160139011Y-80816200D01*
X159980275Y-80684882D01*
X159799055Y-80586897D01*
X159735855Y-80567333D01*
X159606875Y-80527407D01*
X159606871Y-80527406D01*
X159602254Y-80525977D01*
X159597446Y-80525472D01*
X159597443Y-80525471D01*
X159402185Y-80504949D01*
X159402183Y-80504949D01*
X159397369Y-80504443D01*
X159337354Y-80509905D01*
X159197022Y-80522675D01*
X159197017Y-80522676D01*
X159192203Y-80523114D01*
X158994572Y-80581280D01*
X158990288Y-80583519D01*
X158990287Y-80583520D01*
X158979428Y-80589197D01*
X158812002Y-80676726D01*
X158808231Y-80679758D01*
X158655220Y-80802781D01*
X158655217Y-80802783D01*
X158651447Y-80805815D01*
X158648333Y-80809526D01*
X158648332Y-80809527D01*
X158639585Y-80819952D01*
X158519024Y-80963630D01*
X158516689Y-80967878D01*
X158516688Y-80967879D01*
X158509955Y-80980126D01*
X158419776Y-81144162D01*
X158357484Y-81340532D01*
X158356944Y-81345344D01*
X158356944Y-81345345D01*
X158355865Y-81354970D01*
X158334520Y-81545262D01*
X144475500Y-81545262D01*
X144475500Y-79005262D01*
X158334520Y-79005262D01*
X158351759Y-79210553D01*
X158408544Y-79408586D01*
X158502712Y-79591818D01*
X158630677Y-79753270D01*
X158634357Y-79756402D01*
X158634359Y-79756404D01*
X158747017Y-79852283D01*
X158787564Y-79886791D01*
X158791787Y-79889151D01*
X158791791Y-79889154D01*
X158831342Y-79911258D01*
X158967398Y-79987297D01*
X158971996Y-79988791D01*
X159158724Y-80049463D01*
X159158726Y-80049464D01*
X159163329Y-80050959D01*
X159367894Y-80075351D01*
X159372716Y-80074980D01*
X159372719Y-80074980D01*
X159440541Y-80069761D01*
X159573300Y-80059546D01*
X159771725Y-80004145D01*
X159776038Y-80001966D01*
X159776044Y-80001964D01*
X159951289Y-79913441D01*
X159951291Y-79913440D01*
X159955610Y-79911258D01*
X159990943Y-79883653D01*
X160114135Y-79787406D01*
X160114139Y-79787402D01*
X160117951Y-79784424D01*
X160252564Y-79628472D01*
X160271231Y-79595613D01*
X160351934Y-79453550D01*
X160351935Y-79453547D01*
X160354323Y-79449344D01*
X160367882Y-79408586D01*
X160417824Y-79258454D01*
X160417824Y-79258452D01*
X160419351Y-79253863D01*
X160445171Y-79049474D01*
X160445583Y-79020000D01*
X160425480Y-78814970D01*
X160365935Y-78617749D01*
X160269218Y-78435849D01*
X160139011Y-78276200D01*
X159980275Y-78144882D01*
X159799055Y-78046897D01*
X159735855Y-78027333D01*
X159606875Y-77987407D01*
X159606871Y-77987406D01*
X159602254Y-77985977D01*
X159597446Y-77985472D01*
X159597443Y-77985471D01*
X159402185Y-77964949D01*
X159402183Y-77964949D01*
X159397369Y-77964443D01*
X159337354Y-77969905D01*
X159197022Y-77982675D01*
X159197017Y-77982676D01*
X159192203Y-77983114D01*
X158994572Y-78041280D01*
X158990288Y-78043519D01*
X158990287Y-78043520D01*
X158979428Y-78049197D01*
X158812002Y-78136726D01*
X158808231Y-78139758D01*
X158655220Y-78262781D01*
X158655217Y-78262783D01*
X158651447Y-78265815D01*
X158648333Y-78269526D01*
X158648332Y-78269527D01*
X158639585Y-78279952D01*
X158519024Y-78423630D01*
X158516689Y-78427878D01*
X158516688Y-78427879D01*
X158509955Y-78440126D01*
X158419776Y-78604162D01*
X158357484Y-78800532D01*
X158356944Y-78805344D01*
X158356944Y-78805345D01*
X158355865Y-78814970D01*
X158334520Y-79005262D01*
X144475500Y-79005262D01*
X144475500Y-76722356D01*
X145380000Y-76722356D01*
X145380309Y-76727885D01*
X145394327Y-76852855D01*
X145396766Y-76863592D01*
X145452149Y-77022629D01*
X145456901Y-77032548D01*
X145546146Y-77175370D01*
X145552976Y-77183987D01*
X145671645Y-77303488D01*
X145680221Y-77310382D01*
X145822410Y-77400619D01*
X145832296Y-77405441D01*
X145990952Y-77461936D01*
X146001654Y-77464446D01*
X146014431Y-77465969D01*
X146027516Y-77463379D01*
X146028954Y-77461825D01*
X146030000Y-77457069D01*
X146030000Y-77453006D01*
X146330000Y-77453006D01*
X146334122Y-77465691D01*
X146336137Y-77467156D01*
X146340348Y-77467598D01*
X146347373Y-77466860D01*
X146358114Y-77464498D01*
X146517536Y-77410227D01*
X146527496Y-77405540D01*
X146670931Y-77317299D01*
X146679599Y-77310527D01*
X146799925Y-77192694D01*
X146806876Y-77184171D01*
X146898108Y-77042609D01*
X146902995Y-77032763D01*
X146960596Y-76874504D01*
X146963183Y-76863810D01*
X146979610Y-76733775D01*
X146980000Y-76727587D01*
X146980000Y-76722356D01*
X154020000Y-76722356D01*
X154020309Y-76727885D01*
X154034327Y-76852855D01*
X154036766Y-76863592D01*
X154092149Y-77022629D01*
X154096901Y-77032548D01*
X154186146Y-77175370D01*
X154192976Y-77183987D01*
X154311645Y-77303488D01*
X154320221Y-77310382D01*
X154462410Y-77400619D01*
X154472296Y-77405441D01*
X154630952Y-77461936D01*
X154641654Y-77464446D01*
X154654431Y-77465969D01*
X154667516Y-77463379D01*
X154668954Y-77461825D01*
X154670000Y-77457069D01*
X154670000Y-77453006D01*
X154970000Y-77453006D01*
X154974122Y-77465691D01*
X154976137Y-77467156D01*
X154980348Y-77467598D01*
X154987373Y-77466860D01*
X154998114Y-77464498D01*
X155157536Y-77410227D01*
X155167496Y-77405540D01*
X155310931Y-77317299D01*
X155319599Y-77310527D01*
X155439925Y-77192694D01*
X155446876Y-77184171D01*
X155538108Y-77042609D01*
X155542995Y-77032763D01*
X155600596Y-76874504D01*
X155603183Y-76863810D01*
X155619610Y-76733775D01*
X155620000Y-76727587D01*
X155620000Y-76465262D01*
X158334520Y-76465262D01*
X158351759Y-76670553D01*
X158353092Y-76675201D01*
X158353092Y-76675202D01*
X158407175Y-76863810D01*
X158408544Y-76868586D01*
X158502712Y-77051818D01*
X158630677Y-77213270D01*
X158634357Y-77216402D01*
X158634359Y-77216404D01*
X158736683Y-77303488D01*
X158787564Y-77346791D01*
X158791787Y-77349151D01*
X158791791Y-77349154D01*
X158892683Y-77405540D01*
X158967398Y-77447297D01*
X158971996Y-77448791D01*
X159158724Y-77509463D01*
X159158726Y-77509464D01*
X159163329Y-77510959D01*
X159367894Y-77535351D01*
X159372716Y-77534980D01*
X159372719Y-77534980D01*
X159440541Y-77529761D01*
X159573300Y-77519546D01*
X159771725Y-77464145D01*
X159776038Y-77461966D01*
X159776044Y-77461964D01*
X159951289Y-77373441D01*
X159951291Y-77373440D01*
X159955610Y-77371258D01*
X160033343Y-77310527D01*
X160114135Y-77247406D01*
X160114139Y-77247402D01*
X160117951Y-77244424D01*
X160252564Y-77088472D01*
X160271231Y-77055613D01*
X160351934Y-76913550D01*
X160351935Y-76913547D01*
X160354323Y-76909344D01*
X160367882Y-76868586D01*
X160417824Y-76718454D01*
X160417824Y-76718452D01*
X160419351Y-76713863D01*
X160445171Y-76509474D01*
X160445583Y-76480000D01*
X160427511Y-76295680D01*
X160425952Y-76279780D01*
X160425951Y-76279776D01*
X160425480Y-76274970D01*
X160365935Y-76077749D01*
X160269218Y-75895849D01*
X160139011Y-75736200D01*
X159980275Y-75604882D01*
X159845695Y-75532115D01*
X159803309Y-75509197D01*
X159803308Y-75509197D01*
X159799055Y-75506897D01*
X159735855Y-75487333D01*
X159606875Y-75447407D01*
X159606871Y-75447406D01*
X159602254Y-75445977D01*
X159597446Y-75445472D01*
X159597443Y-75445471D01*
X159402185Y-75424949D01*
X159402183Y-75424949D01*
X159397369Y-75424443D01*
X159337354Y-75429905D01*
X159197022Y-75442675D01*
X159197017Y-75442676D01*
X159192203Y-75443114D01*
X158994572Y-75501280D01*
X158990288Y-75503519D01*
X158990287Y-75503520D01*
X158925015Y-75537644D01*
X158812002Y-75596726D01*
X158808231Y-75599758D01*
X158655220Y-75722781D01*
X158655217Y-75722783D01*
X158651447Y-75725815D01*
X158648333Y-75729526D01*
X158648332Y-75729527D01*
X158635480Y-75744844D01*
X158519024Y-75883630D01*
X158516689Y-75887878D01*
X158516688Y-75887879D01*
X158511454Y-75897399D01*
X158419776Y-76064162D01*
X158418313Y-76068775D01*
X158418311Y-76068779D01*
X158388708Y-76162100D01*
X158357484Y-76260532D01*
X158356944Y-76265344D01*
X158356944Y-76265345D01*
X158353542Y-76295680D01*
X158334520Y-76465262D01*
X155620000Y-76465262D01*
X155620000Y-76295680D01*
X155615878Y-76282995D01*
X155611757Y-76280000D01*
X154985680Y-76280000D01*
X154972995Y-76284122D01*
X154970000Y-76288243D01*
X154970000Y-77453006D01*
X154670000Y-77453006D01*
X154670000Y-76295680D01*
X154665878Y-76282995D01*
X154661757Y-76280000D01*
X154035680Y-76280000D01*
X154022995Y-76284122D01*
X154020000Y-76288243D01*
X154020000Y-76722356D01*
X146980000Y-76722356D01*
X146980000Y-76295680D01*
X146975878Y-76282995D01*
X146971757Y-76280000D01*
X146345680Y-76280000D01*
X146332995Y-76284122D01*
X146330000Y-76288243D01*
X146330000Y-77453006D01*
X146030000Y-77453006D01*
X146030000Y-76295680D01*
X146025878Y-76282995D01*
X146021757Y-76280000D01*
X145395680Y-76280000D01*
X145382995Y-76284122D01*
X145380000Y-76288243D01*
X145380000Y-76722356D01*
X144475500Y-76722356D01*
X144475500Y-75964320D01*
X145380000Y-75964320D01*
X145384122Y-75977005D01*
X145388243Y-75980000D01*
X146014320Y-75980000D01*
X146027005Y-75975878D01*
X146030000Y-75971757D01*
X146030000Y-75964320D01*
X146330000Y-75964320D01*
X146334122Y-75977005D01*
X146338243Y-75980000D01*
X146964320Y-75980000D01*
X146977006Y-75975878D01*
X146991958Y-75955298D01*
X147041459Y-75919334D01*
X147102644Y-75919334D01*
X147150592Y-75953221D01*
X147196696Y-76013304D01*
X147317750Y-76106192D01*
X147458720Y-76164584D01*
X147572020Y-76179500D01*
X147647980Y-76179500D01*
X147761280Y-76164584D01*
X147902250Y-76106192D01*
X148023304Y-76013304D01*
X148116192Y-75892250D01*
X148174584Y-75751280D01*
X148194500Y-75600000D01*
X152805500Y-75600000D01*
X152825416Y-75751280D01*
X152883808Y-75892250D01*
X152976696Y-76013304D01*
X153097750Y-76106192D01*
X153238720Y-76164584D01*
X153352020Y-76179500D01*
X153427980Y-76179500D01*
X153541280Y-76164584D01*
X153682250Y-76106192D01*
X153803304Y-76013304D01*
X153852169Y-75949622D01*
X153902594Y-75914966D01*
X153963758Y-75916568D01*
X154012300Y-75953815D01*
X154023520Y-75976568D01*
X154028243Y-75980000D01*
X154654320Y-75980000D01*
X154667005Y-75975878D01*
X154670000Y-75971757D01*
X154670000Y-75964320D01*
X154970000Y-75964320D01*
X154974122Y-75977005D01*
X154978243Y-75980000D01*
X155604320Y-75980000D01*
X155617005Y-75975878D01*
X155620000Y-75971757D01*
X155620000Y-75537644D01*
X155619691Y-75532115D01*
X155605673Y-75407145D01*
X155603234Y-75396408D01*
X155547851Y-75237371D01*
X155543099Y-75227452D01*
X155453854Y-75084630D01*
X155447024Y-75076013D01*
X155328355Y-74956512D01*
X155319779Y-74949618D01*
X155177590Y-74859381D01*
X155167704Y-74854559D01*
X155009048Y-74798064D01*
X154998346Y-74795554D01*
X154985569Y-74794031D01*
X154972484Y-74796621D01*
X154971046Y-74798175D01*
X154970000Y-74802931D01*
X154970000Y-75964320D01*
X154670000Y-75964320D01*
X154670000Y-74806994D01*
X154665878Y-74794309D01*
X154663863Y-74792844D01*
X154659652Y-74792402D01*
X154652627Y-74793140D01*
X154641886Y-74795502D01*
X154482464Y-74849773D01*
X154472504Y-74854460D01*
X154329069Y-74942701D01*
X154320401Y-74949473D01*
X154200075Y-75067306D01*
X154193124Y-75075829D01*
X154101892Y-75217391D01*
X154097005Y-75227237D01*
X154073620Y-75291486D01*
X154035950Y-75339701D01*
X153977135Y-75356566D01*
X153919639Y-75335639D01*
X153896917Y-75309500D01*
X153896192Y-75307750D01*
X153803304Y-75186696D01*
X153682250Y-75093808D01*
X153541280Y-75035416D01*
X153427980Y-75020500D01*
X153352020Y-75020500D01*
X153238720Y-75035416D01*
X153097750Y-75093808D01*
X152976696Y-75186696D01*
X152883808Y-75307750D01*
X152825416Y-75448720D01*
X152805500Y-75600000D01*
X148194500Y-75600000D01*
X148174584Y-75448720D01*
X148116192Y-75307750D01*
X148023304Y-75186696D01*
X147902250Y-75093808D01*
X147761280Y-75035416D01*
X147647980Y-75020500D01*
X147572020Y-75020500D01*
X147458720Y-75035416D01*
X147317750Y-75093808D01*
X147196696Y-75186696D01*
X147103808Y-75307750D01*
X147103536Y-75308408D01*
X147059879Y-75347716D01*
X146999029Y-75354110D01*
X146946041Y-75323517D01*
X146926120Y-75289832D01*
X146907851Y-75237370D01*
X146903099Y-75227452D01*
X146813854Y-75084630D01*
X146807024Y-75076013D01*
X146688355Y-74956512D01*
X146679779Y-74949618D01*
X146537590Y-74859381D01*
X146527704Y-74854559D01*
X146369048Y-74798064D01*
X146358346Y-74795554D01*
X146345569Y-74794031D01*
X146332484Y-74796621D01*
X146331046Y-74798175D01*
X146330000Y-74802931D01*
X146330000Y-75964320D01*
X146030000Y-75964320D01*
X146030000Y-74806994D01*
X146025878Y-74794309D01*
X146023863Y-74792844D01*
X146019652Y-74792402D01*
X146012627Y-74793140D01*
X146001886Y-74795502D01*
X145842464Y-74849773D01*
X145832504Y-74854460D01*
X145689069Y-74942701D01*
X145680401Y-74949473D01*
X145560075Y-75067306D01*
X145553124Y-75075829D01*
X145461892Y-75217391D01*
X145457005Y-75227237D01*
X145399404Y-75385496D01*
X145396817Y-75396190D01*
X145380390Y-75526225D01*
X145380000Y-75532413D01*
X145380000Y-75964320D01*
X144475500Y-75964320D01*
X144475500Y-74832627D01*
X144476186Y-74820991D01*
X144477587Y-74809154D01*
X144480364Y-74785690D01*
X144469749Y-74727567D01*
X144469240Y-74724510D01*
X144461549Y-74673353D01*
X144461549Y-74673352D01*
X144460449Y-74666038D01*
X144457323Y-74659528D01*
X144456026Y-74652427D01*
X144428796Y-74600005D01*
X144427408Y-74597227D01*
X144405017Y-74550600D01*
X144405015Y-74550596D01*
X144401809Y-74543921D01*
X144397706Y-74539483D01*
X144396181Y-74537220D01*
X144393580Y-74532212D01*
X144389275Y-74527172D01*
X144351643Y-74489540D01*
X144348949Y-74486737D01*
X144314876Y-74449876D01*
X144314873Y-74449874D01*
X144309854Y-74444444D01*
X144303790Y-74440922D01*
X144296465Y-74434362D01*
X143961508Y-74099405D01*
X158247898Y-74099405D01*
X158248995Y-74116145D01*
X158250408Y-74125064D01*
X158300200Y-74321121D01*
X158303220Y-74329649D01*
X158387904Y-74513341D01*
X158392422Y-74521167D01*
X158509171Y-74686363D01*
X158515035Y-74693229D01*
X158659931Y-74834381D01*
X158666954Y-74840068D01*
X158835138Y-74952446D01*
X158843093Y-74956764D01*
X159028929Y-75036606D01*
X159037540Y-75039404D01*
X159229830Y-75082914D01*
X159237167Y-75080840D01*
X159239787Y-75077514D01*
X159240000Y-75076317D01*
X159240000Y-75064679D01*
X159540000Y-75064679D01*
X159544122Y-75077364D01*
X159545292Y-75078215D01*
X159551272Y-75078725D01*
X159655115Y-75063668D01*
X159663914Y-75061556D01*
X159855450Y-74996538D01*
X159863714Y-74992858D01*
X160040194Y-74894026D01*
X160047652Y-74888900D01*
X160203157Y-74759568D01*
X160209568Y-74753157D01*
X160338900Y-74597652D01*
X160344026Y-74590194D01*
X160442858Y-74413714D01*
X160446538Y-74405450D01*
X160511556Y-74213914D01*
X160513668Y-74205115D01*
X160528109Y-74105518D01*
X160525850Y-74092372D01*
X160524815Y-74091363D01*
X160518968Y-74090000D01*
X159555680Y-74090000D01*
X159542995Y-74094122D01*
X159540000Y-74098243D01*
X159540000Y-75064679D01*
X159240000Y-75064679D01*
X159240000Y-74105680D01*
X159235878Y-74092995D01*
X159231757Y-74090000D01*
X158262962Y-74090000D01*
X158250277Y-74094122D01*
X158248202Y-74096978D01*
X158247898Y-74099405D01*
X143961508Y-74099405D01*
X143636531Y-73774428D01*
X158251487Y-73774428D01*
X158254090Y-73787511D01*
X158255663Y-73788965D01*
X158260378Y-73790000D01*
X159224320Y-73790000D01*
X159237005Y-73785878D01*
X159240000Y-73781757D01*
X159240000Y-73774320D01*
X159540000Y-73774320D01*
X159544122Y-73787005D01*
X159548243Y-73790000D01*
X160515464Y-73790000D01*
X160528149Y-73785878D01*
X160529818Y-73783582D01*
X160530222Y-73779966D01*
X160526003Y-73734048D01*
X160524356Y-73725164D01*
X160469449Y-73530481D01*
X160466208Y-73522037D01*
X160376745Y-73340624D01*
X160372020Y-73332914D01*
X160250994Y-73170840D01*
X160244945Y-73164122D01*
X160096405Y-73026814D01*
X160089240Y-73021315D01*
X159918163Y-72913374D01*
X159910110Y-72909271D01*
X159722229Y-72834314D01*
X159713571Y-72831749D01*
X159555379Y-72800283D01*
X159542132Y-72801851D01*
X159542100Y-72801881D01*
X159540000Y-72809928D01*
X159540000Y-73774320D01*
X159240000Y-73774320D01*
X159240000Y-72814517D01*
X159235878Y-72801832D01*
X159235274Y-72801393D01*
X159228127Y-72800877D01*
X159095559Y-72823657D01*
X159086823Y-72825998D01*
X158897050Y-72896009D01*
X158888887Y-72899902D01*
X158715047Y-73003326D01*
X158707745Y-73008631D01*
X158555657Y-73142010D01*
X158549434Y-73148568D01*
X158424209Y-73307415D01*
X158419284Y-73314998D01*
X158325097Y-73494018D01*
X158321643Y-73502358D01*
X158261658Y-73695538D01*
X158259777Y-73704389D01*
X158251487Y-73774428D01*
X143636531Y-73774428D01*
X143506619Y-73644516D01*
X143498877Y-73635803D01*
X143481453Y-73613701D01*
X143476872Y-73607890D01*
X143428251Y-73574286D01*
X143425728Y-73572483D01*
X143384139Y-73541764D01*
X143384137Y-73541763D01*
X143378184Y-73537366D01*
X143371368Y-73534973D01*
X143365431Y-73530869D01*
X143358372Y-73528636D01*
X143358371Y-73528636D01*
X143330795Y-73519915D01*
X143309071Y-73513044D01*
X143306186Y-73512082D01*
X143250369Y-73492481D01*
X143244327Y-73492244D01*
X143241653Y-73491723D01*
X143236270Y-73490020D01*
X143229663Y-73489500D01*
X143176459Y-73489500D01*
X143172572Y-73489424D01*
X143122397Y-73487452D01*
X143122394Y-73487452D01*
X143115006Y-73487162D01*
X143108228Y-73488959D01*
X143098403Y-73489500D01*
X142619766Y-73489500D01*
X142561575Y-73470593D01*
X142532354Y-73436977D01*
X142491492Y-73360126D01*
X142489218Y-73355849D01*
X142359011Y-73196200D01*
X142328356Y-73170840D01*
X142204002Y-73067965D01*
X142204000Y-73067964D01*
X142200275Y-73064882D01*
X142086429Y-73003326D01*
X142023309Y-72969197D01*
X142023308Y-72969197D01*
X142019055Y-72966897D01*
X141955855Y-72947333D01*
X141826875Y-72907407D01*
X141826871Y-72907406D01*
X141822254Y-72905977D01*
X141817446Y-72905472D01*
X141817443Y-72905471D01*
X141622185Y-72884949D01*
X141622183Y-72884949D01*
X141617369Y-72884443D01*
X141557354Y-72889905D01*
X141417022Y-72902675D01*
X141417017Y-72902676D01*
X141412203Y-72903114D01*
X141214572Y-72961280D01*
X141210288Y-72963519D01*
X141210287Y-72963520D01*
X141199428Y-72969197D01*
X141032002Y-73056726D01*
X141028231Y-73059758D01*
X140875220Y-73182781D01*
X140875217Y-73182783D01*
X140871447Y-73185815D01*
X140868333Y-73189526D01*
X140868332Y-73189527D01*
X140859585Y-73199952D01*
X140739024Y-73343630D01*
X140736689Y-73347878D01*
X140736688Y-73347879D01*
X140729955Y-73360126D01*
X140639776Y-73524162D01*
X140638313Y-73528775D01*
X140638311Y-73528779D01*
X140585413Y-73695538D01*
X140577484Y-73720532D01*
X140576944Y-73725344D01*
X140576944Y-73725345D01*
X140570617Y-73781757D01*
X140554520Y-73925262D01*
X140554925Y-73930082D01*
X140569657Y-74105518D01*
X140571759Y-74130553D01*
X140628544Y-74328586D01*
X140722712Y-74511818D01*
X140850677Y-74673270D01*
X140854357Y-74676402D01*
X140854359Y-74676404D01*
X140944544Y-74753157D01*
X141007564Y-74806791D01*
X141011787Y-74809151D01*
X141011791Y-74809154D01*
X141128702Y-74874493D01*
X141187398Y-74907297D01*
X141191996Y-74908791D01*
X141378724Y-74969463D01*
X141378726Y-74969464D01*
X141383329Y-74970959D01*
X141587894Y-74995351D01*
X141592716Y-74994980D01*
X141592719Y-74994980D01*
X141660541Y-74989761D01*
X141793300Y-74979546D01*
X141991725Y-74924145D01*
X141996038Y-74921966D01*
X141996044Y-74921964D01*
X142171289Y-74833441D01*
X142171291Y-74833440D01*
X142175610Y-74831258D01*
X142219944Y-74796621D01*
X142334135Y-74707406D01*
X142334139Y-74707402D01*
X142337951Y-74704424D01*
X142347615Y-74693229D01*
X142428082Y-74600005D01*
X142472564Y-74548472D01*
X142475150Y-74543921D01*
X142533844Y-74440600D01*
X142579027Y-74399342D01*
X142619924Y-74390500D01*
X142937389Y-74390500D01*
X142995580Y-74409407D01*
X143007393Y-74419496D01*
X143545504Y-74957607D01*
X143573281Y-75012124D01*
X143574500Y-75027611D01*
X143574500Y-86642373D01*
X143573814Y-86654009D01*
X143569636Y-86689310D01*
X143570965Y-86696586D01*
X143570965Y-86696589D01*
X143580248Y-86747414D01*
X143580758Y-86750476D01*
X143589551Y-86808962D01*
X143592679Y-86815475D01*
X143593975Y-86822573D01*
X143597386Y-86829139D01*
X143621198Y-86874980D01*
X143622588Y-86877762D01*
X143644987Y-86924408D01*
X143644989Y-86924411D01*
X143648191Y-86931079D01*
X143652297Y-86935521D01*
X143653820Y-86937781D01*
X143656421Y-86942788D01*
X143660725Y-86947828D01*
X143698357Y-86985460D01*
X143701051Y-86988263D01*
X143735124Y-87025124D01*
X143735127Y-87025126D01*
X143740146Y-87030556D01*
X143746210Y-87034078D01*
X143753535Y-87040638D01*
X145921277Y-89208380D01*
X145949054Y-89262897D01*
X145949095Y-89293611D01*
X145944391Y-89323823D01*
X145945306Y-89330820D01*
X145945306Y-89330821D01*
X145951188Y-89375805D01*
X145962980Y-89465979D01*
X145965821Y-89472435D01*
X145965821Y-89472436D01*
X146010025Y-89572896D01*
X146020720Y-89597203D01*
X146046953Y-89628411D01*
X146108431Y-89701549D01*
X146108434Y-89701551D01*
X146112970Y-89706948D01*
X146232313Y-89786390D01*
X146332920Y-89817821D01*
X146362425Y-89827039D01*
X146362426Y-89827039D01*
X146369157Y-89829142D01*
X146410414Y-89829898D01*
X146452315Y-89830667D01*
X146510149Y-89850638D01*
X146545200Y-89900789D01*
X146549500Y-89929650D01*
X146549500Y-94944821D01*
X146548814Y-94956457D01*
X146544636Y-94991758D01*
X146545965Y-94999034D01*
X146545965Y-94999037D01*
X146551572Y-95029736D01*
X146552934Y-95037190D01*
X146555248Y-95049862D01*
X146555758Y-95052924D01*
X146564551Y-95111410D01*
X146567679Y-95117923D01*
X146568975Y-95125021D01*
X146572386Y-95131587D01*
X146596198Y-95177428D01*
X146597588Y-95180210D01*
X146619987Y-95226856D01*
X146619989Y-95226859D01*
X146623191Y-95233527D01*
X146627297Y-95237969D01*
X146628820Y-95240229D01*
X146631421Y-95245236D01*
X146635725Y-95250276D01*
X146673357Y-95287908D01*
X146676051Y-95290711D01*
X146710124Y-95327572D01*
X146710127Y-95327574D01*
X146715146Y-95333004D01*
X146721210Y-95336526D01*
X146728535Y-95343086D01*
X147508478Y-96123029D01*
X147529089Y-96153160D01*
X147538663Y-96174918D01*
X147547048Y-96214791D01*
X147547048Y-98089486D01*
X147545603Y-98102120D01*
X147545615Y-98102121D01*
X147545035Y-98109495D01*
X147543363Y-98116707D01*
X147546511Y-98161165D01*
X147546801Y-98165262D01*
X147547048Y-98172254D01*
X147547048Y-98778695D01*
X147537664Y-98820766D01*
X147514571Y-98869951D01*
X147513486Y-98876920D01*
X147513485Y-98876923D01*
X147504680Y-98933476D01*
X147492515Y-99011611D01*
X147493430Y-99018608D01*
X147493430Y-99018609D01*
X147508976Y-99137494D01*
X147511104Y-99153767D01*
X147513945Y-99160223D01*
X147513945Y-99160224D01*
X147564449Y-99275002D01*
X147568844Y-99284991D01*
X147617417Y-99342776D01*
X147621601Y-99347753D01*
X147644571Y-99404463D01*
X147629821Y-99463844D01*
X147620022Y-99476989D01*
X147569388Y-99534321D01*
X147569386Y-99534323D01*
X147564721Y-99539606D01*
X147503791Y-99669381D01*
X147502706Y-99676350D01*
X147502705Y-99676353D01*
X147490665Y-99753686D01*
X147481735Y-99811041D01*
X147482650Y-99818038D01*
X147482650Y-99818040D01*
X147485451Y-99839460D01*
X147474249Y-99899611D01*
X147457291Y-99922300D01*
X145829087Y-101550504D01*
X145774570Y-101578281D01*
X145759083Y-101579500D01*
X142690179Y-101579500D01*
X142631988Y-101560593D01*
X142595405Y-101509116D01*
X142585935Y-101477749D01*
X142489218Y-101295849D01*
X142359011Y-101136200D01*
X142200275Y-101004882D01*
X142019055Y-100906897D01*
X141934449Y-100880707D01*
X141826875Y-100847407D01*
X141826871Y-100847406D01*
X141822254Y-100845977D01*
X141817446Y-100845472D01*
X141817443Y-100845471D01*
X141622185Y-100824949D01*
X141622183Y-100824949D01*
X141617369Y-100824443D01*
X141559053Y-100829750D01*
X141417022Y-100842675D01*
X141417017Y-100842676D01*
X141412203Y-100843114D01*
X141214572Y-100901280D01*
X141210288Y-100903519D01*
X141210287Y-100903520D01*
X141199428Y-100909197D01*
X141032002Y-100996726D01*
X141028231Y-100999758D01*
X140875220Y-101122781D01*
X140875217Y-101122783D01*
X140871447Y-101125815D01*
X140868333Y-101129526D01*
X140868332Y-101129527D01*
X140744012Y-101277686D01*
X140739024Y-101283630D01*
X140736689Y-101287878D01*
X140736688Y-101287879D01*
X140712830Y-101331276D01*
X140639776Y-101464162D01*
X140577484Y-101660532D01*
X140576944Y-101665344D01*
X140576944Y-101665345D01*
X140561689Y-101801352D01*
X140554520Y-101865262D01*
X140250000Y-101865262D01*
X140250000Y-99325262D01*
X140554520Y-99325262D01*
X140558000Y-99366699D01*
X140569834Y-99507626D01*
X140571759Y-99530553D01*
X140573092Y-99535201D01*
X140573092Y-99535202D01*
X140627208Y-99723928D01*
X140627209Y-99723931D01*
X140628544Y-99728586D01*
X140630759Y-99732896D01*
X140660824Y-99791396D01*
X140722712Y-99911818D01*
X140850677Y-100073270D01*
X140854357Y-100076402D01*
X140854359Y-100076404D01*
X140967017Y-100172283D01*
X141007564Y-100206791D01*
X141011787Y-100209151D01*
X141011791Y-100209154D01*
X141051342Y-100231258D01*
X141187398Y-100307297D01*
X141191996Y-100308791D01*
X141378724Y-100369463D01*
X141378726Y-100369464D01*
X141383329Y-100370959D01*
X141587894Y-100395351D01*
X141592716Y-100394980D01*
X141592719Y-100394980D01*
X141660541Y-100389761D01*
X141793300Y-100379546D01*
X141991725Y-100324145D01*
X141996038Y-100321966D01*
X141996044Y-100321964D01*
X142171289Y-100233441D01*
X142171291Y-100233440D01*
X142175610Y-100231258D01*
X142206927Y-100206791D01*
X142334135Y-100107406D01*
X142334139Y-100107402D01*
X142337951Y-100104424D01*
X142472564Y-99948472D01*
X142491231Y-99915613D01*
X142571934Y-99773550D01*
X142571935Y-99773547D01*
X142574323Y-99769344D01*
X142582084Y-99746016D01*
X142637824Y-99578454D01*
X142637824Y-99578452D01*
X142639351Y-99573863D01*
X142640965Y-99561091D01*
X142659613Y-99413467D01*
X142665171Y-99369474D01*
X142665583Y-99340000D01*
X142664138Y-99325262D01*
X142645952Y-99139780D01*
X142645951Y-99139776D01*
X142645480Y-99134970D01*
X142642433Y-99124876D01*
X142606652Y-99006366D01*
X142585935Y-98937749D01*
X142489218Y-98755849D01*
X142359011Y-98596200D01*
X142342790Y-98582781D01*
X142204002Y-98467965D01*
X142204000Y-98467964D01*
X142200275Y-98464882D01*
X142019055Y-98366897D01*
X141955855Y-98347333D01*
X141826875Y-98307407D01*
X141826871Y-98307406D01*
X141822254Y-98305977D01*
X141817446Y-98305472D01*
X141817443Y-98305471D01*
X141622185Y-98284949D01*
X141622183Y-98284949D01*
X141617369Y-98284443D01*
X141557354Y-98289905D01*
X141417022Y-98302675D01*
X141417017Y-98302676D01*
X141412203Y-98303114D01*
X141214572Y-98361280D01*
X141210288Y-98363519D01*
X141210287Y-98363520D01*
X141199428Y-98369197D01*
X141032002Y-98456726D01*
X141028231Y-98459758D01*
X140875220Y-98582781D01*
X140875217Y-98582783D01*
X140871447Y-98585815D01*
X140868333Y-98589526D01*
X140868332Y-98589527D01*
X140814364Y-98653844D01*
X140739024Y-98743630D01*
X140736689Y-98747878D01*
X140736688Y-98747879D01*
X140731456Y-98757396D01*
X140639776Y-98924162D01*
X140638313Y-98928775D01*
X140638311Y-98928779D01*
X140607369Y-99026321D01*
X140577484Y-99120532D01*
X140576944Y-99125344D01*
X140576944Y-99125345D01*
X140557293Y-99300542D01*
X140554520Y-99325262D01*
X140250000Y-99325262D01*
X140250000Y-96959405D01*
X140467898Y-96959405D01*
X140468995Y-96976145D01*
X140470408Y-96985064D01*
X140520200Y-97181121D01*
X140523220Y-97189649D01*
X140607904Y-97373341D01*
X140612422Y-97381167D01*
X140729171Y-97546363D01*
X140735035Y-97553229D01*
X140879931Y-97694381D01*
X140886954Y-97700068D01*
X141055138Y-97812446D01*
X141063093Y-97816764D01*
X141248929Y-97896606D01*
X141257540Y-97899404D01*
X141449830Y-97942914D01*
X141457167Y-97940840D01*
X141459787Y-97937514D01*
X141460000Y-97936317D01*
X141460000Y-97924679D01*
X141760000Y-97924679D01*
X141764122Y-97937364D01*
X141765292Y-97938215D01*
X141771272Y-97938725D01*
X141875115Y-97923668D01*
X141883914Y-97921556D01*
X142075450Y-97856538D01*
X142083714Y-97852858D01*
X142260194Y-97754026D01*
X142267652Y-97748900D01*
X142423157Y-97619568D01*
X142429568Y-97613157D01*
X142558900Y-97457652D01*
X142564026Y-97450194D01*
X142662858Y-97273714D01*
X142666538Y-97265450D01*
X142731556Y-97073914D01*
X142733668Y-97065115D01*
X142748109Y-96965518D01*
X142745850Y-96952372D01*
X142744815Y-96951363D01*
X142738968Y-96950000D01*
X141775680Y-96950000D01*
X141762995Y-96954122D01*
X141760000Y-96958243D01*
X141760000Y-97924679D01*
X141460000Y-97924679D01*
X141460000Y-96965680D01*
X141455878Y-96952995D01*
X141451757Y-96950000D01*
X140482962Y-96950000D01*
X140470277Y-96954122D01*
X140468202Y-96956978D01*
X140467898Y-96959405D01*
X140250000Y-96959405D01*
X140250000Y-96634428D01*
X140471487Y-96634428D01*
X140474090Y-96647511D01*
X140475663Y-96648965D01*
X140480378Y-96650000D01*
X141444320Y-96650000D01*
X141457005Y-96645878D01*
X141460000Y-96641757D01*
X141460000Y-96634320D01*
X141760000Y-96634320D01*
X141764122Y-96647005D01*
X141768243Y-96650000D01*
X142735464Y-96650000D01*
X142748149Y-96645878D01*
X142749818Y-96643582D01*
X142750222Y-96639966D01*
X142746003Y-96594048D01*
X142744356Y-96585164D01*
X142689449Y-96390481D01*
X142686208Y-96382037D01*
X142596745Y-96200624D01*
X142592020Y-96192914D01*
X142470994Y-96030840D01*
X142464945Y-96024122D01*
X142316405Y-95886814D01*
X142309240Y-95881315D01*
X142138163Y-95773374D01*
X142130110Y-95769271D01*
X141942229Y-95694314D01*
X141933571Y-95691749D01*
X141775379Y-95660283D01*
X141762132Y-95661851D01*
X141762100Y-95661881D01*
X141760000Y-95669928D01*
X141760000Y-96634320D01*
X141460000Y-96634320D01*
X141460000Y-95674517D01*
X141455878Y-95661832D01*
X141455274Y-95661393D01*
X141448127Y-95660877D01*
X141315559Y-95683657D01*
X141306823Y-95685998D01*
X141117050Y-95756009D01*
X141108887Y-95759902D01*
X140935047Y-95863326D01*
X140927745Y-95868631D01*
X140775657Y-96002010D01*
X140769434Y-96008568D01*
X140644209Y-96167415D01*
X140639284Y-96174998D01*
X140545097Y-96354018D01*
X140541643Y-96362358D01*
X140481658Y-96555538D01*
X140479777Y-96564389D01*
X140471487Y-96634428D01*
X140250000Y-96634428D01*
X140250000Y-94245262D01*
X140554520Y-94245262D01*
X140554925Y-94250082D01*
X140570424Y-94434651D01*
X140571759Y-94450553D01*
X140573092Y-94455201D01*
X140573092Y-94455202D01*
X140627208Y-94643926D01*
X140628544Y-94648586D01*
X140722712Y-94831818D01*
X140850677Y-94993270D01*
X140854357Y-94996402D01*
X140854359Y-94996404D01*
X140950660Y-95078362D01*
X141007564Y-95126791D01*
X141011787Y-95129151D01*
X141011791Y-95129154D01*
X141128702Y-95194493D01*
X141187398Y-95227297D01*
X141191996Y-95228791D01*
X141378724Y-95289463D01*
X141378726Y-95289464D01*
X141383329Y-95290959D01*
X141587894Y-95315351D01*
X141592716Y-95314980D01*
X141592719Y-95314980D01*
X141660541Y-95309761D01*
X141793300Y-95299546D01*
X141991725Y-95244145D01*
X141996042Y-95241964D01*
X141996048Y-95241962D01*
X142045655Y-95216904D01*
X142106120Y-95207544D01*
X142160295Y-95235266D01*
X143146575Y-96221546D01*
X143174352Y-96276063D01*
X143175571Y-96291550D01*
X143175571Y-97701262D01*
X143156664Y-97759453D01*
X143148132Y-97768666D01*
X143148351Y-97768859D01*
X143058115Y-97871032D01*
X143058113Y-97871034D01*
X143053448Y-97876317D01*
X143050452Y-97882699D01*
X143050451Y-97882700D01*
X143032208Y-97921556D01*
X142992518Y-98006092D01*
X142970462Y-98147752D01*
X142971377Y-98154749D01*
X142971377Y-98154750D01*
X142972752Y-98165262D01*
X142989051Y-98289908D01*
X142991892Y-98296364D01*
X142991892Y-98296365D01*
X142999657Y-98314011D01*
X143046791Y-98421132D01*
X143083567Y-98464882D01*
X143134502Y-98525478D01*
X143134505Y-98525480D01*
X143139041Y-98530877D01*
X143144912Y-98534785D01*
X143144913Y-98534786D01*
X143157214Y-98542974D01*
X143258384Y-98610319D01*
X143327616Y-98631948D01*
X143388496Y-98650968D01*
X143388497Y-98650968D01*
X143395228Y-98653071D01*
X143466899Y-98654385D01*
X143531516Y-98655570D01*
X143531518Y-98655570D01*
X143538570Y-98655699D01*
X143545373Y-98653844D01*
X143545375Y-98653844D01*
X143662693Y-98621859D01*
X143676888Y-98617989D01*
X143799062Y-98542974D01*
X143806474Y-98534786D01*
X143890539Y-98441911D01*
X143895271Y-98436683D01*
X143957781Y-98307662D01*
X143961603Y-98284949D01*
X143980933Y-98170053D01*
X143980933Y-98170049D01*
X143981567Y-98166283D01*
X143981718Y-98153929D01*
X143961394Y-98012011D01*
X143927841Y-97938215D01*
X143904976Y-97887925D01*
X143904975Y-97887924D01*
X143902055Y-97881501D01*
X143820407Y-97786744D01*
X143813078Y-97778238D01*
X143813076Y-97778236D01*
X143808471Y-97772892D01*
X143808583Y-97772795D01*
X143779069Y-97723478D01*
X143776571Y-97701378D01*
X143776571Y-96179579D01*
X143776874Y-96175454D01*
X143778496Y-96170729D01*
X143776641Y-96121308D01*
X143776571Y-96117595D01*
X143776571Y-96098123D01*
X143775746Y-96093693D01*
X143775409Y-96088488D01*
X143774993Y-96077389D01*
X143774297Y-96058863D01*
X143770691Y-96050469D01*
X143770690Y-96050466D01*
X143769754Y-96048288D01*
X143763388Y-96027337D01*
X143761280Y-96016018D01*
X143747303Y-95993342D01*
X143740619Y-95980475D01*
X143732866Y-95962429D01*
X143732865Y-95962428D01*
X143730107Y-95956008D01*
X143726093Y-95951122D01*
X143721729Y-95946758D01*
X143707458Y-95928703D01*
X143707335Y-95928504D01*
X143702539Y-95920723D01*
X143679302Y-95903053D01*
X143669232Y-95894261D01*
X142587798Y-94812827D01*
X142560021Y-94758310D01*
X142570908Y-94698397D01*
X142569963Y-94697976D01*
X142571688Y-94694101D01*
X142571720Y-94693926D01*
X142574323Y-94689344D01*
X142579185Y-94674730D01*
X142637824Y-94498454D01*
X142637824Y-94498452D01*
X142639351Y-94493863D01*
X142665171Y-94289474D01*
X142665583Y-94260000D01*
X142646960Y-94070063D01*
X142645952Y-94059780D01*
X142645951Y-94059776D01*
X142645480Y-94054970D01*
X142640633Y-94038914D01*
X142587333Y-93862380D01*
X142585935Y-93857749D01*
X142489218Y-93675849D01*
X142359011Y-93516200D01*
X142200275Y-93384882D01*
X142019055Y-93286897D01*
X141955855Y-93267333D01*
X141826875Y-93227407D01*
X141826871Y-93227406D01*
X141822254Y-93225977D01*
X141817446Y-93225472D01*
X141817443Y-93225471D01*
X141622185Y-93204949D01*
X141622183Y-93204949D01*
X141617369Y-93204443D01*
X141557354Y-93209905D01*
X141417022Y-93222675D01*
X141417017Y-93222676D01*
X141412203Y-93223114D01*
X141214572Y-93281280D01*
X141210288Y-93283519D01*
X141210287Y-93283520D01*
X141199428Y-93289197D01*
X141032002Y-93376726D01*
X141028231Y-93379758D01*
X140875220Y-93502781D01*
X140875217Y-93502783D01*
X140871447Y-93505815D01*
X140868333Y-93509526D01*
X140868332Y-93509527D01*
X140859585Y-93519952D01*
X140739024Y-93663630D01*
X140736689Y-93667878D01*
X140736688Y-93667879D01*
X140729955Y-93680126D01*
X140639776Y-93844162D01*
X140638313Y-93848774D01*
X140638311Y-93848779D01*
X140612387Y-93930504D01*
X140577484Y-94040532D01*
X140576944Y-94045344D01*
X140576944Y-94045345D01*
X140567246Y-94131810D01*
X140554520Y-94245262D01*
X140250000Y-94245262D01*
X140250000Y-91705262D01*
X140554520Y-91705262D01*
X140554925Y-91710082D01*
X140571274Y-91904772D01*
X140571759Y-91910553D01*
X140573092Y-91915201D01*
X140573092Y-91915202D01*
X140623504Y-92091008D01*
X140628544Y-92108586D01*
X140722712Y-92291818D01*
X140850677Y-92453270D01*
X140854357Y-92456402D01*
X140854359Y-92456404D01*
X140944544Y-92533157D01*
X141007564Y-92586791D01*
X141011787Y-92589151D01*
X141011791Y-92589154D01*
X141051342Y-92611258D01*
X141187398Y-92687297D01*
X141191996Y-92688791D01*
X141378724Y-92749463D01*
X141378726Y-92749464D01*
X141383329Y-92750959D01*
X141587894Y-92775351D01*
X141592716Y-92774980D01*
X141592719Y-92774980D01*
X141660541Y-92769761D01*
X141793300Y-92759546D01*
X141991725Y-92704145D01*
X141996038Y-92701966D01*
X141996044Y-92701964D01*
X142171289Y-92613441D01*
X142171291Y-92613440D01*
X142175610Y-92611258D01*
X142267370Y-92539568D01*
X142334135Y-92487406D01*
X142334139Y-92487402D01*
X142337951Y-92484424D01*
X142347615Y-92473229D01*
X142436551Y-92370194D01*
X142472564Y-92328472D01*
X142474957Y-92324260D01*
X142571934Y-92153550D01*
X142571935Y-92153547D01*
X142574323Y-92149344D01*
X142579769Y-92132975D01*
X142637824Y-91958454D01*
X142637824Y-91958452D01*
X142639351Y-91953863D01*
X142646643Y-91896145D01*
X142664823Y-91752228D01*
X142665171Y-91749474D01*
X142665583Y-91720000D01*
X142650876Y-91570000D01*
X142645952Y-91519780D01*
X142645951Y-91519776D01*
X142645480Y-91514970D01*
X142642520Y-91505164D01*
X142587333Y-91322380D01*
X142585935Y-91317749D01*
X142489218Y-91135849D01*
X142359011Y-90976200D01*
X142328356Y-90950840D01*
X142204002Y-90847965D01*
X142204000Y-90847964D01*
X142200275Y-90844882D01*
X142019055Y-90746897D01*
X141955855Y-90727333D01*
X141826875Y-90687407D01*
X141826871Y-90687406D01*
X141822254Y-90685977D01*
X141817446Y-90685472D01*
X141817443Y-90685471D01*
X141622185Y-90664949D01*
X141622183Y-90664949D01*
X141617369Y-90664443D01*
X141557354Y-90669905D01*
X141417022Y-90682675D01*
X141417017Y-90682676D01*
X141412203Y-90683114D01*
X141214572Y-90741280D01*
X141210288Y-90743519D01*
X141210287Y-90743520D01*
X141199428Y-90749197D01*
X141032002Y-90836726D01*
X141028231Y-90839758D01*
X140875220Y-90962781D01*
X140875217Y-90962783D01*
X140871447Y-90965815D01*
X140868333Y-90969526D01*
X140868332Y-90969527D01*
X140859585Y-90979952D01*
X140739024Y-91123630D01*
X140736689Y-91127878D01*
X140736688Y-91127879D01*
X140729955Y-91140126D01*
X140639776Y-91304162D01*
X140638313Y-91308775D01*
X140638311Y-91308779D01*
X140636821Y-91313476D01*
X140577484Y-91500532D01*
X140576944Y-91505344D01*
X140576944Y-91505345D01*
X140570617Y-91561757D01*
X140554520Y-91705262D01*
X140250000Y-91705262D01*
X140250000Y-89165262D01*
X140554520Y-89165262D01*
X140554925Y-89170082D01*
X140569155Y-89339540D01*
X140571759Y-89370553D01*
X140573092Y-89375201D01*
X140573092Y-89375202D01*
X140612048Y-89511056D01*
X140628544Y-89568586D01*
X140722712Y-89751818D01*
X140850677Y-89913270D01*
X140854357Y-89916402D01*
X140854359Y-89916404D01*
X140945327Y-89993823D01*
X141007564Y-90046791D01*
X141011787Y-90049151D01*
X141011791Y-90049154D01*
X141051342Y-90071258D01*
X141187398Y-90147297D01*
X141191996Y-90148791D01*
X141378724Y-90209463D01*
X141378726Y-90209464D01*
X141383329Y-90210959D01*
X141587894Y-90235351D01*
X141592716Y-90234980D01*
X141592719Y-90234980D01*
X141660541Y-90229761D01*
X141793300Y-90219546D01*
X141991725Y-90164145D01*
X141996038Y-90161966D01*
X141996044Y-90161964D01*
X142171289Y-90073441D01*
X142171291Y-90073440D01*
X142175610Y-90071258D01*
X142210943Y-90043653D01*
X142334135Y-89947406D01*
X142334139Y-89947402D01*
X142337951Y-89944424D01*
X142350704Y-89929650D01*
X142435190Y-89831770D01*
X142472564Y-89788472D01*
X142491231Y-89755613D01*
X142571934Y-89613550D01*
X142571935Y-89613547D01*
X142574323Y-89609344D01*
X142580510Y-89590747D01*
X142637824Y-89418454D01*
X142637824Y-89418452D01*
X142639351Y-89413863D01*
X142641028Y-89400593D01*
X142664823Y-89212228D01*
X142665171Y-89209474D01*
X142665583Y-89180000D01*
X142663667Y-89160454D01*
X142645952Y-88979780D01*
X142645951Y-88979776D01*
X142645480Y-88974970D01*
X142631604Y-88929009D01*
X142587333Y-88782380D01*
X142585935Y-88777749D01*
X142489218Y-88595849D01*
X142359011Y-88436200D01*
X142315246Y-88399994D01*
X142204002Y-88307965D01*
X142204000Y-88307964D01*
X142200275Y-88304882D01*
X142019055Y-88206897D01*
X141955855Y-88187333D01*
X141826875Y-88147407D01*
X141826871Y-88147406D01*
X141822254Y-88145977D01*
X141817446Y-88145472D01*
X141817443Y-88145471D01*
X141622185Y-88124949D01*
X141622183Y-88124949D01*
X141617369Y-88124443D01*
X141557354Y-88129905D01*
X141417022Y-88142675D01*
X141417017Y-88142676D01*
X141412203Y-88143114D01*
X141214572Y-88201280D01*
X141210288Y-88203519D01*
X141210287Y-88203520D01*
X141199428Y-88209197D01*
X141032002Y-88296726D01*
X141028231Y-88299758D01*
X140875220Y-88422781D01*
X140875217Y-88422783D01*
X140871447Y-88425815D01*
X140868333Y-88429526D01*
X140868332Y-88429527D01*
X140744075Y-88577611D01*
X140739024Y-88583630D01*
X140736689Y-88587878D01*
X140736688Y-88587879D01*
X140729955Y-88600126D01*
X140639776Y-88764162D01*
X140577484Y-88960532D01*
X140576944Y-88965344D01*
X140576944Y-88965345D01*
X140575865Y-88974970D01*
X140554520Y-89165262D01*
X140250000Y-89165262D01*
X140250000Y-86625262D01*
X140554520Y-86625262D01*
X140554925Y-86630082D01*
X140570810Y-86819248D01*
X140571759Y-86830553D01*
X140573092Y-86835201D01*
X140573092Y-86835202D01*
X140616982Y-86988263D01*
X140628544Y-87028586D01*
X140722712Y-87211818D01*
X140850677Y-87373270D01*
X140854357Y-87376402D01*
X140854359Y-87376404D01*
X140953956Y-87461167D01*
X141007564Y-87506791D01*
X141011787Y-87509151D01*
X141011791Y-87509154D01*
X141051342Y-87531258D01*
X141187398Y-87607297D01*
X141191996Y-87608791D01*
X141378724Y-87669463D01*
X141378726Y-87669464D01*
X141383329Y-87670959D01*
X141587894Y-87695351D01*
X141592716Y-87694980D01*
X141592719Y-87694980D01*
X141660541Y-87689761D01*
X141793300Y-87679546D01*
X141991725Y-87624145D01*
X141996038Y-87621966D01*
X141996044Y-87621964D01*
X142171289Y-87533441D01*
X142171291Y-87533440D01*
X142175610Y-87531258D01*
X142210943Y-87503653D01*
X142334135Y-87407406D01*
X142334139Y-87407402D01*
X142337951Y-87404424D01*
X142342202Y-87399500D01*
X142397313Y-87335651D01*
X142472564Y-87248472D01*
X142491231Y-87215613D01*
X142571934Y-87073550D01*
X142571935Y-87073547D01*
X142574323Y-87069344D01*
X142583873Y-87040638D01*
X142637824Y-86878454D01*
X142637824Y-86878452D01*
X142639351Y-86873863D01*
X142645831Y-86822573D01*
X142664823Y-86672228D01*
X142665171Y-86669474D01*
X142665583Y-86640000D01*
X142663667Y-86620454D01*
X142645952Y-86439780D01*
X142645951Y-86439776D01*
X142645480Y-86434970D01*
X142585935Y-86237749D01*
X142489218Y-86055849D01*
X142359011Y-85896200D01*
X142200275Y-85764882D01*
X142019055Y-85666897D01*
X141955855Y-85647333D01*
X141826875Y-85607407D01*
X141826871Y-85607406D01*
X141822254Y-85605977D01*
X141817446Y-85605472D01*
X141817443Y-85605471D01*
X141622185Y-85584949D01*
X141622183Y-85584949D01*
X141617369Y-85584443D01*
X141557354Y-85589905D01*
X141417022Y-85602675D01*
X141417017Y-85602676D01*
X141412203Y-85603114D01*
X141214572Y-85661280D01*
X141210288Y-85663519D01*
X141210287Y-85663520D01*
X141199428Y-85669197D01*
X141032002Y-85756726D01*
X141028231Y-85759758D01*
X140875220Y-85882781D01*
X140875217Y-85882783D01*
X140871447Y-85885815D01*
X140868333Y-85889526D01*
X140868332Y-85889527D01*
X140859585Y-85899952D01*
X140739024Y-86043630D01*
X140736689Y-86047878D01*
X140736688Y-86047879D01*
X140729955Y-86060126D01*
X140639776Y-86224162D01*
X140577484Y-86420532D01*
X140576944Y-86425344D01*
X140576944Y-86425345D01*
X140574472Y-86447389D01*
X140554520Y-86625262D01*
X140250000Y-86625262D01*
X140250000Y-84085262D01*
X140554520Y-84085262D01*
X140571759Y-84290553D01*
X140628544Y-84488586D01*
X140722712Y-84671818D01*
X140850677Y-84833270D01*
X140854357Y-84836402D01*
X140854359Y-84836404D01*
X140967017Y-84932283D01*
X141007564Y-84966791D01*
X141011787Y-84969151D01*
X141011791Y-84969154D01*
X141051342Y-84991258D01*
X141187398Y-85067297D01*
X141191996Y-85068791D01*
X141378724Y-85129463D01*
X141378726Y-85129464D01*
X141383329Y-85130959D01*
X141587894Y-85155351D01*
X141592716Y-85154980D01*
X141592719Y-85154980D01*
X141660541Y-85149761D01*
X141793300Y-85139546D01*
X141991725Y-85084145D01*
X141996038Y-85081966D01*
X141996044Y-85081964D01*
X142171289Y-84993441D01*
X142171291Y-84993440D01*
X142175610Y-84991258D01*
X142210943Y-84963653D01*
X142334135Y-84867406D01*
X142334139Y-84867402D01*
X142337951Y-84864424D01*
X142472564Y-84708472D01*
X142491231Y-84675613D01*
X142571934Y-84533550D01*
X142571935Y-84533547D01*
X142574323Y-84529344D01*
X142587882Y-84488586D01*
X142637824Y-84338454D01*
X142637824Y-84338452D01*
X142639351Y-84333863D01*
X142665171Y-84129474D01*
X142665583Y-84100000D01*
X142645480Y-83894970D01*
X142585935Y-83697749D01*
X142489218Y-83515849D01*
X142359011Y-83356200D01*
X142200275Y-83224882D01*
X142019055Y-83126897D01*
X141955855Y-83107333D01*
X141826875Y-83067407D01*
X141826871Y-83067406D01*
X141822254Y-83065977D01*
X141817446Y-83065472D01*
X141817443Y-83065471D01*
X141622185Y-83044949D01*
X141622183Y-83044949D01*
X141617369Y-83044443D01*
X141557354Y-83049905D01*
X141417022Y-83062675D01*
X141417017Y-83062676D01*
X141412203Y-83063114D01*
X141214572Y-83121280D01*
X141210288Y-83123519D01*
X141210287Y-83123520D01*
X141199428Y-83129197D01*
X141032002Y-83216726D01*
X141028231Y-83219758D01*
X140875220Y-83342781D01*
X140875217Y-83342783D01*
X140871447Y-83345815D01*
X140868333Y-83349526D01*
X140868332Y-83349527D01*
X140859585Y-83359952D01*
X140739024Y-83503630D01*
X140736689Y-83507878D01*
X140736688Y-83507879D01*
X140729955Y-83520126D01*
X140639776Y-83684162D01*
X140577484Y-83880532D01*
X140576944Y-83885344D01*
X140576944Y-83885345D01*
X140575865Y-83894970D01*
X140554520Y-84085262D01*
X140250000Y-84085262D01*
X140250000Y-81545262D01*
X140554520Y-81545262D01*
X140571759Y-81750553D01*
X140628544Y-81948586D01*
X140722712Y-82131818D01*
X140850677Y-82293270D01*
X140854357Y-82296402D01*
X140854359Y-82296404D01*
X140967017Y-82392283D01*
X141007564Y-82426791D01*
X141011787Y-82429151D01*
X141011791Y-82429154D01*
X141051342Y-82451258D01*
X141187398Y-82527297D01*
X141191996Y-82528791D01*
X141378724Y-82589463D01*
X141378726Y-82589464D01*
X141383329Y-82590959D01*
X141587894Y-82615351D01*
X141592716Y-82614980D01*
X141592719Y-82614980D01*
X141660541Y-82609761D01*
X141793300Y-82599546D01*
X141991725Y-82544145D01*
X141996038Y-82541966D01*
X141996044Y-82541964D01*
X142171289Y-82453441D01*
X142171291Y-82453440D01*
X142175610Y-82451258D01*
X142210943Y-82423653D01*
X142334135Y-82327406D01*
X142334139Y-82327402D01*
X142337951Y-82324424D01*
X142472564Y-82168472D01*
X142491231Y-82135613D01*
X142571934Y-81993550D01*
X142571935Y-81993547D01*
X142574323Y-81989344D01*
X142587882Y-81948586D01*
X142637824Y-81798454D01*
X142637824Y-81798452D01*
X142639351Y-81793863D01*
X142665171Y-81589474D01*
X142665583Y-81560000D01*
X142645480Y-81354970D01*
X142585935Y-81157749D01*
X142489218Y-80975849D01*
X142359011Y-80816200D01*
X142200275Y-80684882D01*
X142019055Y-80586897D01*
X141955855Y-80567333D01*
X141826875Y-80527407D01*
X141826871Y-80527406D01*
X141822254Y-80525977D01*
X141817446Y-80525472D01*
X141817443Y-80525471D01*
X141622185Y-80504949D01*
X141622183Y-80504949D01*
X141617369Y-80504443D01*
X141557354Y-80509905D01*
X141417022Y-80522675D01*
X141417017Y-80522676D01*
X141412203Y-80523114D01*
X141214572Y-80581280D01*
X141210288Y-80583519D01*
X141210287Y-80583520D01*
X141199428Y-80589197D01*
X141032002Y-80676726D01*
X141028231Y-80679758D01*
X140875220Y-80802781D01*
X140875217Y-80802783D01*
X140871447Y-80805815D01*
X140868333Y-80809526D01*
X140868332Y-80809527D01*
X140859585Y-80819952D01*
X140739024Y-80963630D01*
X140736689Y-80967878D01*
X140736688Y-80967879D01*
X140729955Y-80980126D01*
X140639776Y-81144162D01*
X140577484Y-81340532D01*
X140576944Y-81345344D01*
X140576944Y-81345345D01*
X140575865Y-81354970D01*
X140554520Y-81545262D01*
X140250000Y-81545262D01*
X140250000Y-79005262D01*
X140554520Y-79005262D01*
X140571759Y-79210553D01*
X140628544Y-79408586D01*
X140722712Y-79591818D01*
X140850677Y-79753270D01*
X140854357Y-79756402D01*
X140854359Y-79756404D01*
X140967017Y-79852283D01*
X141007564Y-79886791D01*
X141011787Y-79889151D01*
X141011791Y-79889154D01*
X141051342Y-79911258D01*
X141187398Y-79987297D01*
X141191996Y-79988791D01*
X141378724Y-80049463D01*
X141378726Y-80049464D01*
X141383329Y-80050959D01*
X141587894Y-80075351D01*
X141592716Y-80074980D01*
X141592719Y-80074980D01*
X141660541Y-80069761D01*
X141793300Y-80059546D01*
X141991725Y-80004145D01*
X141996038Y-80001966D01*
X141996044Y-80001964D01*
X142171289Y-79913441D01*
X142171291Y-79913440D01*
X142175610Y-79911258D01*
X142210943Y-79883653D01*
X142334135Y-79787406D01*
X142334139Y-79787402D01*
X142337951Y-79784424D01*
X142472564Y-79628472D01*
X142491231Y-79595613D01*
X142571934Y-79453550D01*
X142571935Y-79453547D01*
X142574323Y-79449344D01*
X142587882Y-79408586D01*
X142637824Y-79258454D01*
X142637824Y-79258452D01*
X142639351Y-79253863D01*
X142665171Y-79049474D01*
X142665583Y-79020000D01*
X142645480Y-78814970D01*
X142585935Y-78617749D01*
X142489218Y-78435849D01*
X142359011Y-78276200D01*
X142200275Y-78144882D01*
X142019055Y-78046897D01*
X141955855Y-78027333D01*
X141826875Y-77987407D01*
X141826871Y-77987406D01*
X141822254Y-77985977D01*
X141817446Y-77985472D01*
X141817443Y-77985471D01*
X141622185Y-77964949D01*
X141622183Y-77964949D01*
X141617369Y-77964443D01*
X141557354Y-77969905D01*
X141417022Y-77982675D01*
X141417017Y-77982676D01*
X141412203Y-77983114D01*
X141214572Y-78041280D01*
X141210288Y-78043519D01*
X141210287Y-78043520D01*
X141199428Y-78049197D01*
X141032002Y-78136726D01*
X141028231Y-78139758D01*
X140875220Y-78262781D01*
X140875217Y-78262783D01*
X140871447Y-78265815D01*
X140868333Y-78269526D01*
X140868332Y-78269527D01*
X140859585Y-78279952D01*
X140739024Y-78423630D01*
X140736689Y-78427878D01*
X140736688Y-78427879D01*
X140729955Y-78440126D01*
X140639776Y-78604162D01*
X140577484Y-78800532D01*
X140576944Y-78805344D01*
X140576944Y-78805345D01*
X140575865Y-78814970D01*
X140554520Y-79005262D01*
X140250000Y-79005262D01*
X140250000Y-76465262D01*
X140554520Y-76465262D01*
X140571759Y-76670553D01*
X140573092Y-76675201D01*
X140573092Y-76675202D01*
X140627175Y-76863810D01*
X140628544Y-76868586D01*
X140722712Y-77051818D01*
X140850677Y-77213270D01*
X140854357Y-77216402D01*
X140854359Y-77216404D01*
X140956683Y-77303488D01*
X141007564Y-77346791D01*
X141011787Y-77349151D01*
X141011791Y-77349154D01*
X141112683Y-77405540D01*
X141187398Y-77447297D01*
X141191996Y-77448791D01*
X141378724Y-77509463D01*
X141378726Y-77509464D01*
X141383329Y-77510959D01*
X141587894Y-77535351D01*
X141592716Y-77534980D01*
X141592719Y-77534980D01*
X141660541Y-77529761D01*
X141793300Y-77519546D01*
X141991725Y-77464145D01*
X141996038Y-77461966D01*
X141996044Y-77461964D01*
X142171289Y-77373441D01*
X142171291Y-77373440D01*
X142175610Y-77371258D01*
X142253343Y-77310527D01*
X142334135Y-77247406D01*
X142334139Y-77247402D01*
X142337951Y-77244424D01*
X142472564Y-77088472D01*
X142491231Y-77055613D01*
X142571934Y-76913550D01*
X142571935Y-76913547D01*
X142574323Y-76909344D01*
X142587882Y-76868586D01*
X142637824Y-76718454D01*
X142637824Y-76718452D01*
X142639351Y-76713863D01*
X142665171Y-76509474D01*
X142665583Y-76480000D01*
X142647511Y-76295680D01*
X142645952Y-76279780D01*
X142645951Y-76279776D01*
X142645480Y-76274970D01*
X142585935Y-76077749D01*
X142489218Y-75895849D01*
X142359011Y-75736200D01*
X142200275Y-75604882D01*
X142065695Y-75532115D01*
X142023309Y-75509197D01*
X142023308Y-75509197D01*
X142019055Y-75506897D01*
X141955855Y-75487333D01*
X141826875Y-75447407D01*
X141826871Y-75447406D01*
X141822254Y-75445977D01*
X141817446Y-75445472D01*
X141817443Y-75445471D01*
X141622185Y-75424949D01*
X141622183Y-75424949D01*
X141617369Y-75424443D01*
X141557354Y-75429905D01*
X141417022Y-75442675D01*
X141417017Y-75442676D01*
X141412203Y-75443114D01*
X141214572Y-75501280D01*
X141210288Y-75503519D01*
X141210287Y-75503520D01*
X141145015Y-75537644D01*
X141032002Y-75596726D01*
X141028231Y-75599758D01*
X140875220Y-75722781D01*
X140875217Y-75722783D01*
X140871447Y-75725815D01*
X140868333Y-75729526D01*
X140868332Y-75729527D01*
X140855480Y-75744844D01*
X140739024Y-75883630D01*
X140736689Y-75887878D01*
X140736688Y-75887879D01*
X140731454Y-75897399D01*
X140639776Y-76064162D01*
X140638313Y-76068775D01*
X140638311Y-76068779D01*
X140608708Y-76162100D01*
X140577484Y-76260532D01*
X140576944Y-76265344D01*
X140576944Y-76265345D01*
X140573542Y-76295680D01*
X140554520Y-76465262D01*
X140250000Y-76465262D01*
X140250000Y-72314928D01*
X140913033Y-72314928D01*
X140913040Y-72314973D01*
X140918563Y-72321188D01*
X141055138Y-72412446D01*
X141063093Y-72416764D01*
X141248929Y-72496606D01*
X141257540Y-72499404D01*
X141454826Y-72544044D01*
X141463785Y-72545224D01*
X141665911Y-72553166D01*
X141674938Y-72552692D01*
X141875115Y-72523668D01*
X141883914Y-72521556D01*
X142075450Y-72456538D01*
X142083714Y-72452858D01*
X142260194Y-72354026D01*
X142267652Y-72348900D01*
X142298787Y-72323005D01*
X142305907Y-72311721D01*
X142305721Y-72308891D01*
X142303719Y-72305851D01*
X142290224Y-72292356D01*
X145380000Y-72292356D01*
X145380309Y-72297885D01*
X145394327Y-72422855D01*
X145396766Y-72433592D01*
X145452149Y-72592629D01*
X145456901Y-72602548D01*
X145546146Y-72745370D01*
X145552976Y-72753987D01*
X145671645Y-72873488D01*
X145680221Y-72880382D01*
X145822410Y-72970619D01*
X145832296Y-72975441D01*
X145990952Y-73031936D01*
X146001654Y-73034446D01*
X146014431Y-73035969D01*
X146027516Y-73033379D01*
X146028954Y-73031825D01*
X146030000Y-73027069D01*
X146030000Y-73023006D01*
X146330000Y-73023006D01*
X146334122Y-73035691D01*
X146336137Y-73037156D01*
X146340348Y-73037598D01*
X146347373Y-73036860D01*
X146358114Y-73034498D01*
X146517536Y-72980227D01*
X146527496Y-72975540D01*
X146670931Y-72887299D01*
X146679599Y-72880527D01*
X146799925Y-72762694D01*
X146806876Y-72754171D01*
X146898108Y-72612609D01*
X146902995Y-72602763D01*
X146960596Y-72444504D01*
X146963183Y-72433810D01*
X146979610Y-72303775D01*
X146980000Y-72297587D01*
X146980000Y-72292356D01*
X154020000Y-72292356D01*
X154020309Y-72297885D01*
X154034327Y-72422855D01*
X154036766Y-72433592D01*
X154092149Y-72592629D01*
X154096901Y-72602548D01*
X154186146Y-72745370D01*
X154192976Y-72753987D01*
X154311645Y-72873488D01*
X154320221Y-72880382D01*
X154462410Y-72970619D01*
X154472296Y-72975441D01*
X154630952Y-73031936D01*
X154641654Y-73034446D01*
X154654431Y-73035969D01*
X154667516Y-73033379D01*
X154668954Y-73031825D01*
X154670000Y-73027069D01*
X154670000Y-73023006D01*
X154970000Y-73023006D01*
X154974122Y-73035691D01*
X154976137Y-73037156D01*
X154980348Y-73037598D01*
X154987373Y-73036860D01*
X154998114Y-73034498D01*
X155157536Y-72980227D01*
X155167496Y-72975540D01*
X155310931Y-72887299D01*
X155319599Y-72880527D01*
X155439925Y-72762694D01*
X155446876Y-72754171D01*
X155538108Y-72612609D01*
X155542995Y-72602763D01*
X155600596Y-72444504D01*
X155603183Y-72433810D01*
X155619610Y-72303775D01*
X155620000Y-72297587D01*
X155620000Y-72115680D01*
X155615878Y-72102995D01*
X155611757Y-72100000D01*
X154985680Y-72100000D01*
X154972995Y-72104122D01*
X154970000Y-72108243D01*
X154970000Y-73023006D01*
X154670000Y-73023006D01*
X154670000Y-72115680D01*
X154665878Y-72102995D01*
X154661757Y-72100000D01*
X154035680Y-72100000D01*
X154022995Y-72104122D01*
X154020000Y-72108243D01*
X154020000Y-72292356D01*
X146980000Y-72292356D01*
X146980000Y-72115680D01*
X146975878Y-72102995D01*
X146971757Y-72100000D01*
X146345680Y-72100000D01*
X146332995Y-72104122D01*
X146330000Y-72108243D01*
X146330000Y-73023006D01*
X146030000Y-73023006D01*
X146030000Y-72115680D01*
X146025878Y-72102995D01*
X146021757Y-72100000D01*
X145395680Y-72100000D01*
X145382995Y-72104122D01*
X145380000Y-72108243D01*
X145380000Y-72292356D01*
X142290224Y-72292356D01*
X141621086Y-71623218D01*
X141609203Y-71617164D01*
X141604172Y-71617960D01*
X140919087Y-72303045D01*
X140913033Y-72314928D01*
X140250000Y-72314928D01*
X140250000Y-71374296D01*
X140455766Y-71374296D01*
X140468995Y-71576144D01*
X140470408Y-71585065D01*
X140520200Y-71781121D01*
X140523220Y-71789649D01*
X140607903Y-71973339D01*
X140612424Y-71981170D01*
X140687961Y-72088052D01*
X140698648Y-72096032D01*
X140699397Y-72096042D01*
X140705528Y-72092340D01*
X141386782Y-71411086D01*
X141392024Y-71400797D01*
X141827164Y-71400797D01*
X141827960Y-71405828D01*
X142511891Y-72089759D01*
X142523774Y-72095813D01*
X142526577Y-72095369D01*
X142529421Y-72093097D01*
X142558900Y-72057652D01*
X142564026Y-72050194D01*
X142662858Y-71873714D01*
X142666538Y-71865450D01*
X142694078Y-71784320D01*
X145380000Y-71784320D01*
X145384122Y-71797005D01*
X145388243Y-71800000D01*
X146014320Y-71800000D01*
X146027005Y-71795878D01*
X146030000Y-71791757D01*
X146030000Y-71784320D01*
X146330000Y-71784320D01*
X146334122Y-71797005D01*
X146338243Y-71800000D01*
X146964320Y-71800000D01*
X146977005Y-71795878D01*
X146980000Y-71791757D01*
X146980000Y-71784320D01*
X154020000Y-71784320D01*
X154024122Y-71797005D01*
X154028243Y-71800000D01*
X154654320Y-71800000D01*
X154667005Y-71795878D01*
X154670000Y-71791757D01*
X154670000Y-71784320D01*
X154970000Y-71784320D01*
X154974122Y-71797005D01*
X154978243Y-71800000D01*
X155604320Y-71800000D01*
X155617005Y-71795878D01*
X155620000Y-71791757D01*
X155620000Y-71607644D01*
X155619691Y-71602115D01*
X155605673Y-71477145D01*
X155603234Y-71466408D01*
X155547851Y-71307371D01*
X155543099Y-71297452D01*
X155453854Y-71154630D01*
X155447024Y-71146013D01*
X155328355Y-71026512D01*
X155319779Y-71019618D01*
X155177590Y-70929381D01*
X155167704Y-70924559D01*
X155009048Y-70868064D01*
X154998346Y-70865554D01*
X154985569Y-70864031D01*
X154972484Y-70866621D01*
X154971046Y-70868175D01*
X154970000Y-70872931D01*
X154970000Y-71784320D01*
X154670000Y-71784320D01*
X154670000Y-70876994D01*
X154665878Y-70864309D01*
X154663863Y-70862844D01*
X154659652Y-70862402D01*
X154652627Y-70863140D01*
X154641886Y-70865502D01*
X154482464Y-70919773D01*
X154472504Y-70924460D01*
X154329069Y-71012701D01*
X154320401Y-71019473D01*
X154200075Y-71137306D01*
X154193124Y-71145829D01*
X154101892Y-71287391D01*
X154097005Y-71297237D01*
X154039404Y-71455496D01*
X154036817Y-71466190D01*
X154020390Y-71596225D01*
X154020000Y-71602413D01*
X154020000Y-71784320D01*
X146980000Y-71784320D01*
X146980000Y-71607644D01*
X146979691Y-71602115D01*
X146965673Y-71477145D01*
X146963234Y-71466408D01*
X146907851Y-71307371D01*
X146903099Y-71297452D01*
X146813854Y-71154630D01*
X146807024Y-71146013D01*
X146688355Y-71026512D01*
X146679779Y-71019618D01*
X146537590Y-70929381D01*
X146527704Y-70924559D01*
X146369048Y-70868064D01*
X146358346Y-70865554D01*
X146345569Y-70864031D01*
X146332484Y-70866621D01*
X146331046Y-70868175D01*
X146330000Y-70872931D01*
X146330000Y-71784320D01*
X146030000Y-71784320D01*
X146030000Y-70876994D01*
X146025878Y-70864309D01*
X146023863Y-70862844D01*
X146019652Y-70862402D01*
X146012627Y-70863140D01*
X146001886Y-70865502D01*
X145842464Y-70919773D01*
X145832504Y-70924460D01*
X145689069Y-71012701D01*
X145680401Y-71019473D01*
X145560075Y-71137306D01*
X145553124Y-71145829D01*
X145461892Y-71287391D01*
X145457005Y-71297237D01*
X145399404Y-71455496D01*
X145396817Y-71466190D01*
X145380390Y-71596225D01*
X145380000Y-71602413D01*
X145380000Y-71784320D01*
X142694078Y-71784320D01*
X142731556Y-71673914D01*
X142733668Y-71665115D01*
X142762924Y-71463344D01*
X142763421Y-71457518D01*
X142764851Y-71402914D01*
X142764661Y-71397100D01*
X142746003Y-71194048D01*
X142744356Y-71185164D01*
X142689449Y-70990481D01*
X142686208Y-70982037D01*
X142596745Y-70800624D01*
X142592020Y-70792914D01*
X142531804Y-70712274D01*
X142520912Y-70704576D01*
X142519463Y-70704595D01*
X142514370Y-70707762D01*
X141833218Y-71388914D01*
X141827164Y-71400797D01*
X141392024Y-71400797D01*
X141392836Y-71399203D01*
X141392040Y-71394172D01*
X140708667Y-70710799D01*
X140696784Y-70704745D01*
X140694667Y-70705080D01*
X140690936Y-70708142D01*
X140644209Y-70767415D01*
X140639284Y-70774998D01*
X140545097Y-70954018D01*
X140541643Y-70962358D01*
X140481658Y-71155538D01*
X140479777Y-71164388D01*
X140456002Y-71365263D01*
X140455766Y-71374296D01*
X140250000Y-71374296D01*
X140250000Y-70349000D01*
X140268907Y-70290809D01*
X140318407Y-70254845D01*
X140349000Y-70250000D01*
X140933586Y-70250000D01*
X140991777Y-70268907D01*
G37*
%TD.AperFunction*%
%TD*%
%TA.AperFunction,Conductor*%
%TO.N,+3V3*%
G36*
X154809191Y-92718907D02*
G01*
X154845155Y-92768407D01*
X154850000Y-92799000D01*
X154850000Y-95551000D01*
X154831093Y-95609191D01*
X154781593Y-95645155D01*
X154751000Y-95650000D01*
X154384727Y-95650000D01*
X154322882Y-95628306D01*
X154298989Y-95609191D01*
X153850000Y-95250000D01*
X153199000Y-95250000D01*
X153140809Y-95231093D01*
X153104845Y-95181593D01*
X153100000Y-95151000D01*
X153100000Y-93896915D01*
X153118907Y-93838724D01*
X153136309Y-93820293D01*
X154199872Y-92950105D01*
X154199901Y-92950081D01*
X154200000Y-92950000D01*
X154472465Y-92722946D01*
X154529272Y-92700218D01*
X154535843Y-92700000D01*
X154751000Y-92700000D01*
X154809191Y-92718907D01*
G37*
%TD.AperFunction*%
%TD*%
M02*
