%TF.GenerationSoftware,KiCad,Pcbnew,(6.0.1-0)*%
%TF.CreationDate,2023-04-29T18:30:50+02:00*%
%TF.ProjectId,archimedes,61726368-696d-4656-9465-732e6b696361,rev?*%
%TF.SameCoordinates,Original*%
%TF.FileFunction,Paste,Top*%
%TF.FilePolarity,Positive*%
%FSLAX46Y46*%
G04 Gerber Fmt 4.6, Leading zero omitted, Abs format (unit mm)*
G04 Created by KiCad (PCBNEW (6.0.1-0)) date 2023-04-29 18:30:50*
%MOMM*%
%LPD*%
G01*
G04 APERTURE LIST*
G04 Aperture macros list*
%AMRoundRect*
0 Rectangle with rounded corners*
0 $1 Rounding radius*
0 $2 $3 $4 $5 $6 $7 $8 $9 X,Y pos of 4 corners*
0 Add a 4 corners polygon primitive as box body*
4,1,4,$2,$3,$4,$5,$6,$7,$8,$9,$2,$3,0*
0 Add four circle primitives for the rounded corners*
1,1,$1+$1,$2,$3*
1,1,$1+$1,$4,$5*
1,1,$1+$1,$6,$7*
1,1,$1+$1,$8,$9*
0 Add four rect primitives between the rounded corners*
20,1,$1+$1,$2,$3,$4,$5,0*
20,1,$1+$1,$4,$5,$6,$7,0*
20,1,$1+$1,$6,$7,$8,$9,0*
20,1,$1+$1,$8,$9,$2,$3,0*%
G04 Aperture macros list end*
%ADD10RoundRect,0.135000X0.185000X-0.135000X0.185000X0.135000X-0.185000X0.135000X-0.185000X-0.135000X0*%
%ADD11RoundRect,0.300000X-0.300000X0.300000X-0.300000X-0.300000X0.300000X-0.300000X0.300000X0.300000X0*%
%ADD12RoundRect,0.140000X-0.140000X-0.170000X0.140000X-0.170000X0.140000X0.170000X-0.140000X0.170000X0*%
%ADD13RoundRect,0.135000X0.135000X0.185000X-0.135000X0.185000X-0.135000X-0.185000X0.135000X-0.185000X0*%
%ADD14RoundRect,0.225000X-0.250000X0.225000X-0.250000X-0.225000X0.250000X-0.225000X0.250000X0.225000X0*%
%ADD15RoundRect,0.140000X0.170000X-0.140000X0.170000X0.140000X-0.170000X0.140000X-0.170000X-0.140000X0*%
%ADD16RoundRect,0.135000X-0.185000X0.135000X-0.185000X-0.135000X0.185000X-0.135000X0.185000X0.135000X0*%
%ADD17RoundRect,0.135000X-0.135000X-0.185000X0.135000X-0.185000X0.135000X0.185000X-0.135000X0.185000X0*%
%ADD18RoundRect,0.020000X-0.367500X-0.080000X0.367500X-0.080000X0.367500X0.080000X-0.367500X0.080000X0*%
%ADD19RoundRect,0.020000X0.080000X-0.367500X0.080000X0.367500X-0.080000X0.367500X-0.080000X-0.367500X0*%
%ADD20RoundRect,0.096000X-1.504000X-1.504000X1.504000X-1.504000X1.504000X1.504000X-1.504000X1.504000X0*%
%ADD21RoundRect,0.218750X-0.218750X-0.256250X0.218750X-0.256250X0.218750X0.256250X-0.218750X0.256250X0*%
%ADD22RoundRect,0.140000X-0.170000X0.140000X-0.170000X-0.140000X0.170000X-0.140000X0.170000X0.140000X0*%
%ADD23RoundRect,0.065000X-0.260000X0.460000X-0.260000X-0.460000X0.260000X-0.460000X0.260000X0.460000X0*%
%ADD24R,1.400000X1.200000*%
%ADD25R,0.600000X1.450000*%
%ADD26R,0.300000X1.450000*%
%ADD27RoundRect,0.075000X0.075000X-0.300000X0.075000X0.300000X-0.075000X0.300000X-0.075000X-0.300000X0*%
%ADD28R,1.700000X0.300000*%
%ADD29RoundRect,0.065000X0.260000X-0.460000X0.260000X0.460000X-0.260000X0.460000X-0.260000X-0.460000X0*%
%ADD30RoundRect,0.200000X-0.200000X-0.275000X0.200000X-0.275000X0.200000X0.275000X-0.200000X0.275000X0*%
%ADD31RoundRect,0.150000X-0.150000X0.350000X-0.150000X-0.350000X0.150000X-0.350000X0.150000X0.350000X0*%
G04 APERTURE END LIST*
D10*
%TO.C,R5*%
X151175000Y-91120000D03*
X151175000Y-90100000D03*
%TD*%
D11*
%TO.C,D1*%
X152370000Y-81250000D03*
X155570000Y-81250000D03*
%TD*%
D12*
%TO.C,C5*%
X154970000Y-94500000D03*
X155930000Y-94500000D03*
%TD*%
%TO.C,C16*%
X148280000Y-105200000D03*
X149240000Y-105200000D03*
%TD*%
D13*
%TO.C,R7*%
X154932500Y-89335000D03*
X153912500Y-89335000D03*
%TD*%
D12*
%TO.C,C11*%
X154970000Y-92300000D03*
X155930000Y-92300000D03*
%TD*%
D14*
%TO.C,C1*%
X155600000Y-83300000D03*
X155600000Y-84850000D03*
%TD*%
D15*
%TO.C,C3*%
X153700000Y-93230000D03*
X153700000Y-92270000D03*
%TD*%
D10*
%TO.C,R6*%
X152225000Y-91110000D03*
X152225000Y-90090000D03*
%TD*%
D16*
%TO.C,R2*%
X152125000Y-78590000D03*
X152125000Y-79610000D03*
%TD*%
D15*
%TO.C,C14*%
X149875000Y-92630000D03*
X149875000Y-91670000D03*
%TD*%
D17*
%TO.C,R8*%
X145990000Y-87200000D03*
X147010000Y-87200000D03*
%TD*%
D18*
%TO.C,U2*%
X147112500Y-95700000D03*
X147112500Y-96100000D03*
X147112500Y-96500000D03*
X147112500Y-96900000D03*
X147112500Y-97300000D03*
X147112500Y-97700000D03*
X147112500Y-98100000D03*
X147112500Y-98500000D03*
X147112500Y-98900000D03*
X147112500Y-99300000D03*
X147112500Y-99700000D03*
X147112500Y-100100000D03*
X147112500Y-100500000D03*
X147112500Y-100900000D03*
D19*
X147900000Y-101687500D03*
X148300000Y-101687500D03*
X148700000Y-101687500D03*
X149100000Y-101687500D03*
X149500000Y-101687500D03*
X149900000Y-101687500D03*
X150300000Y-101687500D03*
X150700000Y-101687500D03*
X151100000Y-101687500D03*
X151500000Y-101687500D03*
X151900000Y-101687500D03*
X152300000Y-101687500D03*
X152700000Y-101687500D03*
X153100000Y-101687500D03*
D18*
X153887500Y-100900000D03*
X153887500Y-100500000D03*
X153887500Y-100100000D03*
X153887500Y-99700000D03*
X153887500Y-99300000D03*
X153887500Y-98900000D03*
X153887500Y-98500000D03*
X153887500Y-98100000D03*
X153887500Y-97700000D03*
X153887500Y-97300000D03*
X153887500Y-96900000D03*
X153887500Y-96500000D03*
X153887500Y-96100000D03*
X153887500Y-95700000D03*
D19*
X153100000Y-94912500D03*
X152700000Y-94912500D03*
X152300000Y-94912500D03*
X151900000Y-94912500D03*
X151500000Y-94912500D03*
X151100000Y-94912500D03*
X150700000Y-94912500D03*
X150300000Y-94912500D03*
X149900000Y-94912500D03*
X149500000Y-94912500D03*
X149100000Y-94912500D03*
X148700000Y-94912500D03*
X148300000Y-94912500D03*
X147900000Y-94912500D03*
D20*
X150500000Y-98300000D03*
%TD*%
D13*
%TO.C,R1*%
X147810000Y-78750000D03*
X146790000Y-78750000D03*
%TD*%
D21*
%TO.C,LED1*%
X153997500Y-90785000D03*
X155572500Y-90785000D03*
%TD*%
D22*
%TO.C,C15*%
X150850000Y-107720000D03*
X150850000Y-108680000D03*
%TD*%
D23*
%TO.C,SW1*%
X147925000Y-84525000D03*
X147925000Y-80275000D03*
X145775000Y-80275000D03*
X145775000Y-84525000D03*
%TD*%
D12*
%TO.C,C17*%
X146470000Y-88350000D03*
X147430000Y-88350000D03*
%TD*%
D16*
%TO.C,R4*%
X150850000Y-105740000D03*
X150850000Y-106760000D03*
%TD*%
D22*
%TO.C,C8*%
X151000000Y-103420000D03*
X151000000Y-104380000D03*
%TD*%
D24*
%TO.C,Y1*%
X149200000Y-106700000D03*
X147000000Y-106700000D03*
X147000000Y-108400000D03*
X149200000Y-108400000D03*
%TD*%
D25*
%TO.C,J1*%
X153750000Y-77045000D03*
X152950000Y-77045000D03*
D26*
X151750000Y-77045000D03*
X150750000Y-77045000D03*
X150250000Y-77045000D03*
X149250000Y-77045000D03*
D25*
X148050000Y-77045000D03*
X147250000Y-77045000D03*
X147250000Y-77045000D03*
X148050000Y-77045000D03*
D26*
X148750000Y-77045000D03*
X149750000Y-77045000D03*
X151250000Y-77045000D03*
X152250000Y-77045000D03*
D25*
X152950000Y-77045000D03*
X153750000Y-77045000D03*
%TD*%
D15*
%TO.C,C2*%
X155500000Y-87200000D03*
X155500000Y-86240000D03*
%TD*%
D27*
%TO.C,U3*%
X146350000Y-93049500D03*
X146850000Y-93049500D03*
X147350000Y-93049500D03*
X147850000Y-93049500D03*
X147850000Y-90250500D03*
X147350000Y-90250500D03*
X146850000Y-90250500D03*
X146350000Y-90250500D03*
D28*
X147100000Y-91650000D03*
%TD*%
D15*
%TO.C,C9*%
X146025000Y-95505000D03*
X146025000Y-94545000D03*
%TD*%
D29*
%TO.C,SW2*%
X153475000Y-109175000D03*
X153475000Y-104925000D03*
X155625000Y-109175000D03*
X155625000Y-104925000D03*
%TD*%
D22*
%TO.C,C6*%
X145060000Y-99480000D03*
X145060000Y-100440000D03*
%TD*%
D17*
%TO.C,R9*%
X145990000Y-86050000D03*
X147010000Y-86050000D03*
%TD*%
D22*
%TO.C,C13*%
X152000000Y-103845000D03*
X152000000Y-104805000D03*
%TD*%
%TO.C,C7*%
X156100000Y-99390000D03*
X156100000Y-100350000D03*
%TD*%
D15*
%TO.C,C12*%
X152550000Y-93230000D03*
X152550000Y-92270000D03*
%TD*%
D30*
%TO.C,F1*%
X154125000Y-79100000D03*
X155775000Y-79100000D03*
%TD*%
D31*
%TO.C,U1*%
X154150000Y-84650000D03*
X153200000Y-84650000D03*
X152250000Y-84650000D03*
X152250000Y-86950000D03*
X154150000Y-86950000D03*
%TD*%
D17*
%TO.C,FB1*%
X152040000Y-83200000D03*
X153060000Y-83200000D03*
%TD*%
D15*
%TO.C,C4*%
X150875000Y-93080000D03*
X150875000Y-92120000D03*
%TD*%
D12*
%TO.C,C10*%
X154970000Y-93400000D03*
X155930000Y-93400000D03*
%TD*%
M02*
