M48
; DRILL file {KiCad (6.0.1-0)} date Saturday, 29 April 2023 at 18:30:46
; FORMAT={-:-/ absolute / metric / decimal}
; #@! TF.CreationDate,2023-04-29T18:30:46+02:00
; #@! TF.GenerationSoftware,Kicad,Pcbnew,(6.0.1-0)
; #@! TF.FileFunction,MixedPlating,1,2
FMAT,2
METRIC
; #@! TA.AperFunction,Plated,PTH,ViaDrill
T1C0.250
; #@! TA.AperFunction,Plated,PTH,ComponentDrill
T2C0.600
; #@! TA.AperFunction,Plated,PTH,ComponentDrill
T3C1.000
; #@! TA.AperFunction,NonPlated,NPTH,ComponentDrill
T4C0.650
%
G90
G05
T1
X142.65Y-98.15
X143.476Y-98.154
X144.4Y-100.45
X145.7Y-105.5
X145.7Y-107.5
X145.7Y-109.5
X145.75Y-77.95
X145.8Y-81.25
X145.8Y-83.55
X146.026Y-94.139
X146.45Y-89.33
X146.6Y-77.95
X146.75Y-104.325
X147.209Y-101.7
X147.4Y-105.5
X147.7Y-109.5
X147.85Y-92.35
X147.987Y-99.817
X147.998Y-95.975
X147.998Y-99.018
X148.0Y-88.35
X148.1Y-100.8
X148.7Y-81.4
X148.75Y-85.7
X148.8Y-78.8
X149.18Y-103.76
X149.3Y-97.1
X149.3Y-99.5
X149.41Y-75.75
X149.7Y-109.5
X149.8Y-105.5
X149.85Y-91.15
X150.25Y-89.75
X150.45Y-91.6
X150.496Y-100.814
X150.5Y-98.3
X150.92Y-95.801
X151.317Y-104.786
X151.4Y-83.95
X151.4Y-87.05
X151.45Y-79.6
X151.7Y-97.1
X151.7Y-99.5
X151.7Y-105.5
X151.7Y-107.5
X151.7Y-109.5
X151.72Y-100.81
X151.747Y-95.794
X151.95Y-75.76
X152.7Y-85.8
X152.8Y-91.75
X152.93Y-100.36
X153.0Y-96.3
X153.0Y-98.31
X153.05Y-79.9
X153.1Y-88.8
X153.103Y-99.29
X153.4Y-110.35
X153.45Y-94.05
X153.45Y-103.55
X153.65Y-85.8
X153.7Y-91.75
X153.705Y-101.887
X154.15Y-106.0
X154.3Y-93.4
X154.3Y-94.25
X154.3Y-95.1
X154.3Y-104.1
X154.4Y-77.95
X154.45Y-87.85
X155.2Y-87.85
X155.25Y-77.95
X155.3Y-111.2
X155.59Y-104.08
X155.6Y-85.65
X155.612Y-90.0
X155.75Y-105.9
X155.75Y-108.2
X155.925Y-88.35
X155.95Y-92.85
X155.95Y-93.95
X156.13Y-100.66
X156.65Y-97.75
X157.93Y-99.24
T3
X141.61Y-71.4
X141.61Y-73.94
X141.61Y-76.48
X141.61Y-79.02
X141.61Y-81.56
X141.61Y-84.1
X141.61Y-86.64
X141.61Y-89.18
X141.61Y-91.72
X141.61Y-94.26
X141.61Y-96.8
X141.61Y-99.34
X141.61Y-101.88
X141.61Y-104.42
X141.61Y-106.96
X141.61Y-109.5
X141.61Y-112.04
X141.61Y-114.58
X141.61Y-117.12
X141.61Y-119.66
X146.69Y-114.345
X149.23Y-114.345
X151.77Y-114.345
X154.31Y-114.345
X159.39Y-71.4
X159.39Y-73.94
X159.39Y-76.48
X159.39Y-79.02
X159.39Y-81.56
X159.39Y-84.1
X159.39Y-86.64
X159.39Y-89.18
X159.39Y-91.72
X159.39Y-94.26
X159.39Y-96.8
X159.39Y-99.34
X159.39Y-101.88
X159.39Y-104.42
X159.39Y-106.96
X159.39Y-109.5
X159.39Y-112.04
X159.39Y-114.58
X159.39Y-117.12
X159.39Y-119.66
T4
X147.61Y-75.6
X153.39Y-75.6
T2
G00X146.18Y-72.25
M15
G01X146.18Y-71.65
M16
G05
G00X146.18Y-76.68
M15
G01X146.18Y-75.58
M16
G05
G00X154.82Y-72.25
M15
G01X154.82Y-71.65
M16
G05
G00X154.82Y-76.68
M15
G01X154.82Y-75.58
M16
G05
T0
M30
