%TF.GenerationSoftware,KiCad,Pcbnew,(6.0.1-0)*%
%TF.CreationDate,2023-04-29T18:30:50+02:00*%
%TF.ProjectId,archimedes,61726368-696d-4656-9465-732e6b696361,rev?*%
%TF.SameCoordinates,Original*%
%TF.FileFunction,Legend,Top*%
%TF.FilePolarity,Positive*%
%FSLAX46Y46*%
G04 Gerber Fmt 4.6, Leading zero omitted, Abs format (unit mm)*
G04 Created by KiCad (PCBNEW (6.0.1-0)) date 2023-04-29 18:30:50*
%MOMM*%
%LPD*%
G01*
G04 APERTURE LIST*
%ADD10C,0.100000*%
%ADD11C,0.120000*%
%ADD12C,0.150000*%
%ADD13C,0.160000*%
G04 APERTURE END LIST*
D10*
X157038095Y-110109523D02*
X157000000Y-110071428D01*
X156961904Y-109995238D01*
X156961904Y-109804761D01*
X157000000Y-109728571D01*
X157038095Y-109690476D01*
X157114285Y-109652380D01*
X157190476Y-109652380D01*
X157304761Y-109690476D01*
X157761904Y-110147619D01*
X157761904Y-109652380D01*
X156961904Y-109157142D02*
X156961904Y-109080952D01*
X157000000Y-109004761D01*
X157038095Y-108966666D01*
X157114285Y-108928571D01*
X157266666Y-108890476D01*
X157457142Y-108890476D01*
X157609523Y-108928571D01*
X157685714Y-108966666D01*
X157723809Y-109004761D01*
X157761904Y-109080952D01*
X157761904Y-109157142D01*
X157723809Y-109233333D01*
X157685714Y-109271428D01*
X157609523Y-109309523D01*
X157457142Y-109347619D01*
X157266666Y-109347619D01*
X157114285Y-109309523D01*
X157038095Y-109271428D01*
X157000000Y-109233333D01*
X156961904Y-109157142D01*
X157533333Y-84671428D02*
X157533333Y-84290476D01*
X157761904Y-84747619D02*
X156961904Y-84480952D01*
X157761904Y-84214285D01*
X157761904Y-83528571D02*
X157761904Y-83985714D01*
X157761904Y-83757142D02*
X156961904Y-83757142D01*
X157076190Y-83833333D01*
X157152380Y-83909523D01*
X157190476Y-83985714D01*
X157038095Y-107609523D02*
X157000000Y-107571428D01*
X156961904Y-107495238D01*
X156961904Y-107304761D01*
X157000000Y-107228571D01*
X157038095Y-107190476D01*
X157114285Y-107152380D01*
X157190476Y-107152380D01*
X157304761Y-107190476D01*
X157761904Y-107647619D01*
X157761904Y-107152380D01*
X157761904Y-106390476D02*
X157761904Y-106847619D01*
X157761904Y-106619047D02*
X156961904Y-106619047D01*
X157076190Y-106695238D01*
X157152380Y-106771428D01*
X157190476Y-106847619D01*
X152133809Y-112627619D02*
X152171904Y-112513333D01*
X152171904Y-112322857D01*
X152133809Y-112246666D01*
X152095714Y-112208571D01*
X152019523Y-112170476D01*
X151943333Y-112170476D01*
X151867142Y-112208571D01*
X151829047Y-112246666D01*
X151790952Y-112322857D01*
X151752857Y-112475238D01*
X151714761Y-112551428D01*
X151676666Y-112589523D01*
X151600476Y-112627619D01*
X151524285Y-112627619D01*
X151448095Y-112589523D01*
X151410000Y-112551428D01*
X151371904Y-112475238D01*
X151371904Y-112284761D01*
X151410000Y-112170476D01*
X152095714Y-111370476D02*
X152133809Y-111408571D01*
X152171904Y-111522857D01*
X152171904Y-111599047D01*
X152133809Y-111713333D01*
X152057619Y-111789523D01*
X151981428Y-111827619D01*
X151829047Y-111865714D01*
X151714761Y-111865714D01*
X151562380Y-111827619D01*
X151486190Y-111789523D01*
X151410000Y-111713333D01*
X151371904Y-111599047D01*
X151371904Y-111522857D01*
X151410000Y-111408571D01*
X151448095Y-111370476D01*
X152171904Y-110646666D02*
X152171904Y-111027619D01*
X151371904Y-111027619D01*
X152171904Y-110380000D02*
X151371904Y-110380000D01*
X152171904Y-109922857D02*
X151714761Y-110265714D01*
X151371904Y-109922857D02*
X151829047Y-110380000D01*
X152511904Y-107640476D02*
X152130952Y-107907142D01*
X152511904Y-108097619D02*
X151711904Y-108097619D01*
X151711904Y-107792857D01*
X151750000Y-107716666D01*
X151788095Y-107678571D01*
X151864285Y-107640476D01*
X151978571Y-107640476D01*
X152054761Y-107678571D01*
X152092857Y-107716666D01*
X152130952Y-107792857D01*
X152130952Y-108097619D01*
X151711904Y-107297619D02*
X152359523Y-107297619D01*
X152435714Y-107259523D01*
X152473809Y-107221428D01*
X152511904Y-107145238D01*
X152511904Y-106992857D01*
X152473809Y-106916666D01*
X152435714Y-106878571D01*
X152359523Y-106840476D01*
X151711904Y-106840476D01*
X152511904Y-106459523D02*
X151711904Y-106459523D01*
X152511904Y-106002380D01*
X151711904Y-106002380D01*
X156961904Y-76652380D02*
X156961904Y-77033333D01*
X157342857Y-77071428D01*
X157304761Y-77033333D01*
X157266666Y-76957142D01*
X157266666Y-76766666D01*
X157304761Y-76690476D01*
X157342857Y-76652380D01*
X157419047Y-76614285D01*
X157609523Y-76614285D01*
X157685714Y-76652380D01*
X157723809Y-76690476D01*
X157761904Y-76766666D01*
X157761904Y-76957142D01*
X157723809Y-77033333D01*
X157685714Y-77071428D01*
X156961904Y-76385714D02*
X157761904Y-76119047D01*
X156961904Y-75852380D01*
X143238095Y-111947619D02*
X143238095Y-111490476D01*
X143238095Y-111719047D02*
X144038095Y-111719047D01*
X143923809Y-111642857D01*
X143847619Y-111566666D01*
X143809523Y-111490476D01*
X143961904Y-112252380D02*
X144000000Y-112290476D01*
X144038095Y-112366666D01*
X144038095Y-112557142D01*
X144000000Y-112633333D01*
X143961904Y-112671428D01*
X143885714Y-112709523D01*
X143809523Y-112709523D01*
X143695238Y-112671428D01*
X143238095Y-112214285D01*
X143238095Y-112709523D01*
X144000000Y-71090476D02*
X144038095Y-71014285D01*
X144038095Y-70900000D01*
X144000000Y-70785714D01*
X143923809Y-70709523D01*
X143847619Y-70671428D01*
X143695238Y-70633333D01*
X143580952Y-70633333D01*
X143428571Y-70671428D01*
X143352380Y-70709523D01*
X143276190Y-70785714D01*
X143238095Y-70900000D01*
X143238095Y-70976190D01*
X143276190Y-71090476D01*
X143314285Y-71128571D01*
X143580952Y-71128571D01*
X143580952Y-70976190D01*
X143238095Y-71471428D02*
X144038095Y-71471428D01*
X143238095Y-71928571D01*
X144038095Y-71928571D01*
X143238095Y-72309523D02*
X144038095Y-72309523D01*
X144038095Y-72500000D01*
X144000000Y-72614285D01*
X143923809Y-72690476D01*
X143847619Y-72728571D01*
X143695238Y-72766666D01*
X143580952Y-72766666D01*
X143428571Y-72728571D01*
X143352380Y-72690476D01*
X143276190Y-72614285D01*
X143238095Y-72500000D01*
X143238095Y-72309523D01*
X157038095Y-94909523D02*
X157000000Y-94871428D01*
X156961904Y-94795238D01*
X156961904Y-94604761D01*
X157000000Y-94528571D01*
X157038095Y-94490476D01*
X157114285Y-94452380D01*
X157190476Y-94452380D01*
X157304761Y-94490476D01*
X157761904Y-94947619D01*
X157761904Y-94452380D01*
X156961904Y-93728571D02*
X156961904Y-94109523D01*
X157342857Y-94147619D01*
X157304761Y-94109523D01*
X157266666Y-94033333D01*
X157266666Y-93842857D01*
X157304761Y-93766666D01*
X157342857Y-93728571D01*
X157419047Y-93690476D01*
X157609523Y-93690476D01*
X157685714Y-93728571D01*
X157723809Y-93766666D01*
X157761904Y-93842857D01*
X157761904Y-94033333D01*
X157723809Y-94109523D01*
X157685714Y-94147619D01*
X157000000Y-74609523D02*
X156961904Y-74685714D01*
X156961904Y-74800000D01*
X157000000Y-74914285D01*
X157076190Y-74990476D01*
X157152380Y-75028571D01*
X157304761Y-75066666D01*
X157419047Y-75066666D01*
X157571428Y-75028571D01*
X157647619Y-74990476D01*
X157723809Y-74914285D01*
X157761904Y-74800000D01*
X157761904Y-74723809D01*
X157723809Y-74609523D01*
X157685714Y-74571428D01*
X157419047Y-74571428D01*
X157419047Y-74723809D01*
X157761904Y-74228571D02*
X156961904Y-74228571D01*
X157761904Y-73771428D01*
X156961904Y-73771428D01*
X157761904Y-73390476D02*
X156961904Y-73390476D01*
X156961904Y-73200000D01*
X157000000Y-73085714D01*
X157076190Y-73009523D01*
X157152380Y-72971428D01*
X157304761Y-72933333D01*
X157419047Y-72933333D01*
X157571428Y-72971428D01*
X157647619Y-73009523D01*
X157723809Y-73085714D01*
X157761904Y-73200000D01*
X157761904Y-73390476D01*
X157038095Y-97409523D02*
X157000000Y-97371428D01*
X156961904Y-97295238D01*
X156961904Y-97104761D01*
X157000000Y-97028571D01*
X157038095Y-96990476D01*
X157114285Y-96952380D01*
X157190476Y-96952380D01*
X157304761Y-96990476D01*
X157761904Y-97447619D01*
X157761904Y-96952380D01*
X157228571Y-96266666D02*
X157761904Y-96266666D01*
X156923809Y-96457142D02*
X157495238Y-96647619D01*
X157495238Y-96152380D01*
X153910000Y-112170476D02*
X153871904Y-112246666D01*
X153871904Y-112360952D01*
X153910000Y-112475238D01*
X153986190Y-112551428D01*
X154062380Y-112589523D01*
X154214761Y-112627619D01*
X154329047Y-112627619D01*
X154481428Y-112589523D01*
X154557619Y-112551428D01*
X154633809Y-112475238D01*
X154671904Y-112360952D01*
X154671904Y-112284761D01*
X154633809Y-112170476D01*
X154595714Y-112132380D01*
X154329047Y-112132380D01*
X154329047Y-112284761D01*
X154671904Y-111789523D02*
X153871904Y-111789523D01*
X154671904Y-111332380D01*
X153871904Y-111332380D01*
X154671904Y-110951428D02*
X153871904Y-110951428D01*
X153871904Y-110760952D01*
X153910000Y-110646666D01*
X153986190Y-110570476D01*
X154062380Y-110532380D01*
X154214761Y-110494285D01*
X154329047Y-110494285D01*
X154481428Y-110532380D01*
X154557619Y-110570476D01*
X154633809Y-110646666D01*
X154671904Y-110760952D01*
X154671904Y-110951428D01*
X143961904Y-81371428D02*
X144000000Y-81409523D01*
X144038095Y-81485714D01*
X144038095Y-81676190D01*
X144000000Y-81752380D01*
X143961904Y-81790476D01*
X143885714Y-81828571D01*
X143809523Y-81828571D01*
X143695238Y-81790476D01*
X143238095Y-81333333D01*
X143238095Y-81828571D01*
X144038095Y-76461904D02*
X144038095Y-76538095D01*
X144000000Y-76614285D01*
X143961904Y-76652380D01*
X143885714Y-76690476D01*
X143733333Y-76728571D01*
X143542857Y-76728571D01*
X143390476Y-76690476D01*
X143314285Y-76652380D01*
X143276190Y-76614285D01*
X143238095Y-76538095D01*
X143238095Y-76461904D01*
X143276190Y-76385714D01*
X143314285Y-76347619D01*
X143390476Y-76309523D01*
X143542857Y-76271428D01*
X143733333Y-76271428D01*
X143885714Y-76309523D01*
X143961904Y-76347619D01*
X144000000Y-76385714D01*
X144038095Y-76461904D01*
X157761904Y-99990476D02*
X157380952Y-100257142D01*
X157761904Y-100447619D02*
X156961904Y-100447619D01*
X156961904Y-100142857D01*
X157000000Y-100066666D01*
X157038095Y-100028571D01*
X157114285Y-99990476D01*
X157228571Y-99990476D01*
X157304761Y-100028571D01*
X157342857Y-100066666D01*
X157380952Y-100142857D01*
X157380952Y-100447619D01*
X156961904Y-99647619D02*
X157609523Y-99647619D01*
X157685714Y-99609523D01*
X157723809Y-99571428D01*
X157761904Y-99495238D01*
X157761904Y-99342857D01*
X157723809Y-99266666D01*
X157685714Y-99228571D01*
X157609523Y-99190476D01*
X156961904Y-99190476D01*
X157761904Y-98809523D02*
X156961904Y-98809523D01*
X157761904Y-98352380D01*
X156961904Y-98352380D01*
X157038095Y-102509523D02*
X157000000Y-102471428D01*
X156961904Y-102395238D01*
X156961904Y-102204761D01*
X157000000Y-102128571D01*
X157038095Y-102090476D01*
X157114285Y-102052380D01*
X157190476Y-102052380D01*
X157304761Y-102090476D01*
X157761904Y-102547619D01*
X157761904Y-102052380D01*
X156961904Y-101785714D02*
X156961904Y-101290476D01*
X157266666Y-101557142D01*
X157266666Y-101442857D01*
X157304761Y-101366666D01*
X157342857Y-101328571D01*
X157419047Y-101290476D01*
X157609523Y-101290476D01*
X157685714Y-101328571D01*
X157723809Y-101366666D01*
X157761904Y-101442857D01*
X157761904Y-101671428D01*
X157723809Y-101747619D01*
X157685714Y-101785714D01*
X157761904Y-119602380D02*
X157761904Y-120059523D01*
X157761904Y-119830952D02*
X156961904Y-119830952D01*
X157076190Y-119907142D01*
X157152380Y-119983333D01*
X157190476Y-120059523D01*
X156961904Y-118916666D02*
X156961904Y-119069047D01*
X157000000Y-119145238D01*
X157038095Y-119183333D01*
X157152380Y-119259523D01*
X157304761Y-119297619D01*
X157609523Y-119297619D01*
X157685714Y-119259523D01*
X157723809Y-119221428D01*
X157761904Y-119145238D01*
X157761904Y-118992857D01*
X157723809Y-118916666D01*
X157685714Y-118878571D01*
X157609523Y-118840476D01*
X157419047Y-118840476D01*
X157342857Y-118878571D01*
X157304761Y-118916666D01*
X157266666Y-118992857D01*
X157266666Y-119145238D01*
X157304761Y-119221428D01*
X157342857Y-119259523D01*
X157419047Y-119297619D01*
X156961904Y-89990476D02*
X156961904Y-89495238D01*
X157266666Y-89761904D01*
X157266666Y-89647619D01*
X157304761Y-89571428D01*
X157342857Y-89533333D01*
X157419047Y-89495238D01*
X157609523Y-89495238D01*
X157685714Y-89533333D01*
X157723809Y-89571428D01*
X157761904Y-89647619D01*
X157761904Y-89876190D01*
X157723809Y-89952380D01*
X157685714Y-89990476D01*
X156961904Y-89266666D02*
X157761904Y-89000000D01*
X156961904Y-88733333D01*
X156961904Y-88542857D02*
X156961904Y-88047619D01*
X157266666Y-88314285D01*
X157266666Y-88200000D01*
X157304761Y-88123809D01*
X157342857Y-88085714D01*
X157419047Y-88047619D01*
X157609523Y-88047619D01*
X157685714Y-88085714D01*
X157723809Y-88123809D01*
X157761904Y-88200000D01*
X157761904Y-88428571D01*
X157723809Y-88504761D01*
X157685714Y-88542857D01*
X143238095Y-104247619D02*
X143238095Y-104400000D01*
X143276190Y-104476190D01*
X143314285Y-104514285D01*
X143428571Y-104590476D01*
X143580952Y-104628571D01*
X143885714Y-104628571D01*
X143961904Y-104590476D01*
X144000000Y-104552380D01*
X144038095Y-104476190D01*
X144038095Y-104323809D01*
X144000000Y-104247619D01*
X143961904Y-104209523D01*
X143885714Y-104171428D01*
X143695238Y-104171428D01*
X143619047Y-104209523D01*
X143580952Y-104247619D01*
X143542857Y-104323809D01*
X143542857Y-104476190D01*
X143580952Y-104552380D01*
X143619047Y-104590476D01*
X143695238Y-104628571D01*
X144038095Y-83833333D02*
X144038095Y-84328571D01*
X143733333Y-84061904D01*
X143733333Y-84176190D01*
X143695238Y-84252380D01*
X143657142Y-84290476D01*
X143580952Y-84328571D01*
X143390476Y-84328571D01*
X143314285Y-84290476D01*
X143276190Y-84252380D01*
X143238095Y-84176190D01*
X143238095Y-83947619D01*
X143276190Y-83871428D01*
X143314285Y-83833333D01*
X143771428Y-86852380D02*
X143238095Y-86852380D01*
X144076190Y-86661904D02*
X143504761Y-86471428D01*
X143504761Y-86966666D01*
X144038095Y-94033333D02*
X144038095Y-94566666D01*
X143238095Y-94223809D01*
X157533333Y-87171428D02*
X157533333Y-86790476D01*
X157761904Y-87247619D02*
X156961904Y-86980952D01*
X157761904Y-86714285D01*
X156961904Y-86295238D02*
X156961904Y-86219047D01*
X157000000Y-86142857D01*
X157038095Y-86104761D01*
X157114285Y-86066666D01*
X157266666Y-86028571D01*
X157457142Y-86028571D01*
X157609523Y-86066666D01*
X157685714Y-86104761D01*
X157723809Y-86142857D01*
X157761904Y-86219047D01*
X157761904Y-86295238D01*
X157723809Y-86371428D01*
X157685714Y-86409523D01*
X157609523Y-86447619D01*
X157457142Y-86485714D01*
X157266666Y-86485714D01*
X157114285Y-86447619D01*
X157038095Y-86409523D01*
X157000000Y-86371428D01*
X156961904Y-86295238D01*
X143238095Y-109347619D02*
X143238095Y-108890476D01*
X143238095Y-109119047D02*
X144038095Y-109119047D01*
X143923809Y-109042857D01*
X143847619Y-108966666D01*
X143809523Y-108890476D01*
X143238095Y-110109523D02*
X143238095Y-109652380D01*
X143238095Y-109880952D02*
X144038095Y-109880952D01*
X143923809Y-109804761D01*
X143847619Y-109728571D01*
X143809523Y-109652380D01*
X147833333Y-70861904D02*
X147833333Y-71433333D01*
X147795238Y-71547619D01*
X147719047Y-71623809D01*
X147604761Y-71661904D01*
X147528571Y-71661904D01*
X148595238Y-71661904D02*
X148214285Y-71661904D01*
X148214285Y-70861904D01*
X149319047Y-71585714D02*
X149280952Y-71623809D01*
X149166666Y-71661904D01*
X149090476Y-71661904D01*
X148976190Y-71623809D01*
X148900000Y-71547619D01*
X148861904Y-71471428D01*
X148823809Y-71319047D01*
X148823809Y-71204761D01*
X148861904Y-71052380D01*
X148900000Y-70976190D01*
X148976190Y-70900000D01*
X149090476Y-70861904D01*
X149166666Y-70861904D01*
X149280952Y-70900000D01*
X149319047Y-70938095D01*
X149890476Y-70861904D02*
X149890476Y-71433333D01*
X149852380Y-71547619D01*
X149776190Y-71623809D01*
X149661904Y-71661904D01*
X149585714Y-71661904D01*
X150652380Y-71661904D02*
X150271428Y-71661904D01*
X150271428Y-70861904D01*
X151376190Y-71585714D02*
X151338095Y-71623809D01*
X151223809Y-71661904D01*
X151147619Y-71661904D01*
X151033333Y-71623809D01*
X150957142Y-71547619D01*
X150919047Y-71471428D01*
X150880952Y-71319047D01*
X150880952Y-71204761D01*
X150919047Y-71052380D01*
X150957142Y-70976190D01*
X151033333Y-70900000D01*
X151147619Y-70861904D01*
X151223809Y-70861904D01*
X151338095Y-70900000D01*
X151376190Y-70938095D01*
X151947619Y-70861904D02*
X151947619Y-71433333D01*
X151909523Y-71547619D01*
X151833333Y-71623809D01*
X151719047Y-71661904D01*
X151642857Y-71661904D01*
X152709523Y-71661904D02*
X152328571Y-71661904D01*
X152328571Y-70861904D01*
X153433333Y-71585714D02*
X153395238Y-71623809D01*
X153280952Y-71661904D01*
X153204761Y-71661904D01*
X153090476Y-71623809D01*
X153014285Y-71547619D01*
X152976190Y-71471428D01*
X152938095Y-71319047D01*
X152938095Y-71204761D01*
X152976190Y-71052380D01*
X153014285Y-70976190D01*
X153090476Y-70900000D01*
X153204761Y-70861904D01*
X153280952Y-70861904D01*
X153395238Y-70900000D01*
X153433333Y-70938095D01*
X144000000Y-95990476D02*
X144038095Y-95914285D01*
X144038095Y-95800000D01*
X144000000Y-95685714D01*
X143923809Y-95609523D01*
X143847619Y-95571428D01*
X143695238Y-95533333D01*
X143580952Y-95533333D01*
X143428571Y-95571428D01*
X143352380Y-95609523D01*
X143276190Y-95685714D01*
X143238095Y-95800000D01*
X143238095Y-95876190D01*
X143276190Y-95990476D01*
X143314285Y-96028571D01*
X143580952Y-96028571D01*
X143580952Y-95876190D01*
X143238095Y-96371428D02*
X144038095Y-96371428D01*
X143238095Y-96828571D01*
X144038095Y-96828571D01*
X143238095Y-97209523D02*
X144038095Y-97209523D01*
X144038095Y-97400000D01*
X144000000Y-97514285D01*
X143923809Y-97590476D01*
X143847619Y-97628571D01*
X143695238Y-97666666D01*
X143580952Y-97666666D01*
X143428571Y-97628571D01*
X143352380Y-97590476D01*
X143276190Y-97514285D01*
X143238095Y-97400000D01*
X143238095Y-97209523D01*
X157533333Y-79671428D02*
X157533333Y-79290476D01*
X157761904Y-79747619D02*
X156961904Y-79480952D01*
X157761904Y-79214285D01*
X156961904Y-79023809D02*
X156961904Y-78528571D01*
X157266666Y-78795238D01*
X157266666Y-78680952D01*
X157304761Y-78604761D01*
X157342857Y-78566666D01*
X157419047Y-78528571D01*
X157609523Y-78528571D01*
X157685714Y-78566666D01*
X157723809Y-78604761D01*
X157761904Y-78680952D01*
X157761904Y-78909523D01*
X157723809Y-78985714D01*
X157685714Y-79023809D01*
X157761904Y-114752380D02*
X157761904Y-115209523D01*
X157761904Y-114980952D02*
X156961904Y-114980952D01*
X157076190Y-115057142D01*
X157152380Y-115133333D01*
X157190476Y-115209523D01*
X157304761Y-114295238D02*
X157266666Y-114371428D01*
X157228571Y-114409523D01*
X157152380Y-114447619D01*
X157114285Y-114447619D01*
X157038095Y-114409523D01*
X157000000Y-114371428D01*
X156961904Y-114295238D01*
X156961904Y-114142857D01*
X157000000Y-114066666D01*
X157038095Y-114028571D01*
X157114285Y-113990476D01*
X157152380Y-113990476D01*
X157228571Y-114028571D01*
X157266666Y-114066666D01*
X157304761Y-114142857D01*
X157304761Y-114295238D01*
X157342857Y-114371428D01*
X157380952Y-114409523D01*
X157457142Y-114447619D01*
X157609523Y-114447619D01*
X157685714Y-114409523D01*
X157723809Y-114371428D01*
X157761904Y-114295238D01*
X157761904Y-114142857D01*
X157723809Y-114066666D01*
X157685714Y-114028571D01*
X157609523Y-113990476D01*
X157457142Y-113990476D01*
X157380952Y-114028571D01*
X157342857Y-114066666D01*
X157304761Y-114142857D01*
X143695238Y-101823809D02*
X143733333Y-101747619D01*
X143771428Y-101709523D01*
X143847619Y-101671428D01*
X143885714Y-101671428D01*
X143961904Y-101709523D01*
X144000000Y-101747619D01*
X144038095Y-101823809D01*
X144038095Y-101976190D01*
X144000000Y-102052380D01*
X143961904Y-102090476D01*
X143885714Y-102128571D01*
X143847619Y-102128571D01*
X143771428Y-102090476D01*
X143733333Y-102052380D01*
X143695238Y-101976190D01*
X143695238Y-101823809D01*
X143657142Y-101747619D01*
X143619047Y-101709523D01*
X143542857Y-101671428D01*
X143390476Y-101671428D01*
X143314285Y-101709523D01*
X143276190Y-101747619D01*
X143238095Y-101823809D01*
X143238095Y-101976190D01*
X143276190Y-102052380D01*
X143314285Y-102090476D01*
X143390476Y-102128571D01*
X143542857Y-102128571D01*
X143619047Y-102090476D01*
X143657142Y-102052380D01*
X143695238Y-101976190D01*
X144038095Y-73409523D02*
X144038095Y-73904761D01*
X143733333Y-73638095D01*
X143733333Y-73752380D01*
X143695238Y-73828571D01*
X143657142Y-73866666D01*
X143580952Y-73904761D01*
X143390476Y-73904761D01*
X143314285Y-73866666D01*
X143276190Y-73828571D01*
X143238095Y-73752380D01*
X143238095Y-73523809D01*
X143276190Y-73447619D01*
X143314285Y-73409523D01*
X144038095Y-74133333D02*
X143238095Y-74400000D01*
X144038095Y-74666666D01*
X144038095Y-74857142D02*
X144038095Y-75352380D01*
X143733333Y-75085714D01*
X143733333Y-75200000D01*
X143695238Y-75276190D01*
X143657142Y-75314285D01*
X143580952Y-75352380D01*
X143390476Y-75352380D01*
X143314285Y-75314285D01*
X143276190Y-75276190D01*
X143238095Y-75200000D01*
X143238095Y-74971428D01*
X143276190Y-74895238D01*
X143314285Y-74857142D01*
X143238095Y-106847619D02*
X143238095Y-106390476D01*
X143238095Y-106619047D02*
X144038095Y-106619047D01*
X143923809Y-106542857D01*
X143847619Y-106466666D01*
X143809523Y-106390476D01*
X144038095Y-107342857D02*
X144038095Y-107419047D01*
X144000000Y-107495238D01*
X143961904Y-107533333D01*
X143885714Y-107571428D01*
X143733333Y-107609523D01*
X143542857Y-107609523D01*
X143390476Y-107571428D01*
X143314285Y-107533333D01*
X143276190Y-107495238D01*
X143238095Y-107419047D01*
X143238095Y-107342857D01*
X143276190Y-107266666D01*
X143314285Y-107228571D01*
X143390476Y-107190476D01*
X143542857Y-107152380D01*
X143733333Y-107152380D01*
X143885714Y-107190476D01*
X143961904Y-107228571D01*
X144000000Y-107266666D01*
X144038095Y-107342857D01*
X143238095Y-116947619D02*
X143238095Y-116490476D01*
X143238095Y-116719047D02*
X144038095Y-116719047D01*
X143923809Y-116642857D01*
X143847619Y-116566666D01*
X143809523Y-116490476D01*
X143771428Y-117633333D02*
X143238095Y-117633333D01*
X144076190Y-117442857D02*
X143504761Y-117252380D01*
X143504761Y-117747619D01*
X143238095Y-79228571D02*
X143238095Y-78771428D01*
X143238095Y-79000000D02*
X144038095Y-79000000D01*
X143923809Y-78923809D01*
X143847619Y-78847619D01*
X143809523Y-78771428D01*
X157038095Y-105109523D02*
X157000000Y-105071428D01*
X156961904Y-104995238D01*
X156961904Y-104804761D01*
X157000000Y-104728571D01*
X157038095Y-104690476D01*
X157114285Y-104652380D01*
X157190476Y-104652380D01*
X157304761Y-104690476D01*
X157761904Y-105147619D01*
X157761904Y-104652380D01*
X157038095Y-104347619D02*
X157000000Y-104309523D01*
X156961904Y-104233333D01*
X156961904Y-104042857D01*
X157000000Y-103966666D01*
X157038095Y-103928571D01*
X157114285Y-103890476D01*
X157190476Y-103890476D01*
X157304761Y-103928571D01*
X157761904Y-104385714D01*
X157761904Y-103890476D01*
X157761904Y-117252380D02*
X157761904Y-117709523D01*
X157761904Y-117480952D02*
X156961904Y-117480952D01*
X157076190Y-117557142D01*
X157152380Y-117633333D01*
X157190476Y-117709523D01*
X156961904Y-116985714D02*
X156961904Y-116452380D01*
X157761904Y-116795238D01*
X143238095Y-119347619D02*
X143238095Y-118890476D01*
X143238095Y-119119047D02*
X144038095Y-119119047D01*
X143923809Y-119042857D01*
X143847619Y-118966666D01*
X143809523Y-118890476D01*
X144038095Y-120071428D02*
X144038095Y-119690476D01*
X143657142Y-119652380D01*
X143695238Y-119690476D01*
X143733333Y-119766666D01*
X143733333Y-119957142D01*
X143695238Y-120033333D01*
X143657142Y-120071428D01*
X143580952Y-120109523D01*
X143390476Y-120109523D01*
X143314285Y-120071428D01*
X143276190Y-120033333D01*
X143238095Y-119957142D01*
X143238095Y-119766666D01*
X143276190Y-119690476D01*
X143314285Y-119652380D01*
X143238095Y-114447619D02*
X143238095Y-113990476D01*
X143238095Y-114219047D02*
X144038095Y-114219047D01*
X143923809Y-114142857D01*
X143847619Y-114066666D01*
X143809523Y-113990476D01*
X144038095Y-114714285D02*
X144038095Y-115209523D01*
X143733333Y-114942857D01*
X143733333Y-115057142D01*
X143695238Y-115133333D01*
X143657142Y-115171428D01*
X143580952Y-115209523D01*
X143390476Y-115209523D01*
X143314285Y-115171428D01*
X143276190Y-115133333D01*
X143238095Y-115057142D01*
X143238095Y-114828571D01*
X143276190Y-114752380D01*
X143314285Y-114714285D01*
X156961904Y-72166666D02*
X157761904Y-71900000D01*
X156961904Y-71633333D01*
X157342857Y-71100000D02*
X157380952Y-70985714D01*
X157419047Y-70947619D01*
X157495238Y-70909523D01*
X157609523Y-70909523D01*
X157685714Y-70947619D01*
X157723809Y-70985714D01*
X157761904Y-71061904D01*
X157761904Y-71366666D01*
X156961904Y-71366666D01*
X156961904Y-71100000D01*
X157000000Y-71023809D01*
X157038095Y-70985714D01*
X157114285Y-70947619D01*
X157190476Y-70947619D01*
X157266666Y-70985714D01*
X157304761Y-71023809D01*
X157342857Y-71100000D01*
X157342857Y-71366666D01*
X157761904Y-112252380D02*
X157761904Y-112709523D01*
X157761904Y-112480952D02*
X156961904Y-112480952D01*
X157076190Y-112557142D01*
X157152380Y-112633333D01*
X157190476Y-112709523D01*
X157761904Y-111871428D02*
X157761904Y-111719047D01*
X157723809Y-111642857D01*
X157685714Y-111604761D01*
X157571428Y-111528571D01*
X157419047Y-111490476D01*
X157114285Y-111490476D01*
X157038095Y-111528571D01*
X157000000Y-111566666D01*
X156961904Y-111642857D01*
X156961904Y-111795238D01*
X157000000Y-111871428D01*
X157038095Y-111909523D01*
X157114285Y-111947619D01*
X157304761Y-111947619D01*
X157380952Y-111909523D01*
X157419047Y-111871428D01*
X157457142Y-111795238D01*
X157457142Y-111642857D01*
X157419047Y-111566666D01*
X157380952Y-111528571D01*
X157304761Y-111490476D01*
X157533333Y-82171428D02*
X157533333Y-81790476D01*
X157761904Y-82247619D02*
X156961904Y-81980952D01*
X157761904Y-81714285D01*
X157038095Y-81485714D02*
X157000000Y-81447619D01*
X156961904Y-81371428D01*
X156961904Y-81180952D01*
X157000000Y-81104761D01*
X157038095Y-81066666D01*
X157114285Y-81028571D01*
X157190476Y-81028571D01*
X157304761Y-81066666D01*
X157761904Y-81523809D01*
X157761904Y-81028571D01*
X146371904Y-112665714D02*
X146371904Y-112170476D01*
X146676666Y-112437142D01*
X146676666Y-112322857D01*
X146714761Y-112246666D01*
X146752857Y-112208571D01*
X146829047Y-112170476D01*
X147019523Y-112170476D01*
X147095714Y-112208571D01*
X147133809Y-112246666D01*
X147171904Y-112322857D01*
X147171904Y-112551428D01*
X147133809Y-112627619D01*
X147095714Y-112665714D01*
X146371904Y-111941904D02*
X147171904Y-111675238D01*
X146371904Y-111408571D01*
X146371904Y-111218095D02*
X146371904Y-110722857D01*
X146676666Y-110989523D01*
X146676666Y-110875238D01*
X146714761Y-110799047D01*
X146752857Y-110760952D01*
X146829047Y-110722857D01*
X147019523Y-110722857D01*
X147095714Y-110760952D01*
X147133809Y-110799047D01*
X147171904Y-110875238D01*
X147171904Y-111103809D01*
X147133809Y-111180000D01*
X147095714Y-111218095D01*
X149492857Y-84752380D02*
X149530952Y-84638095D01*
X149569047Y-84600000D01*
X149645238Y-84561904D01*
X149759523Y-84561904D01*
X149835714Y-84600000D01*
X149873809Y-84638095D01*
X149911904Y-84714285D01*
X149911904Y-85019047D01*
X149111904Y-85019047D01*
X149111904Y-84752380D01*
X149150000Y-84676190D01*
X149188095Y-84638095D01*
X149264285Y-84600000D01*
X149340476Y-84600000D01*
X149416666Y-84638095D01*
X149454761Y-84676190D01*
X149492857Y-84752380D01*
X149492857Y-85019047D01*
X149111904Y-84066666D02*
X149111904Y-83914285D01*
X149150000Y-83838095D01*
X149226190Y-83761904D01*
X149378571Y-83723809D01*
X149645238Y-83723809D01*
X149797619Y-83761904D01*
X149873809Y-83838095D01*
X149911904Y-83914285D01*
X149911904Y-84066666D01*
X149873809Y-84142857D01*
X149797619Y-84219047D01*
X149645238Y-84257142D01*
X149378571Y-84257142D01*
X149226190Y-84219047D01*
X149150000Y-84142857D01*
X149111904Y-84066666D01*
X149111904Y-83228571D02*
X149111904Y-83076190D01*
X149150000Y-83000000D01*
X149226190Y-82923809D01*
X149378571Y-82885714D01*
X149645238Y-82885714D01*
X149797619Y-82923809D01*
X149873809Y-83000000D01*
X149911904Y-83076190D01*
X149911904Y-83228571D01*
X149873809Y-83304761D01*
X149797619Y-83380952D01*
X149645238Y-83419047D01*
X149378571Y-83419047D01*
X149226190Y-83380952D01*
X149150000Y-83304761D01*
X149111904Y-83228571D01*
X149111904Y-82657142D02*
X149111904Y-82200000D01*
X149911904Y-82428571D02*
X149111904Y-82428571D01*
X149873809Y-81971428D02*
X149911904Y-81857142D01*
X149911904Y-81666666D01*
X149873809Y-81590476D01*
X149835714Y-81552380D01*
X149759523Y-81514285D01*
X149683333Y-81514285D01*
X149607142Y-81552380D01*
X149569047Y-81590476D01*
X149530952Y-81666666D01*
X149492857Y-81819047D01*
X149454761Y-81895238D01*
X149416666Y-81933333D01*
X149340476Y-81971428D01*
X149264285Y-81971428D01*
X149188095Y-81933333D01*
X149150000Y-81895238D01*
X149111904Y-81819047D01*
X149111904Y-81628571D01*
X149150000Y-81514285D01*
X149492857Y-81171428D02*
X149492857Y-80904761D01*
X149911904Y-80790476D02*
X149911904Y-81171428D01*
X149111904Y-81171428D01*
X149111904Y-80790476D01*
X149911904Y-80066666D02*
X149911904Y-80447619D01*
X149111904Y-80447619D01*
X144038095Y-98709523D02*
X144038095Y-99204761D01*
X143733333Y-98938095D01*
X143733333Y-99052380D01*
X143695238Y-99128571D01*
X143657142Y-99166666D01*
X143580952Y-99204761D01*
X143390476Y-99204761D01*
X143314285Y-99166666D01*
X143276190Y-99128571D01*
X143238095Y-99052380D01*
X143238095Y-98823809D01*
X143276190Y-98747619D01*
X143314285Y-98709523D01*
X144038095Y-99433333D02*
X143238095Y-99700000D01*
X144038095Y-99966666D01*
X144038095Y-100157142D02*
X144038095Y-100652380D01*
X143733333Y-100385714D01*
X143733333Y-100500000D01*
X143695238Y-100576190D01*
X143657142Y-100614285D01*
X143580952Y-100652380D01*
X143390476Y-100652380D01*
X143314285Y-100614285D01*
X143276190Y-100576190D01*
X143238095Y-100500000D01*
X143238095Y-100271428D01*
X143276190Y-100195238D01*
X143314285Y-100157142D01*
X149633809Y-112627619D02*
X149671904Y-112513333D01*
X149671904Y-112322857D01*
X149633809Y-112246666D01*
X149595714Y-112208571D01*
X149519523Y-112170476D01*
X149443333Y-112170476D01*
X149367142Y-112208571D01*
X149329047Y-112246666D01*
X149290952Y-112322857D01*
X149252857Y-112475238D01*
X149214761Y-112551428D01*
X149176666Y-112589523D01*
X149100476Y-112627619D01*
X149024285Y-112627619D01*
X148948095Y-112589523D01*
X148910000Y-112551428D01*
X148871904Y-112475238D01*
X148871904Y-112284761D01*
X148910000Y-112170476D01*
X149671904Y-111827619D02*
X148871904Y-111827619D01*
X148871904Y-111637142D01*
X148910000Y-111522857D01*
X148986190Y-111446666D01*
X149062380Y-111408571D01*
X149214761Y-111370476D01*
X149329047Y-111370476D01*
X149481428Y-111408571D01*
X149557619Y-111446666D01*
X149633809Y-111522857D01*
X149671904Y-111637142D01*
X149671904Y-111827619D01*
X149671904Y-111027619D02*
X148871904Y-111027619D01*
X148871904Y-110494285D02*
X148871904Y-110341904D01*
X148910000Y-110265714D01*
X148986190Y-110189523D01*
X149138571Y-110151428D01*
X149405238Y-110151428D01*
X149557619Y-110189523D01*
X149633809Y-110265714D01*
X149671904Y-110341904D01*
X149671904Y-110494285D01*
X149633809Y-110570476D01*
X149557619Y-110646666D01*
X149405238Y-110684761D01*
X149138571Y-110684761D01*
X148986190Y-110646666D01*
X148910000Y-110570476D01*
X148871904Y-110494285D01*
X157000000Y-92509523D02*
X156961904Y-92585714D01*
X156961904Y-92700000D01*
X157000000Y-92814285D01*
X157076190Y-92890476D01*
X157152380Y-92928571D01*
X157304761Y-92966666D01*
X157419047Y-92966666D01*
X157571428Y-92928571D01*
X157647619Y-92890476D01*
X157723809Y-92814285D01*
X157761904Y-92700000D01*
X157761904Y-92623809D01*
X157723809Y-92509523D01*
X157685714Y-92471428D01*
X157419047Y-92471428D01*
X157419047Y-92623809D01*
X157761904Y-92128571D02*
X156961904Y-92128571D01*
X157761904Y-91671428D01*
X156961904Y-91671428D01*
X157761904Y-91290476D02*
X156961904Y-91290476D01*
X156961904Y-91100000D01*
X157000000Y-90985714D01*
X157076190Y-90909523D01*
X157152380Y-90871428D01*
X157304761Y-90833333D01*
X157419047Y-90833333D01*
X157571428Y-90871428D01*
X157647619Y-90909523D01*
X157723809Y-90985714D01*
X157761904Y-91100000D01*
X157761904Y-91290476D01*
X144038095Y-89390476D02*
X144038095Y-89009523D01*
X143657142Y-88971428D01*
X143695238Y-89009523D01*
X143733333Y-89085714D01*
X143733333Y-89276190D01*
X143695238Y-89352380D01*
X143657142Y-89390476D01*
X143580952Y-89428571D01*
X143390476Y-89428571D01*
X143314285Y-89390476D01*
X143276190Y-89352380D01*
X143238095Y-89276190D01*
X143238095Y-89085714D01*
X143276190Y-89009523D01*
X143314285Y-88971428D01*
X144038095Y-91952380D02*
X144038095Y-91800000D01*
X144000000Y-91723809D01*
X143961904Y-91685714D01*
X143847619Y-91609523D01*
X143695238Y-91571428D01*
X143390476Y-91571428D01*
X143314285Y-91609523D01*
X143276190Y-91647619D01*
X143238095Y-91723809D01*
X143238095Y-91876190D01*
X143276190Y-91952380D01*
X143314285Y-91990476D01*
X143390476Y-92028571D01*
X143580952Y-92028571D01*
X143657142Y-91990476D01*
X143695238Y-91952380D01*
X143733333Y-91876190D01*
X143733333Y-91723809D01*
X143695238Y-91647619D01*
X143657142Y-91609523D01*
X143580952Y-91571428D01*
D11*
%TO.C,R5*%
X151555000Y-90763641D02*
X151555000Y-90456359D01*
X150795000Y-90763641D02*
X150795000Y-90456359D01*
%TO.C,D1*%
X152570000Y-82150000D02*
X152570000Y-82050000D01*
X152570000Y-82150000D02*
X155370000Y-82150000D01*
X155370000Y-82150000D02*
X155370000Y-82050000D01*
X155370000Y-80450000D02*
X155370000Y-80350000D01*
X152570000Y-80350000D02*
X152570000Y-80450000D01*
X155370000Y-80350000D02*
X152570000Y-80350000D01*
D12*
X151795000Y-82250000D02*
G75*
G03*
X151795000Y-82250000I-75000J0D01*
G01*
D11*
%TO.C,C5*%
X155342164Y-94860000D02*
X155557836Y-94860000D01*
X155342164Y-94140000D02*
X155557836Y-94140000D01*
%TO.C,C16*%
X148652164Y-104840000D02*
X148867836Y-104840000D01*
X148652164Y-105560000D02*
X148867836Y-105560000D01*
%TO.C,R7*%
X154576141Y-88955000D02*
X154268859Y-88955000D01*
X154576141Y-89715000D02*
X154268859Y-89715000D01*
%TO.C,C11*%
X155342164Y-92660000D02*
X155557836Y-92660000D01*
X155342164Y-91940000D02*
X155557836Y-91940000D01*
%TO.C,C1*%
X155090000Y-83934420D02*
X155090000Y-84215580D01*
X156110000Y-83934420D02*
X156110000Y-84215580D01*
%TO.C,J4*%
X145360000Y-115785000D02*
X145360000Y-118445000D01*
X154690000Y-118445000D02*
X154690000Y-120545000D01*
X155640000Y-115785000D02*
X145360000Y-115785000D01*
X155640000Y-118445000D02*
X155640000Y-115785000D01*
X151390000Y-120545000D02*
X151390000Y-118445000D01*
X152150000Y-118445000D02*
X152150000Y-120545000D01*
X146310000Y-120545000D02*
X146310000Y-118445000D01*
X148850000Y-120545000D02*
X148850000Y-118445000D01*
X145360000Y-118445000D02*
X155640000Y-118445000D01*
X153930000Y-120545000D02*
X153930000Y-118445000D01*
X147070000Y-118445000D02*
X147070000Y-120545000D01*
X149610000Y-118445000D02*
X149610000Y-120545000D01*
%TO.C,C3*%
X153340000Y-92857836D02*
X153340000Y-92642164D01*
X154060000Y-92857836D02*
X154060000Y-92642164D01*
%TO.C,R6*%
X152605000Y-90753641D02*
X152605000Y-90446359D01*
X151845000Y-90753641D02*
X151845000Y-90446359D01*
%TO.C,R2*%
X151745000Y-78946359D02*
X151745000Y-79253641D01*
X152505000Y-78946359D02*
X152505000Y-79253641D01*
%TO.C,C14*%
X149515000Y-92257836D02*
X149515000Y-92042164D01*
X150235000Y-92257836D02*
X150235000Y-92042164D01*
%TO.C,R8*%
X146346359Y-86820000D02*
X146653641Y-86820000D01*
X146346359Y-87580000D02*
X146653641Y-87580000D01*
%TO.C,U2*%
X147000000Y-101800000D02*
X147500000Y-101800000D01*
X147500000Y-101800000D02*
X147000000Y-101800000D01*
X147000000Y-94800000D02*
X147500000Y-94800000D01*
X154000000Y-101800000D02*
X153500000Y-101800000D01*
X147000000Y-101800000D02*
X147000000Y-101300000D01*
X147000000Y-95300000D02*
X147000000Y-94800000D01*
X147000000Y-94800000D02*
X147000000Y-95300000D01*
X154000000Y-101800000D02*
X154000000Y-101300000D01*
X154000000Y-94800000D02*
X154000000Y-95300000D01*
X154000000Y-101300000D02*
X154000000Y-101800000D01*
X154000000Y-94800000D02*
X153500000Y-94800000D01*
D13*
X148180000Y-95900000D02*
G75*
G03*
X148180000Y-95900000I-80000J0D01*
G01*
D11*
%TO.C,R1*%
X147453641Y-79130000D02*
X147146359Y-79130000D01*
X147453641Y-78370000D02*
X147146359Y-78370000D01*
%TO.C,LED1*%
X154562742Y-90285000D02*
X155037258Y-90285000D01*
X154562742Y-91285000D02*
X155037258Y-91285000D01*
D12*
X153475000Y-91585000D02*
G75*
G03*
X153475000Y-91585000I-75000J0D01*
G01*
D11*
%TO.C,C15*%
X151210000Y-108092164D02*
X151210000Y-108307836D01*
X150490000Y-108092164D02*
X150490000Y-108307836D01*
%TO.C,SW1*%
X146350000Y-84500000D02*
X147350000Y-84500000D01*
X148450000Y-80300000D02*
X148450000Y-84500000D01*
X146350000Y-80300000D02*
X147350000Y-80300000D01*
X145250000Y-80300000D02*
X145250000Y-84500000D01*
%TO.C,C17*%
X146842164Y-87990000D02*
X147057836Y-87990000D01*
X146842164Y-88710000D02*
X147057836Y-88710000D01*
%TO.C,R4*%
X151230000Y-106096359D02*
X151230000Y-106403641D01*
X150470000Y-106096359D02*
X150470000Y-106403641D01*
%TO.C,C8*%
X151360000Y-103792164D02*
X151360000Y-104007836D01*
X150640000Y-103792164D02*
X150640000Y-104007836D01*
%TO.C,Y1*%
X146500000Y-107450000D02*
X146500000Y-107650000D01*
X149700000Y-107450000D02*
X149700000Y-107650000D01*
X147840000Y-108800000D02*
X148360000Y-108800000D01*
X147840000Y-106300000D02*
X148360000Y-106300000D01*
%TO.C,J1*%
X145800000Y-71000000D02*
X145800000Y-70500000D01*
X155200000Y-74900000D02*
X155200000Y-72900000D01*
X155200000Y-71000000D02*
X155200000Y-70500000D01*
X145800000Y-74900000D02*
X145800000Y-72900000D01*
%TO.C,C2*%
X155860000Y-86827836D02*
X155860000Y-86612164D01*
X155140000Y-86827836D02*
X155140000Y-86612164D01*
%TO.C,U3*%
X146100000Y-93050000D02*
X146100000Y-90250000D01*
X148100000Y-93050000D02*
X148100000Y-90250000D01*
D10*
X146500000Y-92300000D02*
G75*
G03*
X146500000Y-92300000I-50000J0D01*
G01*
D11*
%TO.C,C9*%
X146385000Y-95132836D02*
X146385000Y-94917164D01*
X145665000Y-95132836D02*
X145665000Y-94917164D01*
%TO.C,SW2*%
X155050000Y-104950000D02*
X154050000Y-104950000D01*
X152950000Y-109150000D02*
X152950000Y-104950000D01*
X156150000Y-109150000D02*
X156150000Y-104950000D01*
X155050000Y-109150000D02*
X154050000Y-109150000D01*
%TO.C,C6*%
X145420000Y-99852164D02*
X145420000Y-100067836D01*
X144700000Y-99852164D02*
X144700000Y-100067836D01*
%TO.C,R9*%
X146346359Y-85670000D02*
X146653641Y-85670000D01*
X146346359Y-86430000D02*
X146653641Y-86430000D01*
%TO.C,C13*%
X152360000Y-104217164D02*
X152360000Y-104432836D01*
X151640000Y-104217164D02*
X151640000Y-104432836D01*
%TO.C,C7*%
X155740000Y-99762164D02*
X155740000Y-99977836D01*
X156460000Y-99762164D02*
X156460000Y-99977836D01*
%TO.C,C12*%
X152910000Y-92857836D02*
X152910000Y-92642164D01*
X152190000Y-92857836D02*
X152190000Y-92642164D01*
%TO.C,F1*%
X154712742Y-78577500D02*
X155187258Y-78577500D01*
X154712742Y-79622500D02*
X155187258Y-79622500D01*
%TO.C,U1*%
X151750000Y-85750000D02*
X151750000Y-85100000D01*
X151750000Y-85750000D02*
X151750000Y-86500000D01*
X154650000Y-85800000D02*
X154650000Y-85100000D01*
X153550000Y-86500000D02*
X152850000Y-86500000D01*
X154650000Y-85800000D02*
X154650000Y-86500000D01*
X154310000Y-85500000D02*
G75*
G03*
X154310000Y-85500000I-60000J0D01*
G01*
%TO.C,FB1*%
X152396359Y-82820000D02*
X152703641Y-82820000D01*
X152396359Y-83580000D02*
X152703641Y-83580000D01*
%TO.C,C4*%
X151235000Y-92707836D02*
X151235000Y-92492164D01*
X150515000Y-92707836D02*
X150515000Y-92492164D01*
%TO.C,C10*%
X155342164Y-93760000D02*
X155557836Y-93760000D01*
X155342164Y-93040000D02*
X155557836Y-93040000D01*
%TD*%
M02*
